<?xml version="1.0" encoding="UTF-8" standalone="no"?>
<svg
   viewBox="0 0 32 32"
   id="Calendar--Streamline-Emojitwo"
   height="32"
   width="32"
   version="1.1"
   sodipodi:docname="calendar.svg"
   inkscape:version="1.4 (86a8ad7, 2024-10-11)"
   xmlns:inkscape="http://www.inkscape.org/namespaces/inkscape"
   xmlns:sodipodi="http://sodipodi.sourceforge.net/DTD/sodipodi-0.dtd"
   xmlns="http://www.w3.org/2000/svg"
   xmlns:svg="http://www.w3.org/2000/svg">
  <defs
     id="defs8" />
  <sodipodi:namedview
     id="namedview8"
     pagecolor="#ffffff"
     bordercolor="#999999"
     borderopacity="1"
     inkscape:showpageshadow="2"
     inkscape:pageopacity="0"
     inkscape:pagecheckerboard="0"
     inkscape:deskcolor="#d1d1d1"
     inkscape:zoom="24.84375"
     inkscape:cx="16.583648"
     inkscape:cy="18.616352"
     inkscape:window-width="1920"
     inkscape:window-height="991"
     inkscape:window-x="-9"
     inkscape:window-y="-9"
     inkscape:window-maximized="1"
     inkscape:current-layer="Calendar--Streamline-Emojitwo" />
  <desc
     id="desc1">
    Calendar Streamline Emoji: https://streamlinehq.com
  </desc>
  <title
     id="title1">calendar</title>
  <path
     fill="#ba9372"
     d="M29.05 9.8c-4.9 -3 -12.5 -7.4 -13.55 -7.4 -1.05 0 -8.35 4.45 -13 7.4l-0.25 -0.45C3.45 8.6 14 1.9 15.5 1.9s12.55 6.7 13.8 7.5l-0.25 0.4"
     stroke-width="0.5"
     id="path1" />
  <path
     fill="#93a2aa"
     d="M31 28.4c0 0.8 -0.6 1.5 -1.35 1.5H3.4c-0.75 0 -1.35 -0.65 -1.35 -1.5V10.55c0 -0.8 0.6 -1.5 1.35 -1.5h26.25c0.75 0 1.35 0.65 1.35 1.5v17.85"
     stroke-width="0.5"
     id="path2" />
  <path
     fill="#ed4c5c"
     d="M30 10.55c0 -0.8 -0.6 -1.5 -1.35 -1.5H2.35c-0.75 0 -1.35 0.65 -1.35 1.5v4.75h29v-4.75z"
     stroke-width="0.5"
     id="path3"
     style="fill:#9a7fd1;fill-opacity:1" />
  <path
     fill="#d9e3e8"
     d="M1 15.3v13.1c0 0.8 0.6 1.5 1.35 1.5h26.25c0.75 0 1.35 -0.65 1.35 -1.5V15.3H1z"
     stroke-width="0.5"
     id="path4" />
  <g
     fill="#93a2aa"
     id="g5">
    <path
       d="M2.25 16.5h3v1.1h-3zm3.9 0h3v1.1h-3zm3.95 0h3v1.1h-3zm3.9 0h3v1.1h-3zm3.9 0h3v1.1h-3zm3.95 0h3v1.1h-3zm3.9 0h3v1.1h-3zM14 18.7h3v1.1h-3zm3.9 0h3v1.1h-3zm3.95 0h3v1.1h-3zm3.9 0h3v1.1h-3zm-23.5 2.2h3V22h-3zm3.9 0h3V22h-3zm3.95 0h3V22h-3zm3.9 0h3V22h-3zm3.9 0h3V22h-3zm3.95 0h3V22h-3zm3.9 0h3V22h-3zm-23.5 2.25h3v1.1h-3zm3.9 0h3v1.1h-3zm3.95 0h3v1.1h-3zm3.9 0h3v1.1h-3zm3.9 0h3v1.1h-3zm3.95 0h3v1.1h-3zm3.9 0h3v1.1h-3zm-23.5 2.2h3v1.1h-3zm3.9 0h3v1.1h-3zm3.95 0h3v1.1h-3zm3.9 0h3v1.1h-3zm3.9 0h3v1.1h-3zm3.95 0h3v1.1h-3zm3.9 0h3v1.1h-3zm-23.5 2.2h3v1.1h-3zm3.9 0h3v1.1h-3zm3.95 0h3v1.1h-3zm3.9 0h3v1.1h-3zm3.9 0h3v1.1h-3zm3.95 0h3v1.1h-3z"
       stroke-width="0.5"
       id="path5" />
  </g>
  <path
     fill="#333333"
     d="M14.7 3.1a0.9 0.95 0 1 0 1.8 0 0.9 0.95 0 1 0 -1.8 0"
     stroke-width="0.5"
     id="path6" />
  <path
     fill="#93a2aa"
     d="M14.6 3.1a0.9 0.95 0 1 0 1.8 0 0.9 0.95 0 1 0 -1.8 0"
     stroke-width="0.5"
     id="path7" />
  <text
     xml:space="preserve"
     style="font-size:5.33333px;font-family:'Cambria Math';-inkscape-font-specification:'Cambria Math';text-align:center;writing-mode:lr-tb;direction:ltr;text-anchor:middle;opacity:1;fill:#ffffff;fill-opacity:1;fill-rule:evenodd;stroke-width:383;stroke-linecap:round;stroke-dashoffset:766"
     x="15.654188"
     y="14.23108"
     id="text8"><tspan
       sodipodi:role="line"
       id="tspan8"
       x="15.654188"
       y="14.23108"
       style="font-style:normal;font-variant:normal;font-weight:bold;font-stretch:normal;font-size:5.33333px;font-family:Arial;-inkscape-font-specification:'Arial Bold'">MOIS</tspan></text>
</svg>
