<?xml version="1.0" encoding="UTF-8" standalone="no"?>
<svg
   viewBox="0 0 32 32"
   id="Face-With-Crossed-Out-Eyes--Streamline-Emojitwo"
   height="32"
   width="32"
   version="1.1"
   sodipodi:docname="crossed-eyes.svg"
   inkscape:version="1.4 (86a8ad7, 2024-10-11)"
   xmlns:inkscape="http://www.inkscape.org/namespaces/inkscape"
   xmlns:sodipodi="http://sodipodi.sourceforge.net/DTD/sodipodi-0.dtd"
   xmlns="http://www.w3.org/2000/svg"
   xmlns:svg="http://www.w3.org/2000/svg">
  <defs
     id="defs6" />
  <sodipodi:namedview
     id="namedview6"
     pagecolor="#ffffff"
     bordercolor="#999999"
     borderopacity="1"
     inkscape:showpageshadow="2"
     inkscape:pageopacity="0"
     inkscape:pagecheckerboard="0"
     inkscape:deskcolor="#d1d1d1"
     inkscape:zoom="4.391796"
     inkscape:cx="30.625284"
     inkscape:cy="0.79694047"
     inkscape:window-width="1920"
     inkscape:window-height="991"
     inkscape:window-x="-9"
     inkscape:window-y="-9"
     inkscape:window-maximized="1"
     inkscape:current-layer="Face-With-Crossed-Out-Eyes--Streamline-Emojitwo" />
  <desc
     id="desc1">
    Face With Crossed Out Eyes Streamline Emoji: https://streamlinehq.com
  </desc>
  <title
     id="title1">dizzy face</title>
  <path
     fill="#ffdd67"
     d="M1 16a15 15 0 1 0 30 0 15 15 0 1 0 -30 0"
     stroke-width="0.5"
     id="path1" />
  <g
     fill="#664e27"
     id="g5">
    <path
       d="M14.3 9.9 8.25 16c-0.4 0.4 -1.8 -1 -1.4 -1.4L12.95 8.5c0.35 -0.35 1.75 1.05 1.35 1.4"
       stroke-width="0.5"
       id="path2"
       style="fill:#9a7fd1;fill-opacity:1" />
    <path
       d="M12.9 16 6.85 9.9c-0.4 -0.4 1 -1.8 1.4 -1.4l6.1 6.1c0.35 0.4 -1.05 1.8 -1.45 1.4m12.25 -6.1L19.1 16c-0.4 0.4 -1.8 -1 -1.4 -1.4L23.8 8.5c0.35 -0.35 1.75 1.05 1.35 1.4"
       stroke-width="0.5"
       id="path3"
       style="fill:#9a7fd1;fill-opacity:1" />
    <path
       d="M23.75 16 17.7 9.9c-0.4 -0.4 1 -1.8 1.4 -1.4l6.1 6.1c0.35 0.4 -1.05 1.8 -1.45 1.4"
       stroke-width="0.5"
       id="path4"
       style="fill:#9a7fd1;fill-opacity:1" />
    <path
       d="M11.5 23.5a4.5 4.5 0 1 0 9 0 4.5 4.5 0 1 0 -9 0"
       stroke-width="0.5"
       id="path5" />
  </g>
  <path
     fill="#ffffff"
     d="M13 22c0.6 -1.2 1.7 -2 3 -2s2.4 0.8 3 2H13"
     stroke-width="0.5"
     id="path6" />
</svg>
