<?xml version="1.0" encoding="UTF-8" standalone="no"?>
<svg
   viewBox="0 0 32 32"
   id="E-Mail--Streamline-Emojitwo"
   height="32"
   width="32"
   version="1.1"
   sodipodi:docname="e-mail.svg"
   inkscape:version="1.4 (86a8ad7, 2024-10-11)"
   xmlns:inkscape="http://www.inkscape.org/namespaces/inkscape"
   xmlns:sodipodi="http://sodipodi.sourceforge.net/DTD/sodipodi-0.dtd"
   xmlns="http://www.w3.org/2000/svg"
   xmlns:svg="http://www.w3.org/2000/svg">
  <defs
     id="defs4" />
  <sodipodi:namedview
     id="namedview4"
     pagecolor="#ffffff"
     bordercolor="#999999"
     borderopacity="1"
     inkscape:showpageshadow="2"
     inkscape:pageopacity="0"
     inkscape:pagecheckerboard="0"
     inkscape:deskcolor="#d1d1d1"
     inkscape:zoom="24.84375"
     inkscape:cx="16.020126"
     inkscape:cy="16"
     inkscape:window-width="1920"
     inkscape:window-height="991"
     inkscape:window-x="-9"
     inkscape:window-y="-9"
     inkscape:window-maximized="1"
     inkscape:current-layer="E-Mail--Streamline-Emojitwo" />
  <desc
     id="desc1">
    E Mail Streamline Emoji: https://streamlinehq.com
  </desc>
  <title
     id="title1">e-mail</title>
  <g
     fill="#b0bdc6"
     id="g1">
    <path
       d="m0.3 24.35 9.25 -9.65L2.45 4.45c-0.35 0.45 -0.6 1.05 -0.65 1.75L0 22.55c-0.05 0.7 0.05 1.3 0.3 1.8M31.35 2.75 17.95 15.2 28.5 29.45c0.6 -0.5 1 -1.25 1.1 -2.15L32 5c0.1 -0.9 -0.2 -1.75 -0.65 -2.25"
       stroke-width="0.5"
       id="path1" />
  </g>
  <path
     fill="#cad5dd"
     d="m12.85 19.7 -3.3 -5L0.3 24.35c0.2 0.45 0.55 0.75 0.95 0.85L26.65 30c0.7 0.15 1.35 -0.1 1.85 -0.55L17.95 15.2l-5.1 4.5"
     stroke-width="0.5"
     id="path2" />
  <path
     fill="#dfe9ef"
     d="M29.65 2 3.55 3.75c-0.4 0.05 -0.8 0.3 -1.1 0.7l7.15 10.25 3.3 5 5.1 -4.5L31.35 2.75c-0.45 -0.5 -1.05 -0.8 -1.7 -0.75"
     stroke-width="0.5"
     id="path3" />
  <path
     fill="#428bc1"
     d="m17.6 11.8 0.3 -2.55 -8.75 -0.05 -1.45 11.95 8.5 2 0.35 -2.55 -6.4 -1.25 0.35 -2.75L16.9 17.5l0.3 -2.55 -6.45 -0.65 0.35 -2.8z"
     stroke-width="0.5"
     id="path4"
     style="fill:#9a7fd1;fill-opacity:1" />
</svg>
