<?xml version="1.0" encoding="UTF-8" standalone="no"?>
<svg
   viewBox="0 0 32 32"
   id="Black-Pushpin--Streamline-Emojitwo"
   height="32"
   width="32"
   version="1.1"
   sodipodi:docname="location.svg"
   inkscape:version="1.4 (86a8ad7, 2024-10-11)"
   xmlns:inkscape="http://www.inkscape.org/namespaces/inkscape"
   xmlns:sodipodi="http://sodipodi.sourceforge.net/DTD/sodipodi-0.dtd"
   xmlns="http://www.w3.org/2000/svg"
   xmlns:svg="http://www.w3.org/2000/svg">
  <defs
     id="defs3" />
  <sodipodi:namedview
     id="namedview3"
     pagecolor="#ffffff"
     bordercolor="#999999"
     borderopacity="1"
     inkscape:showpageshadow="2"
     inkscape:pageopacity="0"
     inkscape:pagecheckerboard="0"
     inkscape:deskcolor="#d1d1d1"
     inkscape:zoom="6.2109375"
     inkscape:cx="19.642767"
     inkscape:cy="17.14717"
     inkscape:window-width="1920"
     inkscape:window-height="991"
     inkscape:window-x="-9"
     inkscape:window-y="-9"
     inkscape:window-maximized="1"
     inkscape:current-layer="Black-Pushpin--Streamline-Emojitwo" />
  <desc
     id="desc1">
    Black Pushpin Streamline Emoji: https://streamlinehq.com
  </desc>
  <title
     id="title1">Black Pushpin</title>
  <path
     fill="#d0d0d0"
     d="M12.25 17.75C8.9 21.45 1.45 30.45 0.3 31.55c0 0 -0.05 0 -0.05 0.05 -0.45 0.45 -0.3 0.6 0.15 0.15 1 -1 10.1 -8.6 13.8 -11.95l-1.95 -2.05"
     stroke-width="0.5"
     id="path1" />
  <path
     fill="#428bc1"
     d="M12.23 14.149 23.4365 2.9415 29.165 8.669 17.957 19.8765z"
     stroke-width="0.5"
     id="path2"
     style="fill:#8d6ccb;fill-opacity:1" />
  <path
     fill="#42ade2"
     d="M21.8 27.3c0.45 -3.9 -1.25 -8.55 -4.9 -12.15S8.6 9.8 4.7 10.2l17.1 17.1M32 11.45c-2.6 0.3 -5.7 -0.85 -8.15 -3.3 -2.45 -2.45 -3.6 -5.55 -3.3 -8.15L32 11.45"
     stroke-width="0.5"
     id="path3"
     style="fill:#9a7fd1;fill-opacity:1" />
</svg>
