<?xml version="1.0" encoding="UTF-8" standalone="no"?>
<svg
   viewBox="0 0 32 32"
   id="Repeat-Button--Streamline-Emojitwo"
   height="32"
   width="32"
   version="1.1"
   sodipodi:docname="repeat.svg"
   inkscape:version="1.4 (86a8ad7, 2024-10-11)"
   xmlns:inkscape="http://www.inkscape.org/namespaces/inkscape"
   xmlns:sodipodi="http://sodipodi.sourceforge.net/DTD/sodipodi-0.dtd"
   xmlns="http://www.w3.org/2000/svg"
   xmlns:svg="http://www.w3.org/2000/svg">
  <defs
     id="defs2" />
  <sodipodi:namedview
     id="namedview2"
     pagecolor="#ffffff"
     bordercolor="#999999"
     borderopacity="1"
     inkscape:showpageshadow="2"
     inkscape:pageopacity="0"
     inkscape:pagecheckerboard="0"
     inkscape:deskcolor="#d1d1d1"
     inkscape:zoom="24.84375"
     inkscape:cx="16.020126"
     inkscape:cy="16"
     inkscape:window-width="1920"
     inkscape:window-height="991"
     inkscape:window-x="-9"
     inkscape:window-y="-9"
     inkscape:window-maximized="1"
     inkscape:current-layer="Repeat-Button--Streamline-Emojitwo" />
  <desc
     id="desc1">
    Repeat Button Streamline Emoji: https://streamlinehq.com
  </desc>
  <title
     id="title1">repeat button</title>
  <path
     fill="#4fd1d9"
     d="M1 16a15 15 0 1 0 30 0 15 15 0 1 0 -30 0"
     stroke-width="0.5"
     id="path1"
     style="fill:#9a7fd1;fill-opacity:1" />
  <g
     fill="#ffffff"
     id="g2">
    <path
       d="m24.7 14.5 -2.65 1.55v0.2c0 1.35 -1.1 2.45 -2.4 2.45H13.8v-1.9L8 20.1 13.8 23.5v-1.9h5.85c1.4 0 2.75 -0.55 3.75 -1.55s1.55 -2.35 1.55 -3.8c0.05 -0.65 -0.05 -1.2 -0.25 -1.75m-14.8 1.25c0 -1.35 1.1 -2.45 2.4 -2.45h5.9v1.9L24 11.9 18.2 8.5v1.9H12.3c-1.4 0 -2.75 0.55 -3.75 1.55S7 14.3 7 15.75c0 0.6 0.1 1.2 0.3 1.75l2.65 -1.55c-0.05 -0.05 -0.05 -0.1 -0.05 -0.2"
       stroke-width="0.5"
       id="path2" />
  </g>
</svg>
