<?xml version="1.0" encoding="UTF-8" standalone="no"?>
<svg
   viewBox="0 0 32 32"
   id="Globe-With-Meridians--Streamline-Emojitwo"
   height="32"
   width="32"
   version="1.1"
   sodipodi:docname="web.svg"
   inkscape:version="1.4 (86a8ad7, 2024-10-11)"
   xmlns:inkscape="http://www.inkscape.org/namespaces/inkscape"
   xmlns:sodipodi="http://sodipodi.sourceforge.net/DTD/sodipodi-0.dtd"
   xmlns="http://www.w3.org/2000/svg"
   xmlns:svg="http://www.w3.org/2000/svg">
  <defs
     id="defs1" />
  <sodipodi:namedview
     id="namedview1"
     pagecolor="#ffffff"
     bordercolor="#999999"
     borderopacity="1"
     inkscape:showpageshadow="2"
     inkscape:pageopacity="0"
     inkscape:pagecheckerboard="0"
     inkscape:deskcolor="#d1d1d1"
     inkscape:zoom="24.84375"
     inkscape:cx="16.020126"
     inkscape:cy="16"
     inkscape:window-width="1920"
     inkscape:window-height="991"
     inkscape:window-x="-9"
     inkscape:window-y="-9"
     inkscape:window-maximized="1"
     inkscape:current-layer="Globe-With-Meridians--Streamline-Emojitwo" />
  <desc
     id="desc1">
    Globe With Meridians Streamline Emoji: https://streamlinehq.com
  </desc>
  <title
     id="title1">globe with meridians</title>
  <path
     fill="#4fd1d9"
     d="M16 1C7.75 1 1 7.75 1 16s6.75 15 15 15 15 -6.75 15 -15S24.25 1 16 1m10 23.1c-0.6 -0.55 -1.25 -1.05 -1.9 -1.45 0.85 -1.7 1.35 -3.55 1.5 -5.45h3.2c-0.2 2.6 -1.2 5 -2.8 6.9M3.15 17.2h3.15c0.15 1.9 0.7 3.75 1.5 5.45 -0.65 0.45 -1.25 0.9 -1.85 1.45 -1.55 -1.9 -2.55 -4.3 -2.8 -6.9M6 7.9c0.6 0.55 1.2 1 1.85 1.45 -0.9 1.8 -1.4 3.75 -1.55 5.75H3.15c0.15 -2.7 1.2 -5.2 2.85 -7.2m8.95 -3.1v4.8c-1.45 -0.1 -2.85 -0.5 -4.2 -1.05 1.1 -1.55 2.55 -2.85 4.2 -3.75m0 6.9v3.4H8.4c0.1 -1.7 0.55 -3.3 1.3 -4.75 1.6 0.8 3.4 1.25 5.25 1.35m0 5.5v3.1c-1.85 0.15 -3.65 0.6 -5.3 1.35 -0.65 -1.35 -1.1 -2.85 -1.25 -4.45h6.55m0 5.2v4.85c-1.7 -0.95 -3.1 -2.2 -4.2 -3.75 1.3 -0.6 2.75 -1 4.2 -1.1m2.1 4.8v-4.8c1.45 0.1 2.85 0.45 4.15 1.05 -1.1 1.5 -2.5 2.8 -4.15 3.75m0 -6.9v-3.1H23.5c-0.15 1.55 -0.6 3.05 -1.25 4.4 -1.6 -0.75 -3.35 -1.2 -5.2 -1.3m0 -5.2v-3.4c1.85 -0.1 3.6 -0.6 5.25 -1.35 0.7 1.45 1.15 3.05 1.25 4.7h-6.5zm0 -5.5V4.8c1.65 0.95 3.05 2.2 4.15 3.75 -1.3 0.6 -2.7 0.95 -4.15 1.05M22.25 6.5c-1 -1.2 -2.15 -2.25 -3.45 -3.05 2.2 0.5 4.15 1.5 5.75 2.95 -0.5 0.45 -1 0.8 -1.5 1.15 -0.25 -0.35 -0.5 -0.75 -0.8 -1.05m-12.55 0c-0.25 0.35 -0.55 0.7 -0.8 1.05 -0.5 -0.35 -1 -0.7 -1.45 -1.15C9.05 5 11 3.95 13.15 3.45c-1.35 0.8 -2.5 1.85 -3.45 3.05m-0.8 18c0.2 0.3 0.4 0.6 0.65 0.85 1 1.25 2.2 2.35 3.55 3.2 -2.15 -0.5 -4.1 -1.5 -5.7 -2.95 0.5 -0.4 1 -0.75 1.5 -1.1m13.4 1c0.25 -0.35 0.55 -0.7 0.8 -1.05 0.55 0.35 1.05 0.75 1.5 1.15 -1.6 1.45 -3.6 2.45 -5.75 2.95 1.25 -0.8 2.45 -1.85 3.45 -3.05m3.35 -10.4c-0.1 -2 -0.65 -3.95 -1.55 -5.75 0.65 -0.45 1.3 -0.9 1.9 -1.45 1.6 2 2.65 4.5 2.85 7.2h-3.2"
     stroke-width="0.5"
     id="path1"
     style="fill:#9a7fd1;fill-opacity:1" />
</svg>
