<?xml version="1.0" encoding="UTF-8" standalone="no"?>
<!-- Created with Inkscape (http://www.inkscape.org/) -->

<svg
   width="96.308334mm"
   height="97.366669mm"
   viewBox="0 0 96.308337 97.366665"
   version="1.1"
   id="svg1"
   xml:space="preserve"
   sodipodi:docname="logo-plain.svg"
   inkscape:version="1.4 (86a8ad7, 2024-10-11)"
   xmlns:inkscape="http://www.inkscape.org/namespaces/inkscape"
   xmlns:sodipodi="http://sodipodi.sourceforge.net/DTD/sodipodi-0.dtd"
   xmlns="http://www.w3.org/2000/svg"
   xmlns:svg="http://www.w3.org/2000/svg"><sodipodi:namedview
     id="namedview1"
     pagecolor="#ffffff"
     bordercolor="#999999"
     borderopacity="1"
     inkscape:showpageshadow="2"
     inkscape:pageopacity="0"
     inkscape:pagecheckerboard="0"
     inkscape:deskcolor="#d1d1d1"
     inkscape:document-units="mm"
     inkscape:zoom="1.5275812"
     inkscape:cx="345.97179"
     inkscape:cy="211.11807"
     inkscape:window-width="1920"
     inkscape:window-height="991"
     inkscape:window-x="-9"
     inkscape:window-y="-9"
     inkscape:window-maximized="1"
     inkscape:current-layer="svg1" /><defs
     id="defs1" /><path
     style="display:inline;fill:#4c4143;fill-opacity:1;stroke-width:1.50619"
     d="m 19.47168,60.117778 v 2.715079 c 1e-6,1.002003 -0.812358,1.81436 -1.81436,1.81436 H 8.5860392 c -1.002003,0 -1.8143609,-0.812357 -1.8143595,-1.81436 V 60.117778 H 0 c 1.2634866,20.7822 18.544972,37.248889 39.688017,37.248889 21.141537,0 38.423497,-16.466689 39.686983,-37.248889 H 53.132674 c -1.153421,6.37068 -6.727673,11.208101 -13.444657,11.208101 -6.716984,0 -12.29072,-4.837421 -13.444141,-11.208101 z"
     id="bas"
     inkscape:label="bas"
     sodipodi:nodetypes="cssssccsccscc" /><path
     id="objets"
     style="fill:#ffffff;fill-opacity:1;display:inline;stroke-width:1.50619"
     d="M 67.423792 63.752698 C 67.404893 63.752207 67.385872 63.752873 67.366947 63.754248 C 67.134491 63.771034 66.934935 63.925953 66.861035 64.146989 L 64.551615 71.074215 C 64.308392 71.804575 65.403933 72.16941 65.647156 71.43905 L 67.956059 64.511825 C 68.056511 64.209453 67.892989 63.882872 67.590706 63.782153 C 67.536686 63.764221 67.480488 63.75417 67.423792 63.752698 z M 69.704272 64.521643 C 69.571435 64.524608 69.44323 64.573371 69.341504 64.660653 L 69.341504 64.661169 C 69.099837 64.868973 69.072303 65.233316 69.280009 65.475073 L 71.266451 67.793278 L 69.278459 70.111483 C 68.779027 70.696344 69.654893 71.44635 70.155924 70.862858 L 72.464827 68.168966 C 72.65013 67.952782 72.65013 67.633774 72.464827 67.41759 L 70.155924 64.723698 C 70.056329 64.607163 69.914472 64.535023 69.761633 64.523193 C 69.742542 64.521726 69.723249 64.521219 69.704272 64.521643 z M 62.802885 64.522677 C 62.783938 64.522259 62.765102 64.522759 62.746041 64.524227 C 62.593357 64.535793 62.45152 64.607547 62.35175 64.723698 L 60.042847 67.41759 C 59.857544 67.633774 59.857544 67.952782 60.042847 68.168966 L 62.35175 70.862858 C 62.85486 71.415048 63.696864 70.692762 63.227665 70.111483 L 61.241223 67.793278 L 63.227665 65.475073 C 63.435245 65.233179 63.407483 64.868822 63.165653 64.661169 C 63.063971 64.574166 62.935516 64.525598 62.802885 64.522677 z M 7.6791178 65.554655 L 7.6791178 66.007857 C 7.6791178 66.759359 8.2882573 67.369014 9.0397583 67.369014 L 12.668477 67.369014 L 12.668477 69.636576 C 12.669578 70.240261 13.574299 70.240261 13.575399 69.636576 L 13.575399 67.369014 L 17.204118 67.369014 C 17.955619 67.369014 18.564758 66.759359 18.564758 66.007857 L 18.564758 65.554655 L 7.6791178 65.554655 z M 9.0397583 70.997217 C 8.789257 70.997215 8.5860392 71.200434 8.5860392 71.450936 C 8.5860413 71.701436 8.7892584 71.904656 9.0397583 71.904655 L 10.400399 71.904655 C 11.004087 71.903583 11.004087 70.998317 10.400399 70.997217 L 9.0397583 70.997217 z M 15.843477 70.997217 C 15.23979 70.998316 15.23979 71.903555 15.843477 71.904655 L 17.204118 71.904655 C 17.807805 71.903555 17.807805 70.998317 17.204118 70.997217 L 15.843477 70.997217 z M 13.12168 70.99825 C 12.895166 70.99825 12.669028 71.149093 12.668477 71.450936 C 12.667399 72.056773 13.576499 72.056773 13.575399 71.450936 C 13.574863 71.149093 13.348193 70.99825 13.12168 70.99825 z M 14.505575 71.89587 C 14.491192 71.895202 14.4769 71.895549 14.462683 71.896387 C 14.12148 71.916457 13.840281 72.358154 14.16141 72.679285 L 15.52205 74.039925 C 15.949459 74.468095 16.591795 73.825757 16.164388 73.397587 L 14.803748 72.036947 C 14.710085 71.943287 14.606254 71.900543 14.505575 71.89587 z M 11.761039 71.903621 C 11.644781 71.903621 11.528739 71.948107 11.440129 72.036947 L 10.079488 73.397587 C 9.651318 73.824997 10.293139 74.467335 10.721309 74.039925 L 12.082467 72.679285 C 12.26014 72.50206 12.26014 72.214169 12.082467 72.036947 C 11.993855 71.948111 11.877298 71.903621 11.761039 71.903621 z M 13.12168 72.81261 C 12.895166 72.81261 12.669014 72.963452 12.668477 73.265295 L 12.668477 75.079655 C 12.669578 75.683342 13.574299 75.683342 13.575399 75.079655 L 13.575399 73.265295 C 13.574849 72.963452 13.348193 72.81261 13.12168 72.81261 z M 57.50295 73.879211 C 57.48949 73.879611 57.475699 73.881496 57.461609 73.884896 C 57.436569 73.890316 57.412529 73.900835 57.389779 73.916935 C 57.314129 73.970787 57.285489 74.041755 57.305029 74.129325 L 58.221252 78.235535 C 58.240548 78.323251 58.295854 78.376381 58.387134 78.392631 C 58.414424 78.397731 58.440612 78.397597 58.465682 78.391597 C 58.519933 78.379407 58.562383 78.349464 58.593323 78.301164 L 59.225326 77.447469 L 60.384428 78.873222 C 60.418426 78.918202 60.462566 78.948404 60.517236 78.955904 C 60.571915 78.965534 60.623145 78.953998 60.670715 78.921798 L 61.293416 78.445341 C 61.338366 78.411643 61.365882 78.367153 61.375582 78.312533 C 61.385392 78.257704 61.373815 78.206754 61.341475 78.159054 L 60.13328 76.721415 L 61.09963 76.424276 C 61.187236 76.404821 61.239706 76.349574 61.256726 76.258394 C 61.274302 76.169304 61.243709 76.100505 61.165259 76.052205 L 57.615605 73.913318 C 57.58088 73.889618 57.54332 73.877911 57.50295 73.879211 z M 26.036137 76.724516 C 25.824573 76.724516 25.718327 76.830107 25.718327 77.041809 L 25.718327 78.946602 C 25.718327 79.158235 25.824573 79.264412 26.036137 79.264412 L 27.94093 79.264412 C 28.152633 79.264412 28.258223 79.158235 28.258223 78.946602 L 28.258223 77.041809 C 28.258223 76.830107 28.152841 76.724863 27.94093 76.724516 L 26.036137 76.724516 z M 31.11593 76.724516 C 30.904228 76.724516 30.798637 76.830107 30.798637 77.041809 L 30.798637 78.946602 C 30.798637 79.158235 30.904297 79.264412 31.11593 79.264412 L 33.020723 79.264412 C 33.232426 79.264412 33.338534 79.158235 33.338534 78.946602 L 33.338534 77.041809 C 33.338534 76.830107 33.232426 76.724863 33.020723 76.724516 L 31.11593 76.724516 z M 36.195723 76.724516 C 35.984021 76.724516 35.877913 76.830107 35.877913 77.041809 L 35.877913 78.946602 C 35.877913 79.158235 35.984021 79.264412 36.195723 79.264412 L 38.100517 79.264412 C 38.312219 79.264412 38.418327 79.158235 38.418327 78.946602 L 38.418327 77.041809 C 38.418327 76.830107 38.312428 76.724863 38.100517 76.724516 L 36.195723 76.724516 z M 41.275517 76.724516 C 41.063814 76.724516 40.958223 76.830107 40.958223 77.041809 L 40.958223 78.946602 C 40.958154 79.158235 41.063814 79.264412 41.275517 79.264412 L 43.180827 79.264412 C 43.392529 79.264412 43.49812 79.158235 43.49812 78.946602 L 43.49812 77.041809 C 43.49812 76.830107 43.39246 76.724863 43.180827 76.724516 L 41.275517 76.724516 z M 46.355827 76.724516 C 46.144124 76.724516 46.038017 76.830107 46.038017 77.041809 L 46.038017 78.946602 C 46.037947 79.158235 46.144124 79.264412 46.355827 79.264412 L 48.260103 79.264412 C 48.471806 79.264412 48.577913 79.158235 48.577913 78.946602 L 48.577913 77.041809 C 48.577913 76.830107 48.471806 76.724863 48.260103 76.724516 L 46.355827 76.724516 z M 51.43562 76.724516 C 51.223918 76.724516 51.11781 76.830107 51.11781 77.041809 L 51.11781 81.804309 L 48.895207 81.804309 C 48.683504 81.804309 48.577913 81.909969 48.577913 82.121602 L 48.577913 84.026912 C 48.577913 84.238337 48.683504 84.344722 48.895207 84.344722 L 53.339897 84.344722 C 53.551599 84.344722 53.657707 84.238337 53.657707 84.026912 L 53.657707 77.041809 C 53.657707 76.830107 53.551877 76.724863 53.339897 76.724516 L 51.43562 76.724516 z M 26.036137 81.804309 C 25.824573 81.804309 25.718327 81.909969 25.718327 82.121602 L 25.718327 84.026912 C 25.718327 84.238337 25.824573 84.344722 26.036137 84.344722 L 30.480827 84.344722 C 30.69246 84.344722 30.798637 84.238337 30.798637 84.026912 L 30.798637 82.121602 C 30.798637 81.909969 30.69246 81.804518 30.480827 81.804309 L 26.036137 81.804309 z M 33.655827 81.804309 C 33.444402 81.804309 33.338534 81.909969 33.338534 82.121602 L 33.338534 84.026912 C 33.338534 84.238337 33.444402 84.344722 33.655827 84.344722 L 35.561137 84.344722 C 35.7727 84.344722 35.877913 84.238337 35.877913 84.026912 L 35.877913 82.121602 C 35.877913 81.909969 35.772909 81.804518 35.561137 81.804309 L 33.655827 81.804309 z M 38.73562 81.804309 C 38.524057 81.804309 38.418327 81.909969 38.418327 82.121602 L 38.418327 84.026912 C 38.418327 84.238337 38.524057 84.344722 38.73562 84.344722 L 40.640413 84.344722 C 40.852116 84.344722 40.958223 84.238337 40.958223 84.026912 L 40.958223 82.121602 C 40.958223 81.909969 40.852116 81.804518 40.640413 81.804309 L 38.73562 81.804309 z M 43.815413 81.804309 C 43.604197 81.804309 43.49812 81.909969 43.49812 82.121602 L 43.49812 84.026912 C 43.49812 84.238337 43.604197 84.344722 43.815413 84.344722 L 45.720723 84.344722 C 45.932357 84.344722 46.0375 84.238337 46.0375 84.026912 L 46.0375 82.121602 C 46.0375 81.909969 45.932287 81.804518 45.720723 81.804309 L 43.815413 81.804309 z M 26.036137 86.884102 C 25.824573 86.884102 25.718327 86.99018 25.718327 87.201396 L 25.718327 89.106189 C 25.718327 89.317614 25.824573 89.423999 26.036137 89.423999 L 27.94093 89.423999 C 28.152633 89.423999 28.258223 89.317614 28.258223 89.106189 L 28.258223 87.201396 C 28.258223 86.99018 28.152841 86.884102 27.94093 86.884102 L 26.036137 86.884102 z M 31.11593 86.884102 C 30.904228 86.884102 30.798637 86.99021 30.798637 87.201912 L 30.798637 89.106706 C 30.798637 89.317922 30.904228 89.424516 31.11593 89.424516 L 48.260103 89.424516 C 48.471806 89.424516 48.577913 89.318408 48.577913 89.106706 L 48.577913 87.201912 C 48.577983 86.990279 48.471767 86.884102 48.26062 86.884102 L 31.11593 86.884102 z M 51.43562 86.884102 C 51.223918 86.884102 51.11781 86.99021 51.11781 87.201912 L 51.11781 89.106706 C 51.11781 89.317922 51.223918 89.424516 51.43562 89.424516 L 53.340413 89.424516 C 53.552116 89.424516 53.658223 89.318408 53.658223 89.106706 L 53.658223 87.201912 C 53.658223 86.990279 53.552324 86.884102 53.340413 86.884102 L 51.43562 86.884102 z "
     inkscape:label="objets" /><path
     style="display:inline;fill:#9f8d83;fill-opacity:1;stroke-width:1.506;stroke-dasharray:none"
     d="m 39.6875,17.991667 c -21.141538,0 -38.4234967,16.466644 -39.68698323568,37.247339 H 26.244393 c 1.15493,-6.37068 6.727673,-11.206552 13.444657,-11.206552 6.715476,0 12.289685,4.835872 13.443107,11.206552 H 79.373966 C 78.11048,34.458311 60.829037,17.991667 39.6875,17.991667 Z"
     id="path66-5"
     inkscape:label="haut" /><path
     id="ms20"
     style="display:inline;fill:#ffffff;fill-opacity:1;stroke-width:1.506;stroke-dasharray:none"
     d="M 36.406563 28.765686 C 34.670898 28.765686 33.146814 29.682855 33.146814 31.531409 C 33.146814 33.281186 34.191195 33.87384 35.249528 34.339506 C 36.321971 34.805172 37.408569 35.101452 37.408569 36.046895 C 37.408569 36.921783 36.660742 37.274727 35.884631 37.274727 C 34.642854 37.274727 33.908993 36.597249 33.683215 36.597249 C 33.443327 36.597249 32.94941 37.316599 32.94941 37.683488 C 32.94941 38.120932 34.162967 38.84104 36.12441 38.84104 C 37.78952 38.84104 39.285457 37.96584 39.285457 35.877397 C 39.285457 33.958287 37.874049 33.394047 36.688717 32.91427 C 35.799718 32.561492 35.023702 32.293126 35.023702 31.418237 C 35.023702 30.839682 35.43318 30.331999 36.519735 30.331999 C 37.535734 30.331999 38.001146 30.755229 38.198702 30.755229 C 38.466812 30.755229 38.847758 30.02145 38.847758 29.696895 C 38.847758 29.217118 37.64834 28.765686 36.406563 28.765686 z M 46.651416 28.765686 C 45.494305 28.765686 43.942021 29.217208 43.942021 29.965096 C 43.942021 30.27554 44.280474 30.839978 44.605029 30.839978 C 44.859029 30.839978 45.39548 30.190922 46.42559 30.190922 C 47.300478 30.190922 47.907153 30.642326 47.907153 31.446659 C 47.907153 31.996991 47.737833 32.392125 47.215723 33.055347 L 43.617493 37.500037 C 43.589273 37.542367 43.575118 37.627083 43.575118 37.725863 C 43.575118 38.078641 43.730513 38.741821 43.928068 38.741821 L 49.459513 38.741821 C 49.727623 38.741821 49.840369 38.558473 49.840369 38.13514 L 49.840369 37.923783 C 49.840369 37.514561 49.727623 37.331055 49.459513 37.331055 L 45.917611 37.331055 L 47.97795 34.791158 C 49.332616 33.126048 49.699292 32.462776 49.699292 31.390332 C 49.699292 29.838111 48.584636 28.765686 46.651416 28.765686 z M 54.313481 28.765686 C 52.38026 28.765686 51.025826 30.501108 51.025826 33.803105 C 51.025826 37.105103 52.38026 38.84104 54.313481 38.84104 C 56.274924 38.84104 57.615605 37.105103 57.615605 33.803105 C 57.615605 30.501108 56.274924 28.765686 54.313481 28.765686 z M 22.507153 28.835966 C 21.985043 28.835966 21.759395 28.977291 21.759395 29.231291 L 21.759395 38.374919 C 21.759395 38.628919 21.985043 38.770243 22.507153 38.770243 L 22.803776 38.770243 C 23.325887 38.770243 23.537581 38.628919 23.537581 38.374919 L 23.537581 31.855937 L 23.593909 31.869889 L 25.921932 36.004521 C 26.03482 36.159739 26.176228 36.244299 26.402006 36.244299 L 26.867611 36.244299 C 27.093389 36.244299 27.234435 36.15974 27.333215 36.004521 L 29.661755 31.898311 L 29.70413 31.898311 L 29.70413 38.374919 C 29.70413 38.628919 29.929777 38.770243 30.451888 38.770243 L 30.747994 38.770243 C 31.270105 38.770243 31.495752 38.628919 31.495752 38.374919 L 31.495752 29.231291 C 31.495752 28.977291 31.270105 28.835966 30.747994 28.835966 L 30.112891 28.835966 C 29.731892 28.835966 29.464227 28.935077 29.337227 29.174963 L 26.839189 33.549373 L 26.627832 33.986556 L 26.429911 33.534904 L 23.946342 29.174963 C 23.819342 28.935076 23.551679 28.835966 23.170679 28.835966 L 22.507153 28.835966 z M 54.32795 30.176453 C 55.202838 30.176453 55.851888 31.305441 55.851888 33.803105 C 55.851888 36.30077 55.202838 37.429757 54.32795 37.429757 C 53.453062 37.429757 52.817965 36.30077 52.817965 33.803105 C 52.817965 31.305441 53.453062 30.176453 54.32795 30.176453 z "
     inkscape:label="ms20" /><path
     d="m 19.471681,60.117778 v 2.715079 c 1e-6,1.002003 -0.812358,1.81436 -1.81436,1.81436 H 8.5860397 c -1.002003,0 -1.814361,-0.812357 -1.81436,-1.81436 v -2.715079"
     style="display:inline;fill:#ffffff;fill-opacity:1;stroke-width:1.50619"
     id="bas-2"
     sodipodi:nodetypes="cssssc"
     inkscape:label="bas-2" /><path
     style="display:inline;fill:#9f8d83;fill-opacity:1;fill-rule:evenodd;stroke-width:0;stroke-linecap:round;stroke-dashoffset:766"
     d="M 81.9001,2.375 C 80.07708,2.3761 78.42478,3.448039 77.68072,5.1123 L 69.60111,6.034725 C 68.75761,4.907672 67.41609,4.174877 65.90004,4.17489 63.34569,4.174867 61.27498,6.245582 61.275,8.799931 c -10e-6,1.715459 0.93467,3.211629 2.32182,4.010091 l 1.3684,10.384896 c -0.30599,0.21271 -0.58849,0.464762 -0.83871,0.755509 l -1.40509,1.666049 6.67091,6.03552 1.62988,-1.947915 c 0.65941,-0.833717 0.97462,-1.786252 0.97823,-2.803963 0,-2.139157 -1.49332,-3.92801 -3.49384,-4.385262 l -1.22576,-9.299691 c 1.64492,-0.513998 2.89501,-1.922038 3.18171,-3.655074 l 7.16391,-0.818038 c 0.70722,1.739441 2.39593,2.878654 4.27364,2.883028 0.34156,-0.0012 0.68195,-0.04016 1.01492,-0.116272 l 1.88619,3.816822 c -0.57162,0.313612 -1.06132,0.784244 -1.4118,1.378727 l -1.99471,3.358451 1.91513,1.123962 -1.12913,1.937867 c -0.078,0.151737 -0.0966,0.221563 -0.10542,0.401526 l -2.82877,0.101802 c -0.83127,0.03709 -1.26605,0.647428 -1.41903,0.901754 l -1.47485,2.743502 c -0.10404,0.194096 -0.13589,0.401267 -0.10387,0.611332 0.08,0.512727 0.5444,0.860608 1.03767,0.777213 0.25598,-0.04346 0.48171,-0.199156 0.6196,-0.433048 l 1.48983,-2.794145 3.46542,-0.128674 1.87689,2.904732 -1.43402,2.823084 c -0.11251,0.247107 -0.11019,0.520894 10e-4,0.755509 0.21461,0.451904 0.76558,0.633208 1.23145,0.404627 0.19044,-0.09425 0.34199,-0.23959 0.44131,-0.43615 l 1.40147,-2.781742 c 0.12058,-0.27119 0.37093,-0.977246 -0.0755,-1.679484 l -1.6428,-2.535762 c 0.10264,-0.103756 0.1685,-0.182399 0.24392,-0.325045 l 0.99219,-1.72961 1.92753,1.131197 1.91358,-3.22771 c 0.42517,-0.793164 0.55565,-1.639109 0.42478,-2.497522 -0.12453,-0.798379 -0.47766,-1.498559 -0.97824,-2.041219 L 85.87087,9.36372 C 86.29768,8.649057 86.5237,7.832451 86.52509,7.00004 86.52511,4.445692 84.4544,2.374977 81.90005,2.375 Z"
     id="bras"
     inkscape:label="bras" /><path
     id="engrenage"
     style="display:inline;fill:#ffffff;fill-opacity:1;fill-rule:evenodd;stroke-width:0;stroke-linecap:round;stroke-dashoffset:766"
     inkscape:label="engrenage"
     d="m 82.07063,3.684481 c -0.10027,0.0047 -0.18377,0.07815 -0.20102,0.176733 l -0.0786,0.446484 c -0.0843,0.0021 -0.16845,0.0081 -0.25218,0.01809 l -0.154,-0.422713 c -0.0405,-0.11072 -0.16329,-0.167612 -0.2744,-0.127124 l -0.67748,0.246496 c -0.11142,0.04047 -0.16904,0.163332 -0.12867,0.274402 l 0.154,0.422714 c -0.0703,0.0464 -0.13845,0.09606 -0.20413,0.148828 L 79.90534,4.575902 c -0.0904,-0.07575 -0.22522,-0.06372 -0.30128,0.02687 l -0.46353,0.552421 c -0.0761,0.09075 -0.0646,0.22582 0.0258,0.30179 l 0.34881,0.291972 c -0.0394,0.07425 -0.0752,0.150297 -0.10748,0.227893 l -0.44701,-0.07906 c -0.11623,-0.02044 -0.22708,0.05754 -0.24753,0.17415 l -0.12557,0.710034 c -0.0206,0.116816 0.0572,0.228146 0.17363,0.248564 l 0.44649,0.07855 c 0.002,0.08431 0.008,0.168457 0.0186,0.252181 l -0.42323,0.153995 c -0.11073,0.04049 -0.16762,0.16329 -0.12713,0.274402 l 0.2465,0.677478 c 0.0405,0.111427 0.16333,0.169041 0.2744,0.128675 l 0.4222,-0.153996 c 0.0465,0.07051 0.0964,0.1388 0.14935,0.204639 l -0.29249,0.348299 c -0.0757,0.09037 -0.0637,0.225217 0.0269,0.301273 l 0.55242,0.463538 c 0.0907,0.07612 0.22582,0.06456 0.30179,-0.02584 l 0.29249,-0.348299 c 0.0741,0.03934 0.14995,0.07521 0.22737,0.107487 l -0.0791,0.447001 c -0.0204,0.116236 0.0575,0.22708 0.17415,0.24753 l 0.71004,0.125057 c 0.11681,0.02061 0.22814,-0.05716 0.24856,-0.173633 l 0.0785,-0.446484 c 0.0845,-0.0021 0.1688,-0.0081 0.2527,-0.01809 l 0.15348,0.422713 c 0.0403,0.111201 0.16351,0.168421 0.27492,0.127641 l 0.67747,-0.247014 c 0.11122,-0.04068 0.16858,-0.163478 0.12816,-0.274401 L 83.34224,9.281041 c 0.0701,-0.04641 0.13809,-0.09607 0.2036,-0.148828 l 0.34882,0.291972 c 0.0905,0.0761 0.22569,0.06406 0.30179,-0.02687 l 0.46302,-0.551904 c 0.0765,-0.09083 0.0649,-0.226296 -0.0258,-0.302307 L 84.28589,8.251127 c 0.0392,-0.07409 0.0749,-0.149965 0.10697,-0.227376 l 0.447,0.07855 c 0.11624,0.02044 0.22708,-0.05754 0.24753,-0.17415 L 85.21245,7.218117 C 85.23305,7.101471 85.15555,6.99022 85.03933,6.969553 L 84.5975,6.892043 C 84.5945,6.807163 84.5867,6.722491 84.5753,6.638312 l 0.42168,-0.15348 C 85.1079,6.444562 85.16506,6.32169 85.12462,6.210431 L 84.8776,5.532953 C 84.8371,5.421526 84.71427,5.363911 84.6032,5.404278 l -0.42116,0.153479 c -0.0455,-0.07168 -0.0943,-0.141174 -0.14625,-0.208256 l 0.28888,-0.344165 c 0.0758,-0.09037 0.0637,-0.225217 -0.0269,-0.301273 L 83.74534,4.240525 c -0.0907,-0.07612 -0.22582,-0.06456 -0.30179,0.02584 L 83.1552,4.610013 C 83.0801,4.570403 83.0032,4.534363 82.92472,4.50201 l 0.0775,-0.441834 c 0.0205,-0.116067 -0.0572,-0.22683 -0.17363,-0.24753 L 82.11804,3.687589 c -0.0157,-0.0028 -0.0316,-0.0038 -0.0475,-0.0031 z m -16.00006,1.79989 c -0.10026,0.0047 -0.18377,0.07815 -0.20102,0.176733 l -0.0785,0.446484 c -0.0843,0.0021 -0.16845,0.0081 -0.25218,0.01809 L 65.38488,5.702965 C 65.34438,5.592245 65.22159,5.535353 65.11048,5.575841 L 64.433,5.822338 c -0.11143,0.04047 -0.16905,0.163331 -0.12868,0.274401 l 0.154,0.422711 c -0.0703,0.0464 -0.13844,0.09606 -0.20412,0.148828 L 63.90538,6.375789 c -0.0904,-0.07575 -0.22521,-0.06372 -0.30127,0.02687 L 63.14057,6.95508 c -0.0761,0.09075 -0.0646,0.22582 0.0258,0.30179 l 0.34882,0.291972 c -0.0394,0.07425 -0.0752,0.150297 -0.10749,0.227893 l -0.447,-0.07906 c -0.11624,-0.02044 -0.22708,0.05754 -0.24753,0.17415 l -0.12558,0.710034 c -0.0206,0.116816 0.0572,0.228146 0.17364,0.248564 l 0.44648,0.07855 c 0.002,0.08431 0.008,0.168457 0.0186,0.252181 l -0.42323,0.153995 c -0.11072,0.04049 -0.16761,0.16329 -0.12712,0.274402 l 0.24649,0.677479 c 0.0405,0.111424 0.16334,0.169034 0.27441,0.128674 l 0.42219,-0.153996 c 0.0466,0.07051 0.0964,0.138799 0.14935,0.204639 l -0.29249,0.348299 c -0.0757,0.09037 -0.0637,0.225214 0.0269,0.301274 l 0.55242,0.463537 c 0.0907,0.07612 0.22582,0.06456 0.30179,-0.02584 l 0.29249,-0.348299 c 0.0741,0.03934 0.14995,0.07521 0.22737,0.107487 l -0.0791,0.447001 c -0.0204,0.116236 0.0575,0.22708 0.17415,0.24753 l 0.71004,0.125057 c 0.11681,0.02061 0.22814,-0.05716 0.24856,-0.173633 l 0.0786,-0.446484 c 0.0845,-0.0021 0.1688,-0.0081 0.2527,-0.01809 l 0.15348,0.422713 c 0.0403,0.111201 0.16351,0.168421 0.27492,0.127641 l 0.67748,-0.247013 c 0.11121,-0.04068 0.16857,-0.163478 0.12815,-0.274402 l -0.15348,-0.422197 c 0.0701,-0.04641 0.1381,-0.09608 0.20361,-0.148828 l 0.34882,0.291972 c 0.0905,0.0761 0.22569,0.06406 0.30179,-0.02687 l 0.46302,-0.551904 c 0.0765,-0.09083 0.0649,-0.226297 -0.0258,-0.302307 l -0.34779,-0.291972 c 0.0392,-0.07409 0.0749,-0.149966 0.10697,-0.227377 l 0.44701,0.07855 c 0.11623,0.02044 0.22708,-0.05754 0.24753,-0.174149 l 0.12505,-0.710031 c 0.0206,-0.116645 -0.0568,-0.227896 -0.17311,-0.248563 l -0.44184,-0.07751 c -0.003,-0.08488 -0.0108,-0.169551 -0.0222,-0.253732 L 68.99712,8.284728 C 69.10804,8.244458 69.1652,8.121586 69.12476,8.010327 L 68.87775,7.332849 C 68.83725,7.221422 68.71442,7.163807 68.60335,7.204174 l -0.42117,0.153479 c -0.0455,-0.07168 -0.0943,-0.141174 -0.14624,-0.208256 l 0.28887,-0.344165 c 0.0757,-0.09037 0.0637,-0.225216 -0.0269,-0.301273 l -0.29662,-0.264067 -0.75448,0.06098 -0.0915,0.109037 c -0.0751,-0.0396 -0.152,-0.07565 -0.23048,-0.108003 l 0.0775,-0.441834 c 0.0205,-0.116067 -0.0572,-0.22683 -0.17363,-0.24753 L 66.11815,5.487485 c -0.0157,-0.0028 -0.0316,-0.0038 -0.0475,-0.0031 z m 15.82953,0.0155 c 0.82856,-9.3e-5 1.50026,0.671609 1.50016,1.500167 1e-4,0.828557 -0.6716,1.500259 -1.50016,1.500166 -0.82836,-1.93e-4 -1.49974,-0.671811 -1.49965,-1.500167 -9e-5,-0.828355 0.67129,-1.499973 1.49965,-1.500166 z m -16.00006,1.79989 c 0.82856,-9.2e-5 1.50026,0.67161 1.50017,1.500167 9e-5,0.828557 -0.67161,1.500258 -1.50017,1.500166 -0.82835,-1.93e-4 -1.49974,-0.67181 -1.49965,-1.500166 -9e-5,-0.828356 0.6713,-1.499975 1.49965,-1.500167 z" /></svg>
