<?xml version="1.0" encoding="UTF-8"?>
<svg xmlns="http://www.w3.org/2000/svg" id="Calque_2" viewBox="0 0 254.65 99.62">
  <defs>
    <style>.cls-1{fill:#fff;}</style>
  </defs>
  <g id="Calque_1-2">
    <g>
      <path class="cls-1" d="M69.16,29.95c-1.02,0-1.6,.73-1.6,1.59s.59,1.58,1.6,1.58,1.6-.69,1.6-1.58-.59-1.59-1.6-1.59Z"></path>
      <path class="cls-1" d="M93.73,29.89c-1.02,0-1.6,.73-1.6,1.59s.59,1.58,1.6,1.58,1.61-.69,1.61-1.58-.59-1.59-1.61-1.59Z"></path>
      <path class="cls-1" d="M37.64,29.4c-.73,0-1.33,.38-1.48,1.11h2.89c-.12-.67-.74-1.11-1.41-1.11Z"></path>
      <path class="cls-1" d="M60.02,29.95c-1.02,0-1.6,.73-1.6,1.59s.59,1.58,1.6,1.58,1.6-.69,1.6-1.58-.59-1.59-1.6-1.59Z"></path>
      <path class="cls-1" d="M123.04,46.75c-3.8,0-7.36,1.34-10.02,3.76-.05,.04-.12,.04-.17,0l-6.56-6.6V17.09H0v28.31H104.74l6.65,6.7s.05,.11,.01,.16c-1.99,2.56-3.03,5.72-3.03,9.13,0,8.41,6.31,14.75,14.67,14.75,5.82,0,10.72-2.76,13.46-7.58,.24-.41,.3-.92,.17-1.39-.14-.48-.44-.87-.87-1.09l-2.2-1.18c-.82-.44-1.82-.14-2.29,.68-1.74,3.02-4.62,4.75-7.93,4.75-2.78,0-5.21-.95-6.84-2.69-.93-.99-1.53-2.31-1.84-4.04,0-.04,0-.07,.03-.1,.02-.03,.06-.04,.09-.04h21.03c.94,0,1.72-.8,1.73-1.77v-.14c0-4.1-1.43-7.85-4.03-10.55-2.67-2.77-6.31-4.23-10.52-4.23ZM14.51,35.05h-5.91v-10.34h2.69v8.07h3.22v2.28Zm8.27-2.8c0,2.32-1.63,3.03-3.75,3.03s-3.74-.71-3.74-3.03v-4.24h2.5v3.76c0,.89,.22,1.52,1.25,1.52s1.25-.63,1.25-1.52v-3.76h2.5v4.24Zm7.46,2.8l-1.81-2.09-1.81,2.09h-3.28l3.51-3.81-2.85-3.22h3.17l1.26,1.45,1.26-1.45h3.22l-2.91,3.22,3.51,3.81h-3.28Zm11.13-3.1h-5.25c0,1.02,.53,1.56,1.56,1.56,.53,0,.92-.18,1.19-.64h2.4c-.4,1.66-1.98,2.41-3.58,2.41-2.33,0-4.07-1.32-4.07-3.74s1.6-3.76,3.9-3.76c2.44,0,3.85,1.51,3.85,3.91v.26Zm13.07,3.1h-2.5v-3.36c0-.73,.03-1.92-1.03-1.92-1.15,0-1.19,1.08-1.19,1.92v3.36h-2.5v-3.36c0-.78,0-1.98-1.11-1.98s-1.11,1.19-1.11,1.98v3.36h-2.5v-7.04h2.5v.88h.03c.59-.78,1.32-1.11,2.22-1.11,1.02,0,1.89,.41,2.4,1.34,.48-.88,1.43-1.34,2.39-1.34,1.78,0,2.4,1.17,2.4,2.78v4.49Zm6.2,.23c-.82,0-1.67-.32-2.13-1.02h-.03v.78h-2.5v-11.39h2.5v5.03c.53-.62,1.37-.92,2.18-.92,2.08,0,3.53,1.73,3.53,3.75s-1.45,3.76-3.55,3.76Zm8.51,0c-2.25,0-4.24-1.34-4.24-3.74s1.98-3.76,4.24-3.76,4.24,1.36,4.24,3.76-1.98,3.74-4.24,3.74Zm12.81-3.03c0,2.32-1.63,3.03-3.75,3.03s-3.74-.71-3.74-3.03v-4.24h2.5v3.76c0,.89,.22,1.52,1.25,1.52s1.25-.63,1.25-1.52v-3.76h2.5v4.24Zm6.87-1.93c-.34-.19-.67-.23-1.06-.23-1.39,0-1.73,.92-1.73,2.13v2.84h-2.5v-7.04h2.5v1.15h.03c.48-.86,1.3-1.25,2.28-1.25h.48v2.4Zm8.9,4.05c0,2.99-1.48,4.2-4.07,4.2-1.62,0-3.79-.84-4.01-2.69h2.8c.07,.25,.25,.43,.47,.53,.22,.11,.48,.16,.71,.16,1.34,0,1.6-.88,1.6-2.02v-.33c-.64,.64-1.3,.96-2.24,.96-2.06,0-3.47-1.56-3.47-3.59s1.45-3.81,3.61-3.81c.82,0,1.58,.27,2.07,.97h.03v-.74h2.5v6.35Zm33.08,23.2s-.06,.06-.11,.06h-15.45s-.08-.02-.11-.06c-.02-.04-.03-.08,0-.12,1.37-2.91,4.56-4.88,7.94-4.88,4,0,6.62,2.52,7.74,4.88,.02,.04,.02,.09,0,.12Z"></path>
      <path class="cls-1" d="M184.06,86.99c-1.35,0-2.59,.43-3.62,1.14l-19.11-19.23s-.04-.07-.03-.12c.16-.72,.24-1.45,.24-2.16,0-6.21-4.71-7.92-8.16-9.16-2.77-1-4.08-1.6-4.08-2.84,0-1.03,1.35-2.08,2.66-2.08s2.41,.67,2.96,1.83c.2,.42,.54,.74,.96,.88,.39,.13,.8,.1,1.17-.08l2.12-1.07c.41-.21,.72-.59,.86-1.05,.14-.46,.11-.96-.1-1.4-1.35-2.85-4.66-4.92-7.86-4.92-4.76,0-8.48,3.54-8.48,8.05,0,5.52,4.89,7.27,8.46,8.55,2.96,1.02,3.77,1.7,3.77,3.18,0,2.13-1.77,3.79-4.03,3.79s-3.91-1.29-4.71-3.82c-.14-.46-.44-.82-.84-1.03-.36-.19-.77-.23-1.15-.11l-2.39,.75c-.86,.27-1.36,1.26-1.12,2.2,1.23,4.76,5.24,7.84,10.22,7.84,3.69,0,6.9-1.81,8.57-4.85,.02-.03,.05-.06,.09-.06,.04,0,.08,0,.11,.03l18.34,18.38s.01,0,.01,0c-.74,1.03-1.17,2.29-1.17,3.66,0,3.49,2.83,6.32,6.32,6.32s6.32-2.83,6.32-6.32-2.83-6.32-6.32-6.32Z"></path>
      <path class="cls-1" d="M239.64,46.6c-7.99,0-14.51,6.27-14.83,14.28,0,.07-.06,.12-.12,.12h-11.88c-.07,0-.12-.05-.12-.12v-.14c0-2.33-.02-5.86,1.32-7.39,.51-.58,1.23-.86,2.21-.86,.34,0,.6,.08,1.02,.31,.73,.4,1.63,.13,2.08-.63l1.3-2.21c.27-.47,.34-1.04,.2-1.57-.15-.53-.5-.96-.96-1.16-1.13-.5-2.14-.73-3.26-.73-1.54,0-2.95,.45-4.17,1.35-.03,.02-.06,.03-.1,.02-.03,0-.06-.03-.08-.05-.33-.5-.74-.76-1.2-.76h-2.45c-.9,0-1.63,.82-1.63,1.83v11.99c0,.07-.06,.12-.12,.12h-8.06c-.07,0-.12-.05-.12-.12-.15-3.83-1.58-7.35-4.05-9.9-2.69-2.77-6.35-4.23-10.59-4.23-3.85,0-7.44,1.35-10.12,3.79-.05,.04-.13,.04-.17,0l-30.25-30.46s-.04-.05-.04-.09h0s.02-.08,.05-.1c2.43-1.78,6.58-2.18,13.14-2.64-15.28-1.06-16.08-1.87-17.14-17.24h0c-1.06,15.37-1.86,16.18-17.14,17.24,15.28,1.06,16.08,1.87,17.14,17.25,.42-6.12,.81-10.32,2.34-12.81,.02-.03,.05-.05,.09-.06,.04,0,.08,0,.1,.03l30.24,30.46s.05,.12,.01,.16c-1.99,2.55-3.04,5.7-3.04,9.1,0,8.41,6.35,14.75,14.77,14.75,5.86,0,10.8-2.76,13.55-7.58,.24-.42,.3-.93,.17-1.39-.13-.46-.45-.86-.87-1.09l-2.21-1.18c-.82-.44-1.84-.14-2.31,.68-1.74,3.02-4.65,4.75-7.98,4.75-2.8,0-5.25-.96-6.89-2.69-.93-.98-1.54-2.3-1.84-4.03,0-.04,0-.07,.03-.1,.02-.03,.06-.04,.09-.04h21.18s.05,.01,.08,.02h9.84c.07,0,.12,.05,.12,.13v10.77c0,1.01,.73,1.83,1.63,1.83h2.45c.9,0,1.63-.82,1.63-1.83v-10.77c0-.07,.06-.13,.12-.13h12.01c.06,0,.12,.04,.12,.11,1.03,7.25,7.35,12.72,14.7,12.72,8.42,0,15.01-6.52,15.01-14.84s-6.59-14.84-15.01-14.84Zm-47.78,10.97s-.06,.06-.11,.06h-15.55s-.08-.02-.11-.06c-.02-.04-.03-.08,0-.12,1.38-2.91,4.59-4.88,7.98-4.88,4.04,0,6.68,2.52,7.8,4.88,.02,.04,.01,.09,0,.12Zm47.61,12.84c-4.91,0-8.9-4-8.9-8.91s3.99-9.02,8.9-9.02c5.36,0,9.4,3.88,9.4,9.02s-4.04,8.91-9.4,8.91Z"></path>
    </g>
  </g>
</svg>
