<?xml version="1.0" encoding="UTF-8" standalone="no"?>
<svg
   version="1.1"
   id="svg2"
   width="300"
   height="150"
   viewBox="0 0 300 150"
   sodipodi:docname="lyrc.svg"
   inkscape:version="1.4 (86a8ad7, 2024-10-11)"
   xmlns:inkscape="http://www.inkscape.org/namespaces/inkscape"
   xmlns:sodipodi="http://sodipodi.sourceforge.net/DTD/sodipodi-0.dtd"
   xmlns="http://www.w3.org/2000/svg"
   xmlns:svg="http://www.w3.org/2000/svg">
  <defs
     id="defs1" />
  <sodipodi:namedview
     id="namedview1"
     pagecolor="#ffffff"
     bordercolor="#999999"
     borderopacity="1"
     inkscape:showpageshadow="2"
     inkscape:pageopacity="0"
     inkscape:pagecheckerboard="0"
     inkscape:deskcolor="#d1d1d1"
     inkscape:zoom="15.581899"
     inkscape:cx="111.82848"
     inkscape:cy="142.31256"
     inkscape:window-width="1920"
     inkscape:window-height="991"
     inkscape:window-x="-9"
     inkscape:window-y="-9"
     inkscape:window-maximized="1"
     inkscape:current-layer="g526" />
  <g
     id="g526"
     clip-path="url(#clipPath530)"
     transform="matrix(1.3333333,0,0,-1.3333333,-59.538578,1057.8989)"
     inkscape:label="g1">
    <g
       id="g532"
       transform="matrix(0.2326687,0,0,0.2326687,119.2872,783.0631)">
      <path
         d="m 0,0 c -57.469,0 -79,-18.807 -104.023,-71.423 -8.282,-17.413 -10.042,-18.692 -8.616,-83.518 H 5.395"
         style="fill:none;stroke:#9cb33b;stroke-width:8.504;stroke-linecap:butt;stroke-linejoin:round;stroke-miterlimit:9;stroke-dasharray:none;stroke-opacity:1"
         id="path534" />
    </g>
    <g
       id="g536"
       transform="matrix(0.2326687,0,0,0.2326687,93.0797,747.0132)">
      <path
         d="m 0,0 h -48.882 c 0,0 -1.275,-83.587 0,-103.021 2.102,-32.062 24.178,-79.542 35.741,-98.29 8.463,-13.719 27.683,-38.72 65.177,-44.677 37.494,-5.957 65.997,1.127 65.997,1.127"
         style="fill:none;stroke:#9cb33b;stroke-width:8.504;stroke-linecap:butt;stroke-linejoin:miter;stroke-miterlimit:10;stroke-dasharray:none;stroke-opacity:1"
         id="path538" />
    </g>
    <g
       id="g540"
       transform="matrix(0.2326687,0,0,0.2326687,76.67155,733.8665)">
      <path
         d="m 0,0 c 0,-16.982 -13.767,-30.749 -30.749,-30.749 -16.981,0 -30.748,13.767 -30.748,30.749 0,16.982 13.767,30.749 30.748,30.749 C -13.767,30.749 0,16.982 0,0 Z"
         style="fill:none;stroke:#9cb33b;stroke-width:8.504;stroke-linecap:butt;stroke-linejoin:miter;stroke-miterlimit:10;stroke-dasharray:none;stroke-opacity:1"
         id="path542" />
    </g>
    <g
       id="g544"
       transform="matrix(0.2326687,0,0,0.2326687,63.89113,720.1083)">
      <path
         d="M 0,0 10.512,28.383"
         style="fill:none;stroke:#9cb33b;stroke-width:8.504;stroke-linecap:butt;stroke-linejoin:miter;stroke-miterlimit:10;stroke-dasharray:none;stroke-opacity:1"
         id="path546" />
    </g>
    <g
       id="g548"
       transform="matrix(0.2326687,0,0,0.2326687,76.67155,733.8665)">
      <path
         d="M 0,0 H 20.443"
         style="fill:none;stroke:#9cb33b;stroke-width:8.504;stroke-linecap:butt;stroke-linejoin:miter;stroke-miterlimit:10;stroke-dasharray:none;stroke-opacity:1"
         id="path550" />
    </g>
    <g
       id="g552"
       transform="matrix(0.2326687,0,0,0.2326687,98.60216,773.0976)">
      <path
         d="M 0,0 -21.633,18.768"
         style="fill:none;stroke:#9cb33b;stroke-width:8.504;stroke-linecap:butt;stroke-linejoin:miter;stroke-miterlimit:10;stroke-dasharray:none;stroke-opacity:1"
         id="path554" />
    </g>
    <g
       id="g556"
       transform="matrix(0.2326687,0,0,0.2326687,94.8114,780.0401)">
      <path
         d="m 0,0 c 0,-9.893 -8.02,-17.913 -17.913,-17.913 -9.893,0 -17.913,8.02 -17.913,17.913 0,9.893 8.02,17.913 17.913,17.913 C -8.02,17.913 0,9.893 0,0 Z"
         style="fill:none;stroke:#9cb33b;stroke-width:8.504;stroke-linecap:butt;stroke-linejoin:miter;stroke-miterlimit:10;stroke-dasharray:none;stroke-opacity:1"
         id="path558" />
    </g>
    <g
       id="g560"
       transform="matrix(0.2326687,0,0,0.2326687,118.4166,764.5499)">
      <path
         d="M 0,0 H -69.209 V -45.92 H -1.984"
         style="fill:none;stroke:#9cb33b;stroke-width:8.504;stroke-linecap:butt;stroke-linejoin:miter;stroke-miterlimit:10;stroke-dasharray:none;stroke-opacity:1"
         id="path562" />
    </g>
    <g
       id="g564"
       transform="matrix(0.2326687,0,0,0.2326687,58.61837,713.535)">
      <path
         d="M 0,0 23.901,29.724 40.582,-3.748 Z"
         style="fill:none;stroke:#9cb33b;stroke-width:8.504;stroke-linecap:butt;stroke-linejoin:miter;stroke-miterlimit:10;stroke-dasharray:none;stroke-opacity:1"
         id="path566" />
    </g>
    <path
       d="m 149.5145,767.0187 c 0,-0.571 -0.0838,-1.0889 -0.2513,-1.5542 -0.1675,-0.4654 -0.4653,-0.8628 -0.8935,-1.1913 -0.4281,-0.329 -1.0144,-0.5863 -1.7589,-0.7725 -0.7446,-0.1861 -1.6939,-0.2792 -2.8479,-0.2792 -1.154,0 -2.1033,0.0931 -2.8479,0.2792 -0.7445,0.1862 -1.3308,0.4435 -1.7589,0.7725 -0.4281,0.3285 -0.726,0.7259 -0.8935,1.1913 -0.1675,0.4653 -0.2513,0.9832 -0.2513,1.5542 v 9.2137 c 0,0.2354 0.0526,0.4062 0.1582,0.5118 0.1052,0.1052 0.276,0.1583 0.5119,0.1583 h 2.9223 c 0.2355,0 0.4063,-0.0531 0.5119,-0.1583 0.1052,-0.1056 0.1582,-0.2764 0.1582,-0.5118 v -8.4878 c 0,-0.2485 0.0931,-0.456 0.2792,-0.6235 0.1862,-0.1676 0.6017,-0.2513 1.2471,-0.2513 0.6575,0 1.0796,0.0837 1.2657,0.2513 0.1862,0.1675 0.2792,0.375 0.2792,0.6235 v 8.4878 c 0,0.2354 0.0526,0.4062 0.1583,0.5118 0.1051,0.1052 0.2759,0.1583 0.5118,0.1583 h 2.8293 c 0.2354,0 0.4062,-0.0531 0.5119,-0.1583 0.1051,-0.1056 0.1582,-0.2764 0.1582,-0.5118 z"
       style="fill:#231f20;fill-opacity:1;fill-rule:nonzero;stroke:none"
       id="path572" />
    <g
       id="g574"
       transform="matrix(0.2326687,0,0,0.2326687,149.5145,767.0187)">
      <path
         d="m 0,0 c 0,-2.454 -0.36,-4.68 -1.08,-6.68 -0.72,-2 -2,-3.708 -3.84,-5.12 -1.84,-1.414 -4.36,-2.52 -7.56,-3.32 -3.2,-0.8 -7.28,-1.2 -12.24,-1.2 -4.96,0 -9.04,0.4 -12.24,1.2 -3.2,0.8 -5.72,1.906 -7.56,3.32 -1.84,1.412 -3.12,3.12 -3.84,5.12 -0.72,2 -1.08,4.226 -1.08,6.68 v 39.6 c 0,1.012 0.226,1.746 0.68,2.2 0.452,0.452 1.186,0.68 2.2,0.68 H -34 c 1.012,0 1.746,-0.228 2.2,-0.68 0.452,-0.454 0.68,-1.188 0.68,-2.2 V 3.12 c 0,-1.068 0.4,-1.96 1.2,-2.68 0.8,-0.72 2.586,-1.08 5.36,-1.08 2.826,0 4.64,0.36 5.44,1.08 0.8,0.72 1.2,1.612 1.2,2.68 V 39.6 c 0,1.012 0.226,1.746 0.68,2.2 0.452,0.452 1.186,0.68 2.2,0.68 h 12.16 c 1.012,0 1.746,-0.228 2.2,-0.68 C -0.228,41.346 0,40.612 0,39.6 Z"
         style="fill:none;stroke:#ffffff;stroke-width:1;stroke-linecap:butt;stroke-linejoin:miter;stroke-miterlimit:10;stroke-dasharray:none;stroke-opacity:1"
         id="path576" />
    </g>
    <path
       d="m 155.9917,764.1708 c 0,-0.2359 -0.0528,-0.4067 -0.1582,-0.5119 -0.1054,-0.1056 -0.2762,-0.1582 -0.5119,-0.1582 h -2.829 c -0.2362,0 -0.4067,0.0526 -0.5121,0.1582 -0.1054,0.1052 -0.1582,0.276 -0.1582,0.5119 v 1.9916 c 0,0.5708 0.0495,0.9989 0.1491,1.2844 0.0989,0.2852 0.285,0.6205 0.5582,1.0051 l 1.5077,2.0289 -1.5077,2.0288 c -0.2855,0.3846 -0.4747,0.7197 -0.5677,1.0052 -0.0931,0.2852 -0.1396,0.7136 -0.1396,1.2843 v 1.4332 c 0,0.2357 0.0528,0.4063 0.1582,0.5119 0.1054,0.1054 0.2759,0.1582 0.5121,0.1582 h 2.8662 c 0.2357,0 0.4063,-0.0528 0.5119,-0.1582 0.1054,-0.1056 0.1582,-0.2762 0.1582,-0.5119 v -1.2843 c 0,-0.1243 0.006,-0.2543 0.0186,-0.3909 0.0124,-0.1366 0.0619,-0.2669 0.1492,-0.3909 l 0.8187,-1.1726 c 0.0619,-0.0994 0.1271,-0.1769 0.1955,-0.2327 0.0681,-0.0558 0.1519,-0.0838 0.2513,-0.0838 h 0.2233 c 0.0994,0 0.1799,0.028 0.242,0.0838 0.0619,0.0558 0.1305,0.1333 0.2047,0.2327 l 0.8379,1.1726 c 0.0865,0.124 0.1363,0.2543 0.1487,0.3909 0.0121,0.1366 0.0188,0.2666 0.0188,0.3909 v 1.2843 c 0,0.2357 0.0524,0.4063 0.158,0.5119 0.1052,0.1054 0.2762,0.1582 0.5119,0.1582 h 2.8294 c 0.2353,0 0.4063,-0.0528 0.5117,-0.1582 0.1054,-0.1056 0.1582,-0.2762 0.1582,-0.5119 v -1.4332 c 0,-0.5707 -0.0496,-0.9991 -0.1487,-1.2843 -0.0996,-0.2855 -0.2859,-0.6206 -0.5586,-1.0052 l -1.5077,-2.0475 1.5077,-2.0102 c 0.2855,-0.3846 0.4746,-0.7199 0.5677,-1.0051 0.0931,-0.2855 0.1396,-0.7136 0.1396,-1.2844 v -1.9916 c 0,-0.2359 -0.0528,-0.4067 -0.1582,-0.5119 -0.1054,-0.1056 -0.2764,-0.1582 -0.5117,-0.1582 h -2.8294 c -0.2357,0 -0.4067,0.0526 -0.5119,0.1582 -0.1056,0.1052 -0.158,0.276 -0.158,0.5119 v 1.8427 c 0,0.124 -0.007,0.2543 -0.0188,0.3909 -0.0124,0.1366 -0.0622,0.2669 -0.1487,0.3909 l -0.8192,1.1726 c -0.0743,0.1117 -0.1429,0.1922 -0.2048,0.242 -0.0621,0.0496 -0.1426,0.0745 -0.242,0.0745 h -0.2606 c -0.0995,0 -0.1798,-0.0249 -0.2419,-0.0745 -0.0622,-0.0498 -0.1301,-0.1303 -0.2048,-0.242 l -0.8374,-1.1726 c -0.087,-0.124 -0.1368,-0.2543 -0.1491,-0.3909 -0.0126,-0.1366 -0.0186,-0.2669 -0.0186,-0.3909 z"
       style="fill:#231f20;fill-opacity:1;fill-rule:nonzero;stroke:none"
       id="path578" />
    <g
       id="g580"
       transform="matrix(0.2326687,0,0,0.2326687,155.9917,764.1708)">
      <path
         d="m 0,0 c 0,-1.014 -0.227,-1.748 -0.68,-2.2 -0.453,-0.454 -1.187,-0.68 -2.2,-0.68 h -12.159 c -1.015,0 -1.748,0.226 -2.201,0.68 -0.453,0.452 -0.68,1.186 -0.68,2.2 v 8.56 c 0,2.453 0.213,4.293 0.641,5.52 0.425,1.226 1.225,2.667 2.399,4.32 l 6.48,8.72 -6.48,8.72 c -1.227,1.653 -2.04,3.093 -2.44,4.32 -0.4,1.226 -0.6,3.067 -0.6,5.52 v 6.16 c 0,1.013 0.227,1.746 0.68,2.2 0.453,0.453 1.186,0.68 2.201,0.68 H -2.72 c 1.013,0 1.746,-0.227 2.2,-0.68 0.453,-0.454 0.68,-1.187 0.68,-2.2 v -5.52 c 0,-0.534 0.027,-1.093 0.08,-1.68 0.053,-0.587 0.266,-1.147 0.641,-1.68 L 4.4,37.92 c 0.266,-0.427 0.546,-0.76 0.84,-1 0.293,-0.24 0.653,-0.36 1.08,-0.36 h 0.96 c 0.427,0 0.773,0.12 1.04,0.36 0.266,0.24 0.561,0.573 0.88,1 l 3.601,5.04 c 0.372,0.533 0.586,1.093 0.639,1.68 0.052,0.587 0.081,1.146 0.081,1.68 v 5.52 c 0,1.013 0.225,1.746 0.679,2.2 0.452,0.453 1.187,0.68 2.2,0.68 h 12.161 c 1.011,0 1.746,-0.227 2.199,-0.68 0.453,-0.454 0.68,-1.187 0.68,-2.2 v -6.16 c 0,-2.453 -0.213,-4.294 -0.639,-5.52 -0.428,-1.227 -1.229,-2.667 -2.401,-4.32 l -6.48,-8.8 6.48,-8.64 c 1.227,-1.653 2.04,-3.094 2.44,-4.32 0.4,-1.227 0.6,-3.067 0.6,-5.52 V 0 c 0,-1.014 -0.227,-1.748 -0.68,-2.2 -0.453,-0.454 -1.188,-0.68 -2.199,-0.68 H 16.4 c -1.013,0 -1.748,0.226 -2.2,0.68 -0.454,0.452 -0.679,1.186 -0.679,2.2 v 7.92 c 0,0.533 -0.029,1.093 -0.081,1.68 -0.053,0.587 -0.267,1.147 -0.639,1.68 L 9.28,16.32 C 8.961,16.8 8.666,17.146 8.4,17.36 8.133,17.573 7.787,17.68 7.36,17.68 H 6.24 C 5.812,17.68 5.467,17.573 5.2,17.36 4.933,17.146 4.641,16.8 4.32,16.32 L 0.721,11.28 C 0.347,10.747 0.133,10.187 0.08,9.6 0.026,9.013 0,8.453 0,7.92 Z"
         style="fill:none;stroke:#ffffff;stroke-width:1;stroke-linecap:butt;stroke-linejoin:miter;stroke-miterlimit:10;stroke-dasharray:none;stroke-opacity:1"
         id="path582" />
    </g>
    <path
       d="m 175.0146,763.5007 h -8.6364 c -0.2359,0 -0.4067,0.0526 -0.5119,0.1582 -0.1056,0.1052 -0.1584,0.276 -0.1584,0.5119 v 12.0615 c 0,0.2355 0.0528,0.4063 0.1584,0.5119 0.1052,0.1054 0.276,0.1582 0.5119,0.1582 h 8.6364 c 0.236,0 0.4063,-0.0528 0.5121,-0.1582 0.105,-0.1056 0.1583,-0.2764 0.1583,-0.5119 v -2.1777 c 0,-0.236 -0.0533,-0.4067 -0.1583,-0.5119 -0.1058,-0.1056 -0.2761,-0.1582 -0.5121,-0.1582 h -5.1373 v -1.4333 h 3.6299 c 0.2354,0 0.4062,-0.053 0.5118,-0.1582 0.1052,-0.1056 0.158,-0.2761 0.158,-0.5118 v -1.9917 c 0,-0.2359 -0.0528,-0.4067 -0.158,-0.5119 -0.1056,-0.1056 -0.2764,-0.1582 -0.5118,-0.1582 h -3.6299 v -1.6007 h 5.1373 c 0.236,0 0.4063,-0.0528 0.5121,-0.1582 0.105,-0.1057 0.1583,-0.2765 0.1583,-0.5119 v -2.1778 c 0,-0.2359 -0.0533,-0.4067 -0.1583,-0.5119 -0.1058,-0.1056 -0.2761,-0.1582 -0.5121,-0.1582"
       style="fill:#231f20;fill-opacity:1;fill-rule:nonzero;stroke:none"
       id="path584" />
    <g
       id="g586"
       transform="matrix(0.2326687,0,0,0.2326687,175.0146,763.5007)">
      <path
         d="m 0,0 h -37.119 c -1.014,0 -1.748,0.226 -2.2,0.68 C -39.773,1.132 -40,1.866 -40,2.88 v 51.84 c 0,1.012 0.227,1.746 0.681,2.2 0.452,0.453 1.186,0.68 2.2,0.68 L 0,57.6 c 1.014,0 1.746,-0.227 2.201,-0.68 0.451,-0.454 0.68,-1.188 0.68,-2.2 v -9.36 c 0,-1.014 -0.229,-1.748 -0.68,-2.2 C 1.746,42.706 1.014,42.48 0,42.48 h -22.08 v -6.16 h 15.601 c 1.012,0 1.746,-0.228 2.2,-0.68 0.452,-0.454 0.679,-1.187 0.679,-2.2 v -8.56 c 0,-1.014 -0.227,-1.748 -0.679,-2.2 C -4.733,22.226 -5.467,22 -6.479,22 H -22.08 V 15.12 H 0 c 1.014,0 1.746,-0.227 2.201,-0.68 0.451,-0.454 0.68,-1.188 0.68,-2.2 V 2.88 C 2.881,1.866 2.652,1.132 2.201,0.68 1.746,0.226 1.014,0 0,0 Z"
         style="fill:none;stroke:#ffffff;stroke-width:1;stroke-linecap:butt;stroke-linejoin:miter;stroke-miterlimit:10;stroke-dasharray:none;stroke-opacity:1"
         id="path588" />
    </g>
    <path
       d="m 181.3244,763.5007 h -2.7734 c -0.2359,0 -0.4065,0.0526 -0.5116,0.1582 -0.1057,0.1052 -0.1583,0.276 -0.1583,0.5119 v 12.0615 c 0,0.2355 0.0526,0.4063 0.1583,0.5119 0.1051,0.1054 0.2757,0.1582 0.5116,0.1582 h 2.997 c 0.198,0 0.363,-0.0435 0.493,-0.1303 0.1305,-0.087 0.2513,-0.2296 0.3632,-0.4281 l 1.6752,-3.034 c 0.0619,-0.1117 0.1145,-0.1924 0.1582,-0.2419 0.0433,-0.0498 0.1024,-0.0745 0.1769,-0.0745 h 0.1673 c 0.0744,0 0.1333,0.0247 0.177,0.0745 0.0433,0.0495 0.0961,0.1302 0.158,0.2419 l 1.6568,3.034 c 0.1117,0.1985 0.2327,0.3411 0.363,0.4281 0.1303,0.0868 0.2946,0.1303 0.493,0.1303 h 3.0156 c 0.2355,0 0.4063,-0.0528 0.5117,-0.1582 0.1056,-0.1056 0.1582,-0.2764 0.1582,-0.5119 v -12.0615 c 0,-0.2359 -0.0526,-0.4067 -0.1582,-0.5119 -0.1054,-0.1056 -0.2762,-0.1582 -0.5117,-0.1582 h -2.8664 c -0.236,0 -0.4067,0.0526 -0.5119,0.1582 -0.1056,0.1052 -0.1584,0.276 -0.1584,0.5119 v 6.552 l -1.098,-2.0289 c -0.1117,-0.211 -0.2452,-0.363 -0.4002,-0.456 -0.1554,-0.0931 -0.3509,-0.1396 -0.5863,-0.1396 h -0.7446 c -0.2359,0 -0.4316,0.0465 -0.5865,0.1396 -0.1552,0.093 -0.2885,0.245 -0.4,0.456 l -1.0982,2.0289 v -6.552 c 0,-0.2359 -0.053,-0.4067 -0.1582,-0.5119 -0.1056,-0.1056 -0.2762,-0.1582 -0.5121,-0.1582"
       style="fill:#231f20;fill-opacity:1;fill-rule:nonzero;stroke:none"
       id="path590" />
    <g
       id="g592"
       transform="matrix(0.2326687,0,0,0.2326687,181.3244,763.5007)">
      <path
         d="m 0,0 h -11.92 c -1.014,0 -1.747,0.226 -2.199,0.68 -0.454,0.452 -0.68,1.186 -0.68,2.2 v 51.84 c 0,1.012 0.226,1.746 0.68,2.2 0.452,0.453 1.185,0.68 2.199,0.68 H 0.961 c 0.851,0 1.56,-0.187 2.119,-0.56 0.561,-0.374 1.08,-0.987 1.561,-1.84 l 7.2,-13.04 c 0.266,-0.48 0.492,-0.827 0.68,-1.04 0.186,-0.214 0.44,-0.32 0.76,-0.32 H 14 c 0.32,0 0.573,0.106 0.761,0.32 0.186,0.213 0.413,0.56 0.679,1.04 l 7.121,13.04 c 0.48,0.853 1,1.466 1.56,1.84 0.56,0.373 1.266,0.56 2.119,0.56 h 12.961 c 1.012,0 1.746,-0.227 2.199,-0.68 0.454,-0.454 0.68,-1.188 0.68,-2.2 V 2.88 C 42.08,1.866 41.854,1.132 41.4,0.68 40.947,0.226 40.213,0 39.201,0 H 26.881 C 25.867,0 25.133,0.226 24.681,0.68 24.227,1.132 24,1.866 24,2.88 v 28.16 l -4.719,-8.72 c -0.48,-0.907 -1.054,-1.56 -1.72,-1.96 -0.668,-0.4 -1.508,-0.6 -2.52,-0.6 h -3.2 c -1.014,0 -1.855,0.2 -2.521,0.6 -0.667,0.4 -1.24,1.053 -1.719,1.96 l -4.72,8.72 V 2.88 C 2.881,1.866 2.653,1.132 2.201,0.68 1.747,0.226 1.014,0 0,0 Z"
         style="fill:none;stroke:#ffffff;stroke-width:1;stroke-linecap:butt;stroke-linejoin:miter;stroke-miterlimit:10;stroke-dasharray:none;stroke-opacity:1"
         id="path594" />
    </g>
    <path
       d="m 197.8721,768.8614 v -2.1964 h 2.4195 c 0.2357,0 0.4125,0.0619 0.5307,0.1861 0.1177,0.1241 0.1766,0.31 0.1766,0.5585 v 0.7259 c 0,0.248 -0.0589,0.4309 -0.1766,0.5491 -0.1182,0.1177 -0.295,0.1768 -0.5307,0.1768 z m 0,4.8767 v -2.0102 h 1.5819 c 0.2357,0 0.4125,0.0619 0.5307,0.1861 0.1177,0.1238 0.1768,0.3102 0.1768,0.5584 v 0.5212 c 0,0.248 -0.0591,0.4342 -0.1768,0.5584 -0.1182,0.1238 -0.295,0.1861 -0.5307,0.1861 z m 3.6296,-10.2374 h -7.1478 c -0.236,0 -0.4065,0.0526 -0.5117,0.1582 -0.1056,0.1052 -0.1582,0.276 -0.1582,0.5119 v 12.0615 c 0,0.2355 0.0526,0.4063 0.1582,0.5119 0.1052,0.1054 0.2757,0.1582 0.5117,0.1582 h 5.9377 c 1.2161,0 2.1156,-0.2326 2.6992,-0.698 0.583,-0.4653 0.8748,-1.1819 0.8748,-2.1498 v -0.8935 c 0,-0.5212 -0.0903,-0.9462 -0.2699,-1.275 -0.1801,-0.329 -0.456,-0.5742 -0.8285,-0.7352 0.7941,-0.0745 1.3837,-0.3476 1.7685,-0.819 0.3844,-0.4719 0.5768,-1.1603 0.5768,-2.0661 v -1.7125 c 0,-1.0423 -0.2948,-1.812 -0.8842,-2.308 -0.5895,-0.4966 -1.4984,-0.7446 -2.7266,-0.7446"
       style="fill:#231f20;fill-opacity:1;fill-rule:nonzero;stroke:none"
       id="path596" />
    <g
       id="g598"
       transform="matrix(0.2326687,0,0,0.2326687,197.8721,768.8614)">
      <path
         d="m 0,0 v -9.44 h 10.399 c 1.013,0 1.773,0.266 2.281,0.8 0.506,0.533 0.759,1.332 0.759,2.4 v 3.12 c 0,1.066 -0.253,1.852 -0.759,2.36 C 12.172,-0.254 11.412,0 10.399,0 Z m 0,20.96 v -8.64 h 6.799 c 1.013,0 1.773,0.266 2.281,0.8 0.506,0.532 0.76,1.333 0.76,2.4 v 2.24 c 0,1.066 -0.254,1.866 -0.76,2.4 -0.508,0.532 -1.268,0.8 -2.281,0.8 z m 15.6,-44 h -30.721 c -1.014,0 -1.747,0.226 -2.199,0.68 -0.454,0.452 -0.68,1.186 -0.68,2.2 v 51.84 c 0,1.012 0.226,1.746 0.68,2.2 0.452,0.453 1.185,0.68 2.199,0.68 h 25.52 c 5.227,0 9.093,-1 11.601,-3 2.506,-2 3.76,-5.08 3.76,-9.24 V 18.48 C 25.76,16.24 25.372,14.413 24.6,13 23.826,11.586 22.64,10.532 21.039,9.84 24.452,9.52 26.986,8.346 28.64,6.32 30.292,4.292 31.119,1.333 31.119,-2.56 v -7.36 c 0,-4.48 -1.267,-7.788 -3.8,-9.92 -2.534,-2.134 -6.44,-3.2 -11.719,-3.2 z"
         style="fill:none;stroke:#ffffff;stroke-width:1;stroke-linecap:butt;stroke-linejoin:miter;stroke-miterlimit:10;stroke-dasharray:none;stroke-opacity:1"
         id="path600" />
    </g>
    <path
       d="m 211.1989,767.6888 c 0,-0.2483 0.0931,-0.4561 0.2792,-0.6236 0.1862,-0.1675 0.6145,-0.2513 1.2844,-0.2513 0.6703,0 1.0982,0.0838 1.2843,0.2513 0.1861,0.1675 0.2792,0.3753 0.2792,0.6236 v 5.007 c 0,0.2357 -0.0931,0.4374 -0.2792,0.6049 -0.1861,0.1675 -0.614,0.2513 -1.2843,0.2513 -0.6699,0 -1.0982,-0.0838 -1.2844,-0.2513 -0.1861,-0.1675 -0.2792,-0.3692 -0.2792,-0.6049 z m 7.334,-0.6701 c 0,-0.571 -0.084,-1.0889 -0.2515,-1.5543 -0.1676,-0.4653 -0.4654,-0.8627 -0.8933,-1.1912 -0.4283,-0.329 -1.0176,-0.5863 -1.7685,-0.7725 -0.751,-0.1861 -1.7029,-0.2792 -2.8571,-0.2792 -1.1538,0 -2.1096,0.0931 -2.8665,0.2792 -0.7571,0.1862 -1.3493,0.4435 -1.7774,0.7725 -0.4281,0.3285 -0.7261,0.7259 -0.8934,1.1912 -0.1678,0.4654 -0.2513,0.9833 -0.2513,1.5543 v 6.3472 c 0,0.5707 0.0835,1.0889 0.2513,1.5542 0.1673,0.4653 0.4653,0.8655 0.8934,1.2006 0.4281,0.335 1.0203,0.5956 1.7774,0.7817 0.7569,0.1862 1.7127,0.2792 2.8665,0.2792 1.1542,0 2.1061,-0.093 2.8571,-0.2792 0.7509,-0.1861 1.3402,-0.4467 1.7685,-0.7817 0.4279,-0.3351 0.7257,-0.7353 0.8933,-1.2006 0.1675,-0.4653 0.2515,-0.9835 0.2515,-1.5542 z"
       style="fill:#231f20;fill-opacity:1;fill-rule:nonzero;stroke:none"
       id="path602" />
    <g
       id="g604"
       transform="matrix(0.2326687,0,0,0.2326687,211.1989,767.6888)">
      <path
         d="M 0,0 C 0,-1.067 0.4,-1.96 1.2,-2.68 2,-3.4 3.841,-3.76 6.72,-3.76 c 2.881,0 4.72,0.36 5.52,1.08 0.8,0.72 1.2,1.613 1.2,2.68 v 21.52 c 0,1.013 -0.4,1.88 -1.2,2.6 C 11.44,24.84 9.601,25.2 6.72,25.2 3.841,25.2 2,24.84 1.2,24.12 0.4,23.4 0,22.533 0,21.52 Z m 31.521,-2.88 c 0,-2.454 -0.361,-4.68 -1.081,-6.68 -0.72,-2 -2,-3.708 -3.839,-5.12 C 24.76,-16.094 22.227,-17.2 19,-18 c -3.228,-0.8 -7.319,-1.2 -12.28,-1.2 -4.959,0 -9.067,0.4 -12.32,1.2 -3.254,0.8 -5.799,1.906 -7.639,3.32 -1.84,1.412 -3.121,3.12 -3.84,5.12 -0.721,2 -1.08,4.226 -1.08,6.68 V 24.4 c 0,2.453 0.359,4.68 1.08,6.68 0.719,2 2,3.72 3.84,5.16 1.84,1.44 4.385,2.56 7.639,3.36 3.253,0.8 7.361,1.2 12.32,1.2 4.961,0 9.052,-0.4 12.28,-1.2 3.227,-0.8 5.76,-1.92 7.601,-3.36 1.839,-1.44 3.119,-3.16 3.839,-5.16 0.72,-2 1.081,-4.227 1.081,-6.68 z"
         style="fill:none;stroke:#ffffff;stroke-width:1;stroke-linecap:butt;stroke-linejoin:miter;stroke-miterlimit:10;stroke-dasharray:none;stroke-opacity:1"
         id="path606" />
    </g>
    <path
       d="m 232.3066,767.0187 c 0,-0.571 -0.0835,-1.0889 -0.2511,-1.5542 -0.1677,-0.4654 -0.4653,-0.8628 -0.8936,-1.1913 -0.4282,-0.329 -1.0142,-0.5863 -1.7588,-0.7725 -0.7448,-0.1861 -1.694,-0.2792 -2.8481,-0.2792 -1.154,0 -2.1033,0.0931 -2.8479,0.2792 -0.7443,0.1862 -1.3308,0.4435 -1.7589,0.7725 -0.4279,0.3285 -0.726,0.7259 -0.8932,1.1913 -0.1676,0.4653 -0.2513,0.9832 -0.2513,1.5542 v 9.2137 c 0,0.2354 0.0526,0.4062 0.158,0.5118 0.1054,0.1052 0.2761,0.1583 0.5118,0.1583 h 2.9223 c 0.2357,0 0.4065,-0.0531 0.5119,-0.1583 0.1054,-0.1056 0.1585,-0.2764 0.1585,-0.5118 v -8.4878 c 0,-0.2485 0.0928,-0.456 0.2789,-0.6235 0.1864,-0.1676 0.602,-0.2513 1.2471,-0.2513 0.6578,0 1.0796,0.0837 1.266,0.2513 0.1861,0.1675 0.279,0.375 0.279,0.6235 v 8.4878 c 0,0.2354 0.0528,0.4062 0.1584,0.5118 0.1052,0.1052 0.2757,0.1583 0.5116,0.1583 h 2.8293 c 0.2357,0 0.4062,-0.0531 0.5119,-0.1583 0.1051,-0.1056 0.1582,-0.2764 0.1582,-0.5118 z"
       style="fill:#231f20;fill-opacity:1;fill-rule:nonzero;stroke:none"
       id="path608" />
    <g
       id="g610"
       transform="matrix(0.2326687,0,0,0.2326687,232.3066,767.0187)">
      <path
         d="m 0,0 c 0,-2.454 -0.359,-4.68 -1.079,-6.68 -0.721,-2 -2,-3.708 -3.841,-5.12 -1.84,-1.414 -4.359,-2.52 -7.559,-3.32 -3.201,-0.8 -7.281,-1.2 -12.241,-1.2 -4.96,0 -9.04,0.4 -12.24,1.2 -3.199,0.8 -5.72,1.906 -7.56,3.32 -1.839,1.412 -3.12,3.12 -3.839,5.12 -0.72,2 -1.08,4.226 -1.08,6.68 v 39.6 c 0,1.012 0.226,1.746 0.679,2.2 0.453,0.452 1.187,0.68 2.2,0.68 H -34 c 1.013,0 1.747,-0.228 2.2,-0.68 0.453,-0.454 0.681,-1.188 0.681,-2.2 V 3.12 c 0,-1.068 0.399,-1.96 1.199,-2.68 0.801,-0.72 2.587,-1.08 5.36,-1.08 2.827,0 4.64,0.36 5.441,1.08 0.8,0.72 1.199,1.612 1.199,2.68 V 39.6 c 0,1.012 0.227,1.746 0.681,2.2 0.452,0.452 1.185,0.68 2.199,0.68 h 12.16 c 1.013,0 1.746,-0.228 2.2,-0.68 C -0.228,41.346 0,40.612 0,39.6 Z"
         style="fill:none;stroke:#ffffff;stroke-width:1;stroke-linecap:butt;stroke-linejoin:miter;stroke-miterlimit:10;stroke-dasharray:none;stroke-opacity:1"
         id="path612" />
    </g>
    <path
       d="m 238.9885,773.5521 v -2.3826 h 1.396 c 0.3228,0 0.5398,0.0838 0.6517,0.2513 0.1115,0.1675 0.1676,0.3751 0.1676,0.6236 v 0.6328 c 0,0.248 -0.0561,0.456 -0.1676,0.6236 -0.1119,0.1675 -0.3289,0.2513 -0.6517,0.2513 z m -0.6701,-10.0513 h -2.8662 c -0.2359,0 -0.4067,0.0525 -0.5119,0.1582 -0.1058,0.1051 -0.1584,0.2759 -0.1584,0.5118 v 12.0616 c 0,0.2355 0.0526,0.4062 0.1584,0.5119 0.1052,0.1051 0.276,0.1582 0.5119,0.1582 h 6.1981 c 1.3897,0 2.3483,-0.2885 2.876,-0.8655 0.527,-0.5771 0.7908,-1.3249 0.7908,-2.243 v -0.8562 c 0,-0.5212 -0.0777,-0.9651 -0.2327,-1.3309 -0.1551,-0.3662 -0.425,-0.63 -0.8094,-0.791 0.6701,-0.0745 1.2127,-0.3476 1.6287,-0.819 0.4155,-0.4719 0.6233,-1.0982 0.6233,-1.88 v -3.9461 c 0,-0.2359 -0.0528,-0.4067 -0.158,-0.5118 -0.1056,-0.1057 -0.2764,-0.1582 -0.5119,-0.1582 h -2.8853 c -0.2359,0 -0.4065,0.0525 -0.5119,0.1582 -0.1054,0.1051 -0.1582,0.2759 -0.1582,0.5118 v 2.8479 c 0,0.2727 -0.0528,0.4747 -0.158,0.605 -0.1058,0.1302 -0.2887,0.1954 -0.5493,0.1954 h -2.6059 v -3.6483 c 0,-0.2359 -0.053,-0.4067 -0.1582,-0.5118 -0.1056,-0.1057 -0.2762,-0.1582 -0.5119,-0.1582"
       style="fill:#231f20;fill-opacity:1;fill-rule:nonzero;stroke:none"
       id="path614" />
    <g
       id="g616"
       transform="matrix(0.2326687,0,0,0.2326687,238.9885,773.5521)">
      <path
         d="m 0,0 v -10.24 h 6 c 1.387,0 2.32,0.36 2.801,1.08 0.479,0.72 0.72,1.612 0.72,2.68 v 2.72 c 0,1.066 -0.241,1.96 -0.72,2.68 C 8.32,-0.36 7.387,0 6,0 Z m -2.88,-43.2 h -12.319 c -1.014,0 -1.748,0.226 -2.2,0.68 -0.455,0.452 -0.681,1.186 -0.681,2.2 v 51.84 c 0,1.012 0.226,1.746 0.681,2.2 0.452,0.452 1.186,0.68 2.2,0.68 H 11.44 c 5.973,0 10.093,-1.24 12.361,-3.72 C 26.066,8.2 27.2,4.986 27.2,1.04 v -3.68 c 0,-2.24 -0.334,-4.148 -1,-5.72 -0.667,-1.574 -1.827,-2.708 -3.479,-3.4 2.88,-0.32 5.212,-1.494 7,-3.52 1.786,-2.028 2.679,-4.72 2.679,-8.08 v -16.96 c 0,-1.014 -0.227,-1.748 -0.679,-2.2 -0.454,-0.454 -1.188,-0.68 -2.2,-0.68 H 17.12 c -1.014,0 -1.747,0.226 -2.2,0.68 -0.453,0.452 -0.68,1.186 -0.68,2.2 v 12.24 c 0,1.172 -0.227,2.04 -0.679,2.6 -0.455,0.56 -1.241,0.84 -2.361,0.84 H 0 v -15.68 c 0,-1.014 -0.228,-1.748 -0.68,-2.2 -0.454,-0.454 -1.187,-0.68 -2.2,-0.68 z"
         style="fill:none;stroke:#ffffff;stroke-width:1;stroke-linecap:butt;stroke-linejoin:miter;stroke-miterlimit:10;stroke-dasharray:none;stroke-opacity:1"
         id="path618" />
    </g>
    <path
       d="m 258.7561,763.5007 h -5.8631 c -1.5514,0 -2.7022,0.3102 -3.4528,0.9307 -0.751,0.6203 -1.1263,1.5756 -1.1263,2.8665 v 5.8074 c 0,1.2904 0.3753,2.2459 1.1263,2.8665 0.7506,0.6203 1.9014,0.9306 3.4528,0.9306 h 4.6534 c 0.2355,0 0.4063,-0.0528 0.5117,-0.1582 0.1054,-0.1056 0.1584,-0.2764 0.1584,-0.5119 v -2.2522 c 0,-0.2359 -0.053,-0.4067 -0.1584,-0.5119 -0.1054,-0.1056 -0.2762,-0.1582 -0.5117,-0.1582 h -3.8718 c -0.3846,0 -0.6701,-0.0777 -0.8562,-0.2326 -0.1859,-0.1552 -0.2792,-0.3879 -0.2792,-0.698 v -4.4487 c 0,-0.3104 0.0714,-0.5398 0.214,-0.6887 0.1426,-0.1489 0.3567,-0.2233 0.6424,-0.2233 h 1.8055 v 2.9037 c 0,0.2354 0.0524,0.4062 0.158,0.5118 0.1054,0.1052 0.2762,0.1583 0.5121,0.1583 h 2.8849 c 0.2357,0 0.4064,-0.0531 0.5118,-0.1583 0.1054,-0.1056 0.1585,-0.2764 0.1585,-0.5118 v -5.7516 c 0,-0.2359 -0.0531,-0.4067 -0.1585,-0.5119 -0.1054,-0.1056 -0.2761,-0.1582 -0.5118,-0.1582"
       style="fill:#231f20;fill-opacity:1;fill-rule:nonzero;stroke:none"
       id="path620" />
    <g
       id="g622"
       transform="matrix(0.2326687,0,0,0.2326687,258.7561,763.5007)">
      <path
         d="m 0,0 h -25.199 c -6.668,0 -11.614,1.333 -14.84,4 -3.228,2.666 -4.841,6.772 -4.841,12.32 v 24.96 c 0,5.546 1.613,9.653 4.841,12.32 3.226,2.666 8.172,4 14.84,4 h 20 c 1.012,0 1.746,-0.227 2.199,-0.68 0.453,-0.454 0.681,-1.188 0.681,-2.2 v -9.68 c 0,-1.014 -0.228,-1.748 -0.681,-2.2 -0.453,-0.454 -1.187,-0.68 -2.199,-0.68 H -21.84 c -1.653,0 -2.88,-0.334 -3.68,-1 -0.799,-0.667 -1.2,-1.667 -1.2,-3 V 19.04 c 0,-1.334 0.307,-2.32 0.92,-2.96 0.613,-0.64 1.533,-0.96 2.761,-0.96 h 7.76 V 27.6 c 0,1.012 0.225,1.746 0.679,2.2 0.453,0.452 1.187,0.68 2.201,0.68 H 0 c 1.013,0 1.747,-0.228 2.2,-0.68 0.453,-0.454 0.681,-1.188 0.681,-2.2 V 2.88 C 2.881,1.866 2.653,1.132 2.2,0.68 1.747,0.226 1.013,0 0,0 Z"
         style="fill:none;stroke:#ffffff;stroke-width:1;stroke-linecap:butt;stroke-linejoin:miter;stroke-miterlimit:10;stroke-dasharray:none;stroke-opacity:1"
         id="path624" />
    </g>
    <path
       d="m 142.1248,742.4596 c 0,-0.2482 0.0931,-0.456 0.2792,-0.6235 0.1862,-0.1675 0.6143,-0.2513 1.2844,-0.2513 0.6701,0 1.0982,0.0838 1.2843,0.2513 0.1861,0.1675 0.2792,0.3753 0.2792,0.6235 v 5.0071 c 0,0.2357 -0.0931,0.4374 -0.2792,0.6049 -0.1861,0.1675 -0.6142,0.2513 -1.2843,0.2513 -0.6701,0 -1.0982,-0.0838 -1.2844,-0.2513 -0.1861,-0.1675 -0.2792,-0.3692 -0.2792,-0.6049 z m 7.3338,-0.67 c 0,-0.571 -0.0838,-1.0889 -0.2513,-1.5543 -0.1675,-0.4653 -0.4654,-0.8627 -0.8935,-1.1912 -0.4281,-0.329 -1.0174,-0.5864 -1.7683,-0.7725 -0.751,-0.1861 -1.7031,-0.2792 -2.8571,-0.2792 -1.1541,0 -2.1096,0.0931 -2.8665,0.2792 -0.7571,0.1861 -1.3495,0.4435 -1.7776,0.7725 -0.4281,0.3285 -0.7259,0.7259 -0.8934,1.1912 -0.1676,0.4654 -0.2513,0.9833 -0.2513,1.5543 v 6.3472 c 0,0.5707 0.0837,1.0889 0.2513,1.5542 0.1675,0.4653 0.4653,0.8655 0.8934,1.2006 0.4281,0.335 1.0205,0.5956 1.7776,0.7817 0.7569,0.1862 1.7124,0.2792 2.8665,0.2792 1.154,0 2.1061,-0.093 2.8571,-0.2792 0.7509,-0.1861 1.3402,-0.4467 1.7683,-0.7817 0.4281,-0.3351 0.726,-0.7353 0.8935,-1.2006 0.1675,-0.4653 0.2513,-0.9835 0.2513,-1.5542 z"
       style="fill:#231f20;fill-opacity:1;fill-rule:nonzero;stroke:none"
       id="path626" />
    <g
       id="g628"
       transform="matrix(0.2326687,0,0,0.2326687,142.1248,742.4596)">
      <path
         d="M 0,0 C 0,-1.067 0.4,-1.96 1.2,-2.68 2,-3.4 3.84,-3.76 6.72,-3.76 c 2.88,0 4.72,0.36 5.52,1.08 0.8,0.72 1.2,1.613 1.2,2.68 v 21.52 c 0,1.013 -0.4,1.88 -1.2,2.6 C 11.44,24.84 9.6,25.2 6.72,25.2 3.84,25.2 2,24.84 1.2,24.12 0.4,23.4 0,22.533 0,21.52 Z m 31.52,-2.88 c 0,-2.454 -0.36,-4.68 -1.08,-6.68 -0.72,-2 -2,-3.708 -3.84,-5.12 -1.84,-1.414 -4.373,-2.52 -7.6,-3.32 -3.228,-0.8 -7.32,-1.2 -12.28,-1.2 -4.96,0 -9.067,0.4 -12.32,1.2 -3.254,0.8 -5.8,1.906 -7.64,3.32 -1.84,1.412 -3.12,3.12 -3.84,5.12 -0.72,2 -1.08,4.226 -1.08,6.68 V 24.4 c 0,2.453 0.36,4.68 1.08,6.68 0.72,2 2,3.72 3.84,5.16 1.84,1.44 4.386,2.56 7.64,3.36 3.253,0.8 7.36,1.2 12.32,1.2 4.96,0 9.052,-0.4 12.28,-1.2 3.227,-0.8 5.76,-1.92 7.6,-3.36 1.84,-1.44 3.12,-3.16 3.84,-5.16 0.72,-2 1.08,-4.227 1.08,-6.68 z"
         style="fill:none;stroke:#ffffff;stroke-width:1;stroke-linecap:butt;stroke-linejoin:miter;stroke-miterlimit:10;stroke-dasharray:none;stroke-opacity:1"
         id="path630" />
    </g>
    <path
       d="m 163.2324,741.7896 c 0,-0.571 -0.0836,-1.0889 -0.2511,-1.5542 -0.1677,-0.4654 -0.4653,-0.8628 -0.8937,-1.1913 -0.4281,-0.329 -1.0142,-0.5863 -1.7587,-0.7725 -0.7448,-0.1861 -1.6941,-0.2792 -2.8481,-0.2792 -1.154,0 -2.1033,0.0931 -2.8479,0.2792 -0.7443,0.1862 -1.3308,0.4435 -1.7589,0.7725 -0.4279,0.3285 -0.726,0.7259 -0.8933,1.1913 -0.1675,0.4653 -0.2512,0.9832 -0.2512,1.5542 v 9.2137 c 0,0.2354 0.0523,0.4062 0.1579,0.5118 0.1054,0.1052 0.2762,0.1583 0.5119,0.1583 h 2.9223 c 0.2357,0 0.4065,-0.0531 0.5119,-0.1583 0.1054,-0.1056 0.1584,-0.2764 0.1584,-0.5118 v -8.4878 c 0,-0.2485 0.0929,-0.456 0.279,-0.6235 0.1864,-0.1676 0.6019,-0.2513 1.2471,-0.2513 0.6578,0 1.0796,0.0837 1.266,0.2513 0.1861,0.1675 0.2789,0.375 0.2789,0.6235 v 8.4878 c 0,0.2354 0.0529,0.4062 0.1585,0.5118 0.1052,0.1052 0.2757,0.1583 0.5116,0.1583 h 2.8293 c 0.2357,0 0.4062,-0.0531 0.5118,-0.1583 0.1052,-0.1056 0.1583,-0.2764 0.1583,-0.5118 z"
       style="fill:#231f20;fill-opacity:1;fill-rule:nonzero;stroke:none"
       id="path632" />
    <g
       id="g634"
       transform="matrix(0.2326687,0,0,0.2326687,163.2324,741.7896)">
      <path
         d="m 0,0 c 0,-2.454 -0.359,-4.68 -1.079,-6.68 -0.721,-2 -2,-3.708 -3.841,-5.12 -1.84,-1.414 -4.359,-2.52 -7.559,-3.32 -3.201,-0.8 -7.281,-1.2 -12.241,-1.2 -4.96,0 -9.04,0.4 -12.24,1.2 -3.199,0.8 -5.72,1.906 -7.56,3.32 -1.839,1.412 -3.12,3.12 -3.839,5.12 -0.72,2 -1.08,4.226 -1.08,6.68 v 39.6 c 0,1.012 0.225,1.746 0.679,2.2 0.453,0.452 1.187,0.68 2.2,0.68 H -34 c 1.013,0 1.747,-0.228 2.2,-0.68 0.453,-0.454 0.681,-1.188 0.681,-2.2 V 3.12 c 0,-1.068 0.399,-1.96 1.199,-2.68 0.801,-0.72 2.587,-1.08 5.36,-1.08 2.827,0 4.64,0.36 5.441,1.08 0.8,0.72 1.199,1.612 1.199,2.68 V 39.6 c 0,1.012 0.227,1.746 0.681,2.2 0.452,0.452 1.185,0.68 2.199,0.68 h 12.16 c 1.013,0 1.746,-0.228 2.2,-0.68 C -0.228,41.346 0,40.612 0,39.6 Z"
         style="fill:none;stroke:#ffffff;stroke-width:1;stroke-linecap:butt;stroke-linejoin:miter;stroke-miterlimit:10;stroke-dasharray:none;stroke-opacity:1"
         id="path636" />
    </g>
    <path
       d="m 172.0363,738.2716 h -3.0154 c -0.2359,0 -0.4065,0.0526 -0.5119,0.1582 -0.1054,0.1052 -0.1582,0.276 -0.1582,0.5119 v 9.1392 h -2.7362 c -0.2357,0 -0.4067,0.0526 -0.5118,0.1582 -0.1057,0.1052 -0.158,0.276 -0.158,0.5119 v 2.2522 c 0,0.2355 0.0523,0.4063 0.158,0.5119 0.1051,0.1054 0.2761,0.1582 0.5118,0.1582 h 9.8282 c 0.2352,0 0.4062,-0.0528 0.5116,-0.1582 0.1054,-0.1056 0.1585,-0.2764 0.1585,-0.5119 v -2.2522 c 0,-0.2359 -0.0531,-0.4067 -0.1585,-0.5119 -0.1054,-0.1056 -0.2764,-0.1582 -0.5116,-0.1582 h -2.7364 v -9.1392 c 0,-0.2359 -0.0531,-0.4067 -0.1582,-0.5119 -0.1057,-0.1056 -0.2762,-0.1582 -0.5119,-0.1582"
       style="fill:#231f20;fill-opacity:1;fill-rule:nonzero;stroke:none"
       id="path638" />
    <g
       id="g640"
       transform="matrix(0.2326687,0,0,0.2326687,172.0363,738.2716)">
      <path
         d="m 0,0 h -12.96 c -1.014,0 -1.747,0.226 -2.2,0.68 -0.453,0.452 -0.68,1.186 -0.68,2.2 V 42.16 H -27.6 c -1.013,0 -1.748,0.226 -2.2,0.68 -0.454,0.452 -0.679,1.186 -0.679,2.2 v 9.68 c 0,1.012 0.225,1.746 0.679,2.2 0.452,0.453 1.187,0.68 2.2,0.68 h 42.241 c 1.011,0 1.746,-0.227 2.199,-0.68 0.453,-0.454 0.681,-1.188 0.681,-2.2 v -9.68 c 0,-1.014 -0.228,-1.748 -0.681,-2.2 -0.453,-0.454 -1.188,-0.68 -2.199,-0.68 H 2.88 V 2.88 C 2.88,1.866 2.652,1.132 2.2,0.68 1.746,0.226 1.013,0 0,0 Z"
         style="fill:none;stroke:#ffffff;stroke-width:1;stroke-linecap:butt;stroke-linejoin:miter;stroke-miterlimit:10;stroke-dasharray:none;stroke-opacity:1"
         id="path642" />
    </g>
    <path
       d="m 181.4732,738.2716 h -2.8848 c -0.2359,0 -0.4067,0.0526 -0.5121,0.1582 -0.1057,0.1052 -0.1582,0.276 -0.1582,0.5119 v 12.0615 c 0,0.2355 0.0525,0.4063 0.1582,0.5119 0.1054,0.1054 0.2762,0.1582 0.5121,0.1582 h 2.8848 c 0.2357,0 0.4063,-0.0528 0.5119,-0.1582 0.1052,-0.1056 0.1582,-0.2764 0.1582,-0.5119 v -4.0391 h 3.1085 v 4.0391 c 0,0.2355 0.0528,0.4063 0.1582,0.5119 0.1054,0.1054 0.2759,0.1582 0.5119,0.1582 h 2.8853 c 0.2352,0 0.4062,-0.0528 0.5116,-0.1582 0.1054,-0.1056 0.1582,-0.2764 0.1582,-0.5119 v -12.0615 c 0,-0.2359 -0.0528,-0.4067 -0.1582,-0.5119 -0.1054,-0.1056 -0.2764,-0.1582 -0.5116,-0.1582 h -2.8853 c -0.236,0 -0.4065,0.0526 -0.5119,0.1582 -0.1054,0.1052 -0.1582,0.276 -0.1582,0.5119 v 4.1322 h -3.1085 v -4.1322 c 0,-0.2359 -0.053,-0.4067 -0.1582,-0.5119 -0.1056,-0.1056 -0.2762,-0.1582 -0.5119,-0.1582"
       style="fill:#231f20;fill-opacity:1;fill-rule:nonzero;stroke:none"
       id="path644" />
    <g
       id="g646"
       transform="matrix(0.2326687,0,0,0.2326687,181.4732,738.2716)">
      <path
         d="m 0,0 h -12.399 c -1.014,0 -1.748,0.226 -2.201,0.68 -0.454,0.452 -0.68,1.186 -0.68,2.2 v 51.84 c 0,1.012 0.226,1.746 0.68,2.2 0.453,0.453 1.187,0.68 2.201,0.68 L 0,57.6 c 1.013,0 1.746,-0.227 2.2,-0.68 0.452,-0.454 0.68,-1.188 0.68,-2.2 V 37.36 h 13.36 v 17.36 c 0,1.012 0.227,1.746 0.68,2.2 0.453,0.453 1.186,0.68 2.2,0.68 h 12.401 c 1.011,0 1.746,-0.227 2.199,-0.68 0.453,-0.454 0.68,-1.188 0.68,-2.2 V 2.88 C 34.4,1.866 34.173,1.132 33.72,0.68 33.267,0.226 32.532,0 31.521,0 H 19.12 c -1.014,0 -1.747,0.226 -2.2,0.68 -0.453,0.452 -0.68,1.186 -0.68,2.2 V 20.64 H 2.88 V 2.88 C 2.88,1.866 2.652,1.132 2.2,0.68 1.746,0.226 1.013,0 0,0 Z"
         style="fill:none;stroke:#ffffff;stroke-width:1;stroke-linecap:butt;stroke-linejoin:miter;stroke-miterlimit:10;stroke-dasharray:none;stroke-opacity:1"
         id="path648" />
    </g>
    <path
       d="m 142.1248,716.7524 c 0,-0.2483 0.0931,-0.4561 0.2792,-0.6238 0.1862,-0.1673 0.6143,-0.2511 1.2844,-0.2511 0.6701,0 1.0982,0.0838 1.2843,0.2511 0.1861,0.1677 0.2792,0.3755 0.2792,0.6238 v 5.007 c 0,0.2355 -0.0931,0.4372 -0.2792,0.6049 -0.1861,0.1676 -0.6142,0.2513 -1.2843,0.2513 -0.6701,0 -1.0982,-0.0837 -1.2844,-0.2513 -0.1861,-0.1677 -0.2792,-0.3694 -0.2792,-0.6049 z m 7.3338,-0.6701 c 0,-0.571 -0.0838,-1.0891 -0.2513,-1.5545 -0.1675,-0.4653 -0.4654,-0.8625 -0.8935,-1.1912 -0.4281,-0.3288 -1.0174,-0.5861 -1.7683,-0.7723 -0.751,-0.1861 -1.7031,-0.2792 -2.8571,-0.2792 -1.1541,0 -2.1096,0.0931 -2.8665,0.2792 -0.7571,0.1862 -1.3495,0.4435 -1.7776,0.7723 -0.4281,0.3287 -0.7259,0.7259 -0.8934,1.1912 -0.1676,0.4654 -0.2513,0.9835 -0.2513,1.5545 v 6.3469 c 0,0.571 0.0837,1.0892 0.2513,1.5545 0.1675,0.4653 0.4653,0.8655 0.8934,1.2006 0.4281,0.335 1.0205,0.5954 1.7776,0.7817 0.7569,0.1859 1.7124,0.279 2.8665,0.279 1.154,0 2.1061,-0.0931 2.8571,-0.279 0.7509,-0.1863 1.3402,-0.4467 1.7683,-0.7817 0.4281,-0.3351 0.726,-0.7353 0.8935,-1.2006 0.1675,-0.4653 0.2513,-0.9835 0.2513,-1.5545 z"
       style="fill:#231f20;fill-opacity:1;fill-rule:nonzero;stroke:none"
       id="path650" />
    <g
       id="g652"
       transform="matrix(0.2326687,0,0,0.2326687,142.1248,716.7524)">
      <path
         d="M 0,0 C 0,-1.067 0.4,-1.96 1.2,-2.681 2,-3.4 3.84,-3.76 6.72,-3.76 c 2.88,0 4.72,0.36 5.52,1.079 0.8,0.721 1.2,1.614 1.2,2.681 v 21.52 c 0,1.012 -0.4,1.879 -1.2,2.6 C 11.44,24.84 9.6,25.2 6.72,25.2 3.84,25.2 2,24.84 1.2,24.12 0.4,23.399 0,22.532 0,21.52 Z m 31.52,-2.88 c 0,-2.454 -0.36,-4.681 -1.08,-6.681 -0.72,-2 -2,-3.707 -3.84,-5.12 C 24.76,-16.094 22.227,-17.2 19,-18 c -3.228,-0.8 -7.32,-1.2 -12.28,-1.2 -4.96,0 -9.067,0.4 -12.32,1.2 -3.254,0.8 -5.8,1.906 -7.64,3.319 -1.84,1.413 -3.12,3.12 -3.84,5.12 -0.72,2 -1.08,4.227 -1.08,6.681 v 27.279 c 0,2.454 0.36,4.681 1.08,6.681 0.72,2 2,3.72 3.84,5.16 1.84,1.44 4.386,2.559 7.64,3.36 3.253,0.799 7.36,1.199 12.32,1.199 4.96,0 9.052,-0.4 12.28,-1.199 3.227,-0.801 5.76,-1.92 7.6,-3.36 1.84,-1.44 3.12,-3.16 3.84,-5.16 0.72,-2 1.08,-4.227 1.08,-6.681 z"
         style="fill:none;stroke:#ffffff;stroke-width:1;stroke-linecap:butt;stroke-linejoin:miter;stroke-miterlimit:10;stroke-dasharray:none;stroke-opacity:1"
         id="path654" />
    </g>
    <path
       d="m 156.0106,717.925 v -2.1964 h 2.4197 c 0.2357,0 0.4125,0.0619 0.5307,0.1859 0.1178,0.1243 0.1766,0.3102 0.1766,0.5587 v 0.7259 c 0,0.248 -0.0588,0.4309 -0.1766,0.5489 -0.1182,0.1179 -0.295,0.177 -0.5307,0.177 z m 0,4.8768 v -2.0105 h 1.5823 c 0.2353,0 0.4123,0.0621 0.5303,0.1863 0.118,0.1238 0.1771,0.31 0.1771,0.5585 v 0.5211 c 0,0.2481 -0.0591,0.4342 -0.1771,0.5584 -0.118,0.1238 -0.295,0.1862 -0.5303,0.1862 z m 3.6298,-10.2375 h -7.1476 c -0.2359,0 -0.4067,0.0526 -0.5118,0.1583 -0.1057,0.1051 -0.1585,0.2759 -0.1585,0.5118 v 12.0616 c 0,0.2354 0.0528,0.4062 0.1585,0.5116 0.1051,0.1054 0.2759,0.1585 0.5118,0.1585 h 5.9375 c 1.2162,0 2.1157,-0.2327 2.699,-0.698 0.5833,-0.4654 0.875,-1.1822 0.875,-2.1501 v -0.8935 c 0,-0.5212 -0.0902,-0.9462 -0.2699,-1.2748 -0.18,-0.329 -0.456,-0.5742 -0.8285,-0.7352 0.7941,-0.0745 1.3835,-0.3476 1.7685,-0.8192 0.3844,-0.4717 0.5768,-1.1604 0.5768,-2.0661 v -1.7122 c 0,-1.0424 -0.2948,-1.8121 -0.8841,-2.3081 -0.5894,-0.4965 -1.4982,-0.7446 -2.7267,-0.7446"
       style="fill:#231f20;fill-opacity:1;fill-rule:nonzero;stroke:none"
       id="path656" />
    <g
       id="g658"
       transform="matrix(0.2326687,0,0,0.2326687,156.0106,717.925)">
      <path
         d="m 0,0 v -9.44 h 10.4 c 1.013,0 1.773,0.266 2.281,0.799 0.506,0.534 0.759,1.333 0.759,2.401 v 3.12 c 0,1.066 -0.253,1.852 -0.759,2.359 C 12.173,-0.254 11.413,0 10.4,0 Z m 0,20.96 v -8.641 h 6.801 c 1.011,0 1.772,0.267 2.279,0.801 0.507,0.532 0.761,1.332 0.761,2.4 v 2.24 c 0,1.066 -0.254,1.866 -0.761,2.4 -0.507,0.532 -1.268,0.8 -2.279,0.8 z m 15.601,-44 h -30.72 c -1.014,0 -1.748,0.226 -2.2,0.68 -0.454,0.452 -0.681,1.186 -0.681,2.2 v 51.84 c 0,1.012 0.227,1.746 0.681,2.199 0.452,0.453 1.186,0.681 2.2,0.681 H 10.4 c 5.227,0 9.093,-1 11.6,-3 2.507,-2 3.761,-5.081 3.761,-9.241 v -3.84 c 0,-2.24 -0.388,-4.067 -1.16,-5.479 -0.774,-1.414 -1.96,-2.468 -3.561,-3.16 3.413,-0.32 5.946,-1.494 7.601,-3.521 1.652,-2.027 2.479,-4.987 2.479,-8.88 V -9.92 c 0,-4.48 -1.267,-7.788 -3.8,-9.92 -2.533,-2.134 -6.439,-3.2 -11.719,-3.2 z"
         style="fill:none;stroke:#ffffff;stroke-width:1;stroke-linecap:butt;stroke-linejoin:miter;stroke-miterlimit:10;stroke-dasharray:none;stroke-opacity:1"
         id="path660" />
    </g>
    <path
       d="m 169.3377,716.7524 c 0,-0.2483 0.093,-0.4561 0.2792,-0.6238 0.1861,-0.1673 0.6142,-0.2511 1.2843,-0.2511 0.6703,0 1.0982,0.0838 1.2843,0.2511 0.1862,0.1677 0.2792,0.3755 0.2792,0.6238 v 5.007 c 0,0.2355 -0.093,0.4372 -0.2792,0.6049 -0.1861,0.1676 -0.614,0.2513 -1.2843,0.2513 -0.6701,0 -1.0982,-0.0837 -1.2843,-0.2513 -0.1862,-0.1677 -0.2792,-0.3694 -0.2792,-0.6049 z m 7.3339,-0.6701 c 0,-0.571 -0.084,-1.0891 -0.2515,-1.5545 -0.1675,-0.4653 -0.4653,-0.8625 -0.8932,-1.1912 -0.4284,-0.3288 -1.0177,-0.5861 -1.7685,-0.7723 -0.7511,-0.1861 -1.7029,-0.2792 -2.8572,-0.2792 -1.154,0 -2.1098,0.0931 -2.8665,0.2792 -0.7571,0.1862 -1.3492,0.4435 -1.7776,0.7723 -0.4281,0.3287 -0.7257,0.7259 -0.8934,1.1912 -0.1675,0.4654 -0.2513,0.9835 -0.2513,1.5545 v 6.3469 c 0,0.571 0.0838,1.0892 0.2513,1.5545 0.1677,0.4653 0.4653,0.8655 0.8934,1.2006 0.4284,0.335 1.0205,0.5954 1.7776,0.7817 0.7567,0.1859 1.7125,0.279 2.8665,0.279 1.1543,0 2.1061,-0.0931 2.8572,-0.279 0.7508,-0.1863 1.3401,-0.4467 1.7685,-0.7817 0.4279,-0.3351 0.7257,-0.7353 0.8932,-1.2006 0.1675,-0.4653 0.2515,-0.9835 0.2515,-1.5545 z"
       style="fill:#231f20;fill-opacity:1;fill-rule:nonzero;stroke:none"
       id="path662" />
    <g
       id="g664"
       transform="matrix(0.2326687,0,0,0.2326687,169.3377,716.7524)">
      <path
         d="M 0,0 C 0,-1.067 0.4,-1.96 1.2,-2.681 2,-3.4 3.84,-3.76 6.72,-3.76 c 2.881,0 4.72,0.36 5.52,1.079 0.8,0.721 1.2,1.614 1.2,2.681 v 21.52 c 0,1.012 -0.4,1.879 -1.2,2.6 C 11.44,24.84 9.601,25.2 6.72,25.2 3.84,25.2 2,24.84 1.2,24.12 0.4,23.399 0,22.532 0,21.52 Z m 31.521,-2.88 c 0,-2.454 -0.361,-4.681 -1.081,-6.681 -0.72,-2 -2,-3.707 -3.839,-5.12 C 24.76,-16.094 22.227,-17.2 19,-18 c -3.228,-0.8 -7.319,-1.2 -12.28,-1.2 -4.96,0 -9.068,0.4 -12.32,1.2 -3.254,0.8 -5.799,1.906 -7.64,3.319 -1.84,1.413 -3.119,3.12 -3.84,5.12 -0.72,2 -1.08,4.227 -1.08,6.681 v 27.279 c 0,2.454 0.36,4.681 1.08,6.681 0.721,2 2,3.72 3.84,5.16 1.841,1.44 4.386,2.559 7.64,3.36 3.252,0.799 7.36,1.199 12.32,1.199 4.961,0 9.052,-0.4 12.28,-1.199 3.227,-0.801 5.76,-1.92 7.601,-3.36 1.839,-1.44 3.119,-3.16 3.839,-5.16 0.72,-2 1.081,-4.227 1.081,-6.681 z"
         style="fill:none;stroke:#ffffff;stroke-width:1;stroke-linecap:butt;stroke-linejoin:miter;stroke-miterlimit:10;stroke-dasharray:none;stroke-opacity:1"
         id="path666" />
    </g>
    <path
       d="m 185.2709,712.5643 h -3.0154 c -0.2359,0 -0.4065,0.0526 -0.5119,0.1582 -0.1054,0.1052 -0.1582,0.276 -0.1582,0.5119 v 9.1392 h -2.7361 c -0.2357,0 -0.4068,0.0526 -0.5119,0.1583 -0.1057,0.1051 -0.158,0.2759 -0.158,0.5118 v 2.2523 c 0,0.2354 0.0523,0.4062 0.158,0.5116 0.1051,0.1054 0.2762,0.1584 0.5119,0.1584 h 9.8281 c 0.2352,0 0.4062,-0.053 0.5116,-0.1584 0.1054,-0.1054 0.1585,-0.2762 0.1585,-0.5116 v -2.2523 c 0,-0.2359 -0.0531,-0.4067 -0.1585,-0.5118 -0.1054,-0.1057 -0.2764,-0.1583 -0.5116,-0.1583 h -2.7364 v -9.1392 c 0,-0.2359 -0.0531,-0.4067 -0.1582,-0.5119 -0.1057,-0.1056 -0.2762,-0.1582 -0.5119,-0.1582"
       style="fill:#231f20;fill-opacity:1;fill-rule:nonzero;stroke:none"
       id="path668" />
    <g
       id="g670"
       transform="matrix(0.2326687,0,0,0.2326687,185.2709,712.5643)">
      <path
         d="m 0,0 h -12.96 c -1.014,0 -1.747,0.226 -2.2,0.68 -0.453,0.452 -0.68,1.186 -0.68,2.2 V 42.16 H -27.6 c -1.013,0 -1.748,0.226 -2.2,0.68 -0.454,0.452 -0.679,1.186 -0.679,2.2 v 9.68 c 0,1.012 0.225,1.746 0.679,2.199 0.452,0.453 1.187,0.681 2.2,0.681 h 42.241 c 1.011,0 1.746,-0.228 2.199,-0.681 0.453,-0.453 0.681,-1.187 0.681,-2.199 v -9.68 c 0,-1.014 -0.228,-1.748 -0.681,-2.2 -0.453,-0.454 -1.188,-0.68 -2.199,-0.68 H 2.88 V 2.88 C 2.88,1.866 2.652,1.132 2.2,0.68 1.746,0.226 1.013,0 0,0 Z"
         style="fill:none;stroke:#ffffff;stroke-width:1;stroke-linecap:butt;stroke-linejoin:miter;stroke-miterlimit:10;stroke-dasharray:none;stroke-opacity:1"
         id="path672" />
    </g>
    <path
       d="m 191.525,712.5643 c -0.2359,0 -0.4067,0.0526 -0.5119,0.1582 -0.1056,0.1052 -0.1582,0.276 -0.1582,0.5119 v 2.2148 c 0,0.2357 0.0526,0.4065 0.1582,0.5121 0.1052,0.1054 0.276,0.158 0.5119,0.158 h 1.8428 v 6.2543 h -1.8428 c -0.2359,0 -0.4067,0.0526 -0.5119,0.1583 -0.1056,0.1051 -0.1582,0.2759 -0.1582,0.5118 v 2.2523 c 0,0.2354 0.0526,0.4062 0.1582,0.5116 0.1052,0.1054 0.276,0.1584 0.5119,0.1584 h 7.9294 c 0.2357,0 0.4062,-0.053 0.5118,-0.1584 0.1052,-0.1054 0.1583,-0.2762 0.1583,-0.5116 v -2.2523 c 0,-0.2359 -0.0531,-0.4067 -0.1583,-0.5118 -0.1056,-0.1057 -0.2761,-0.1583 -0.5118,-0.1583 h -1.8055 v -6.2543 h 1.8055 c 0.2357,0 0.4062,-0.0526 0.5118,-0.158 0.1052,-0.1056 0.1583,-0.2764 0.1583,-0.5121 v -2.2148 c 0,-0.2359 -0.0531,-0.4067 -0.1583,-0.5119 -0.1056,-0.1056 -0.2761,-0.1582 -0.5118,-0.1582 z"
       style="fill:#231f20;fill-opacity:1;fill-rule:nonzero;stroke:none"
       id="path674" />
    <g
       id="g676"
       transform="matrix(0.2326687,0,0,0.2326687,191.525,712.5643)">
      <path
         d="m 0,0 c -1.014,0 -1.748,0.226 -2.2,0.68 -0.454,0.452 -0.68,1.186 -0.68,2.2 v 9.519 c 0,1.013 0.226,1.747 0.68,2.201 0.452,0.453 1.186,0.679 2.2,0.679 H 7.92 V 42.16 H 0 c -1.014,0 -1.748,0.226 -2.2,0.68 -0.454,0.452 -0.68,1.186 -0.68,2.2 v 9.68 c 0,1.012 0.226,1.746 0.68,2.199 0.452,0.453 1.186,0.681 2.2,0.681 h 34.08 c 1.013,0 1.746,-0.228 2.2,-0.681 0.452,-0.453 0.68,-1.187 0.68,-2.199 v -9.68 c 0,-1.014 -0.228,-1.748 -0.68,-2.2 -0.454,-0.454 -1.187,-0.68 -2.2,-0.68 H 26.32 V 15.279 h 7.76 c 1.013,0 1.746,-0.226 2.2,-0.679 0.452,-0.454 0.68,-1.188 0.68,-2.201 V 2.88 C 36.96,1.866 36.732,1.132 36.28,0.68 35.826,0.226 35.093,0 34.08,0 Z"
         style="fill:none;stroke:#ffffff;stroke-width:1;stroke-linecap:butt;stroke-linejoin:miter;stroke-miterlimit:10;stroke-dasharray:none;stroke-opacity:1"
         id="path678" />
    </g>
    <path
       d="m 211.3296,712.5643 h -4.5417 c -1.5512,0 -2.7022,0.3099 -3.4526,0.9307 -0.751,0.6203 -1.1263,1.5756 -1.1263,2.8662 v 5.7891 c 0,1.2904 0.3753,2.249 1.1263,2.8758 0.7504,0.6263 1.9014,0.9399 3.4526,0.9399 h 4.5417 c 0.2357,0 0.4062,-0.053 0.5119,-0.1584 0.1051,-0.1054 0.1582,-0.2762 0.1582,-0.5116 v -2.2523 c 0,-0.2359 -0.0531,-0.4067 -0.1582,-0.5118 -0.1057,-0.1057 -0.2762,-0.1583 -0.5119,-0.1583 h -3.7413 c -0.3846,0 -0.6701,-0.0777 -0.8562,-0.2326 -0.1862,-0.1555 -0.2792,-0.3881 -0.2792,-0.698 v -4.43 c 0,-0.3104 0.093,-0.537 0.2792,-0.6794 0.1861,-0.1429 0.4716,-0.2143 0.8562,-0.2143 h 3.7413 c 0.2357,0 0.4062,-0.0526 0.5119,-0.158 0.1051,-0.1056 0.1582,-0.2764 0.1582,-0.5121 v -2.2148 c 0,-0.2359 -0.0531,-0.4067 -0.1582,-0.5119 -0.1057,-0.1056 -0.2762,-0.1582 -0.5119,-0.1582"
       style="fill:#231f20;fill-opacity:1;fill-rule:nonzero;stroke:none"
       id="path680" />
    <g
       id="g682"
       transform="matrix(0.2326687,0,0,0.2326687,211.3296,712.5643)">
      <path
         d="m 0,0 h -19.52 c -6.667,0 -11.614,1.332 -14.839,4 -3.228,2.666 -4.841,6.772 -4.841,12.319 V 41.2 c 0,5.546 1.613,9.666 4.841,12.36 3.225,2.692 8.172,4.04 14.839,4.04 H 0 c 1.013,0 1.746,-0.228 2.2,-0.681 0.452,-0.453 0.68,-1.187 0.68,-2.199 V 45.04 C 2.88,44.026 2.652,43.292 2.2,42.84 1.746,42.386 1.013,42.16 0,42.16 h -16.08 c -1.653,0 -2.88,-0.334 -3.68,-1 -0.8,-0.668 -1.2,-1.668 -1.2,-3 V 19.12 c 0,-1.334 0.4,-2.308 1.2,-2.92 0.8,-0.614 2.027,-0.921 3.68,-0.921 H 0 c 1.013,0 1.746,-0.226 2.2,-0.679 0.452,-0.454 0.68,-1.188 0.68,-2.201 V 2.88 C 2.88,1.866 2.652,1.132 2.2,0.68 1.746,0.226 1.013,0 0,0 Z"
         style="fill:none;stroke:#ffffff;stroke-width:1;stroke-linecap:butt;stroke-linejoin:miter;stroke-miterlimit:10;stroke-dasharray:none;stroke-opacity:1"
         id="path684" />
    </g>
    <path
       d="m 220.3198,712.5643 h -5.8818 c -0.236,0 -0.4065,0.0526 -0.5119,0.1582 -0.1056,0.1052 -0.1582,0.276 -0.1582,0.5119 v 2.1778 c 0,0.2355 0.0526,0.4062 0.1582,0.5116 0.1054,0.1057 0.2759,0.1585 0.5119,0.1585 h 5.007 c 0.1612,0 0.282,0.0526 0.3629,0.1582 0.0806,0.1052 0.1208,0.2327 0.1208,0.3813 0,0.2111 -0.0402,0.3663 -0.1208,0.4654 -0.0809,0.0993 -0.2017,0.1552 -0.3629,0.1677 l -2.792,0.3909 c -0.8688,0.1238 -1.5668,0.4095 -2.0941,0.8562 -0.5274,0.4465 -0.791,1.1913 -0.791,2.2336 v 1.9545 c 0,1.0547 0.3411,1.8641 1.0237,2.429 0.6822,0.5645 1.6254,0.8469 2.829,0.8469 h 5.212 c 0.2357,0 0.4063,-0.053 0.5119,-0.1584 0.1052,-0.1054 0.1582,-0.2762 0.1582,-0.5116 v -2.215 c 0,-0.236 -0.053,-0.4068 -0.1582,-0.5119 -0.1056,-0.1057 -0.2762,-0.1585 -0.5119,-0.1585 h -4.3369 c -0.1615,0 -0.2855,-0.0528 -0.3723,-0.158 -0.087,-0.1056 -0.1303,-0.2391 -0.1303,-0.4001 0,-0.1615 0.0433,-0.2979 0.1303,-0.4095 0.0868,-0.1117 0.2108,-0.1741 0.3723,-0.1864 l 2.7734,-0.372 c 0.8683,-0.1243 1.5696,-0.4095 2.1033,-0.8563 0.5333,-0.4467 0.8004,-1.1912 0.8004,-2.2338 v -1.9542 c 0,-1.0549 -0.3443,-1.8646 -1.033,-2.4291 -0.6887,-0.5649 -1.6287,-0.8469 -2.82,-0.8469"
       style="fill:#231f20;fill-opacity:1;fill-rule:nonzero;stroke:none"
       id="path686" />
    <g
       id="g688"
       transform="matrix(0.2326687,0,0,0.2326687,220.3198,712.5643)">
      <path
         d="m 0,0 h -25.28 c -1.014,0 -1.747,0.226 -2.2,0.68 -0.454,0.452 -0.68,1.186 -0.68,2.2 v 9.36 c 0,1.012 0.226,1.746 0.68,2.199 0.453,0.454 1.186,0.681 2.2,0.681 h 21.52 c 0.693,0 1.212,0.226 1.56,0.68 0.346,0.452 0.519,1 0.519,1.639 0,0.907 -0.173,1.574 -0.519,2 -0.348,0.427 -0.867,0.667 -1.56,0.721 l -12,1.68 c -3.734,0.532 -6.734,1.76 -9,3.68 -2.267,1.919 -3.4,5.12 -3.4,9.6 v 8.4 c 0,4.533 1.466,8.012 4.4,10.44 2.932,2.426 6.986,3.64 12.159,3.64 H 10.8 c 1.013,0 1.746,-0.228 2.2,-0.681 0.452,-0.453 0.68,-1.187 0.68,-2.199 V 45.2 C 13.68,44.186 13.452,43.452 13,43 12.546,42.546 11.813,42.319 10.8,42.319 H -7.84 c -0.694,0 -1.227,-0.227 -1.6,-0.679 -0.374,-0.454 -0.56,-1.028 -0.56,-1.72 0,-0.694 0.186,-1.28 0.56,-1.76 0.373,-0.48 0.906,-0.748 1.6,-0.801 L 4.08,35.76 c 3.732,-0.534 6.746,-1.76 9.04,-3.68 2.292,-1.92 3.44,-5.12 3.44,-9.601 V 14.08 C 16.56,9.546 15.08,6.066 12.12,3.64 9.16,1.212 5.12,0 0,0 Z"
         style="fill:none;stroke:#ffffff;stroke-width:1;stroke-linecap:butt;stroke-linejoin:miter;stroke-miterlimit:10;stroke-dasharray:none;stroke-opacity:1"
         id="path690" />
    </g>
    <path
       d="m 141.6595,687.5077 h -2.8851 c -0.2359,0 -0.4065,0.0526 -0.5119,0.1582 -0.1056,0.1052 -0.1582,0.2759 -0.1582,0.5119 v 12.0615 c 0,0.2355 0.0526,0.4062 0.1582,0.5119 0.1054,0.1051 0.276,0.1582 0.5119,0.1582 h 2.8851 c 0.2357,0 0.4065,-0.0531 0.5119,-0.1582 0.1054,-0.1057 0.1582,-0.2764 0.1582,-0.5119 v -4.0394 h 3.1084 v 4.0394 c 0,0.2355 0.0526,0.4062 0.1583,0.5119 0.1054,0.1051 0.2759,0.1582 0.5118,0.1582 h 2.8851 c 0.2357,0 0.4065,-0.0531 0.5119,-0.1582 0.1054,-0.1057 0.1582,-0.2764 0.1582,-0.5119 v -12.0615 c 0,-0.236 -0.0528,-0.4067 -0.1582,-0.5119 -0.1054,-0.1056 -0.2762,-0.1582 -0.5119,-0.1582 h -2.8851 c -0.2359,0 -0.4064,0.0526 -0.5118,0.1582 -0.1057,0.1052 -0.1583,0.2759 -0.1583,0.5119 v 4.1322 h -3.1084 v -4.1322 c 0,-0.236 -0.0528,-0.4067 -0.1582,-0.5119 -0.1054,-0.1056 -0.2762,-0.1582 -0.5119,-0.1582"
       style="fill:#231f20;fill-opacity:1;fill-rule:nonzero;stroke:none"
       id="path692" />
    <g
       id="g694"
       transform="matrix(0.2326687,0,0,0.2326687,141.6595,687.5077)">
      <path
         d="m 0,0 h -12.4 c -1.014,0 -1.747,0.226 -2.2,0.68 -0.454,0.452 -0.68,1.186 -0.68,2.2 v 51.84 c 0,1.012 0.226,1.746 0.68,2.2 0.453,0.452 1.186,0.68 2.2,0.68 H 0 c 1.013,0 1.747,-0.228 2.2,-0.68 0.453,-0.454 0.68,-1.188 0.68,-2.2 V 37.359 H 16.24 V 54.72 c 0,1.012 0.226,1.746 0.68,2.2 0.453,0.452 1.186,0.68 2.2,0.68 h 12.4 c 1.013,0 1.747,-0.228 2.2,-0.68 0.453,-0.454 0.68,-1.188 0.68,-2.2 V 2.88 C 34.4,1.866 34.173,1.132 33.72,0.68 33.267,0.226 32.533,0 31.52,0 h -12.4 c -1.014,0 -1.747,0.226 -2.2,0.68 -0.454,0.452 -0.68,1.186 -0.68,2.2 V 20.64 H 2.88 V 2.88 C 2.88,1.866 2.653,1.132 2.2,0.68 1.747,0.226 1.013,0 0,0 Z"
         style="fill:none;stroke:#ffffff;stroke-width:1;stroke-linecap:butt;stroke-linejoin:miter;stroke-miterlimit:10;stroke-dasharray:none;stroke-opacity:1"
         id="path696" />
    </g>
    <path
       d="m 157.0898,697.0005 -0.875,-2.8292 h 2.9225 l -0.8748,2.8292 c -0.0498,0.1115 -0.1024,0.1922 -0.1585,0.242 -0.0558,0.0495 -0.1207,0.0744 -0.1952,0.0744 h -0.4653 c -0.0747,0 -0.1396,-0.0249 -0.1954,-0.0744 -0.0561,-0.0498 -0.1089,-0.1305 -0.1583,-0.242 m -1.0612,-8.8228 c 0,-0.2359 -0.0528,-0.4067 -0.1579,-0.5119 -0.1057,-0.1056 -0.2765,-0.1582 -0.5119,-0.1582 h -2.7362 c -0.2359,0 -0.4067,0.0526 -0.5119,0.1582 -0.1056,0.1052 -0.1582,0.276 -0.1582,0.5119 v 4.914 c 0,0.3722 0.0586,0.8004 0.1768,1.2843 0.1178,0.484 0.3007,1.0486 0.5491,1.6938 l 1.6194,4.2253 c 0.0742,0.2108 0.1889,0.3658 0.3441,0.4653 0.1552,0.0992 0.3567,0.1489 0.6052,0.1489 h 5.007 c 0.2355,0 0.4309,-0.0497 0.5861,-0.1489 0.1552,-0.0995 0.2699,-0.2545 0.3446,-0.4653 l 1.6194,-4.2253 c 0.248,-0.6452 0.4309,-1.2098 0.5491,-1.6938 0.1177,-0.4839 0.1768,-0.9121 0.1768,-1.2843 v -4.914 c 0,-0.2359 -0.053,-0.4067 -0.1582,-0.5119 -0.1056,-0.1056 -0.2764,-0.1582 -0.5119,-0.1582 h -2.8106 c -0.2485,0 -0.4314,0.0526 -0.5493,0.1582 -0.1178,0.1052 -0.1766,0.276 -0.1766,0.5119 v 2.6059 h -3.2949 z"
       style="fill:#231f20;fill-opacity:1;fill-rule:nonzero;stroke:none"
       id="path698" />
    <g
       id="g700"
       transform="matrix(0.2326687,0,0,0.2326687,157.0898,697.0005)">
      <path
         d="M 0,0 -3.761,-12.16 H 8.8 L 5.04,0 C 4.826,0.479 4.6,0.826 4.359,1.04 4.119,1.253 3.84,1.36 3.52,1.36 h -2 C 1.199,1.36 0.92,1.253 0.68,1.04 0.439,0.826 0.212,0.479 0,0 Z m -4.561,-37.92 c 0,-1.014 -0.227,-1.748 -0.679,-2.2 -0.454,-0.454 -1.188,-0.68 -2.2,-0.68 H -19.2 c -1.014,0 -1.748,0.226 -2.2,0.68 -0.454,0.452 -0.68,1.186 -0.68,2.2 v 21.12 c 0,1.6 0.252,3.44 0.76,5.52 0.506,2.08 1.292,4.507 2.36,7.28 L -12,14.16 c 0.319,0.906 0.812,1.572 1.479,2 0.667,0.426 1.533,0.64 2.601,0.64 H 13.6 c 1.012,0 1.852,-0.214 2.519,-0.64 0.667,-0.428 1.16,-1.094 1.481,-2 L 24.56,-4 c 1.066,-2.773 1.852,-5.2 2.36,-7.28 0.506,-2.08 0.76,-3.92 0.76,-5.52 v -21.12 c 0,-1.014 -0.228,-1.748 -0.68,-2.2 -0.454,-0.454 -1.188,-0.68 -2.2,-0.68 H 12.72 c -1.068,0 -1.854,0.226 -2.361,0.68 -0.506,0.452 -0.759,1.186 -0.759,2.2 v 11.2 H -4.561 Z"
         style="fill:none;stroke:#ffffff;stroke-width:1;stroke-linecap:butt;stroke-linejoin:miter;stroke-miterlimit:10;stroke-dasharray:none;stroke-opacity:1"
         id="path702" />
    </g>
    <path
       d="m 175.9637,687.5077 h -9.4743 c -0.2356,0 -0.4067,0.0526 -0.5118,0.1582 -0.1057,0.1052 -0.1585,0.2759 -0.1585,0.5119 v 12.0615 c 0,0.2355 0.0528,0.4062 0.1585,0.5119 0.1051,0.1051 0.2762,0.1582 0.5118,0.1582 h 2.8851 c 0.2355,0 0.4063,-0.0531 0.5119,-0.1582 0.1052,-0.1057 0.1582,-0.2764 0.1582,-0.5119 v -9.2137 h 2.5501 v 3.0154 c 0,0.2355 0.0526,0.4062 0.1582,0.5116 0.1052,0.1054 0.2759,0.1585 0.5116,0.1585 h 2.6992 c 0.2357,0 0.4063,-0.0531 0.5119,-0.1585 0.1052,-0.1054 0.1582,-0.2761 0.1582,-0.5116 v -5.8632 c 0,-0.236 -0.053,-0.4067 -0.1582,-0.5119 -0.1056,-0.1056 -0.2762,-0.1582 -0.5119,-0.1582"
       style="fill:#231f20;fill-opacity:1;fill-rule:nonzero;stroke:none"
       id="path704" />
    <g
       id="g706"
       transform="matrix(0.2326687,0,0,0.2326687,175.9637,687.5077)">
      <path
         d="m 0,0 h -40.72 c -1.013,0 -1.748,0.226 -2.2,0.68 -0.454,0.452 -0.681,1.186 -0.681,2.2 v 51.84 c 0,1.012 0.227,1.746 0.681,2.2 0.452,0.452 1.187,0.68 2.2,0.68 h 12.4 c 1.012,0 1.746,-0.228 2.2,-0.68 0.452,-0.454 0.68,-1.188 0.68,-2.2 v -39.6 h 10.96 v 12.96 c 0,1.012 0.226,1.746 0.68,2.199 0.452,0.453 1.186,0.681 2.199,0.681 L 0,30.96 c 1.013,0 1.746,-0.228 2.2,-0.681 0.452,-0.453 0.68,-1.187 0.68,-2.199 V 2.88 C 2.88,1.866 2.652,1.132 2.2,0.68 1.746,0.226 1.013,0 0,0 Z"
         style="fill:none;stroke:#ffffff;stroke-width:1;stroke-linecap:butt;stroke-linejoin:miter;stroke-miterlimit:10;stroke-dasharray:none;stroke-opacity:1"
         id="path708" />
    </g>
    <path
       d="m 188.9,687.5077 h -9.4743 c -0.2357,0 -0.4067,0.0526 -0.5118,0.1582 -0.1057,0.1052 -0.1585,0.2759 -0.1585,0.5119 v 12.0615 c 0,0.2355 0.0528,0.4062 0.1585,0.5119 0.1051,0.1051 0.2761,0.1582 0.5118,0.1582 h 2.8851 c 0.2355,0 0.4063,-0.0531 0.5119,-0.1582 0.1052,-0.1057 0.1582,-0.2764 0.1582,-0.5119 v -9.2137 h 2.5501 v 3.0154 c 0,0.2355 0.0525,0.4062 0.1582,0.5116 0.1051,0.1054 0.2759,0.1585 0.5116,0.1585 H 188.9 c 0.2357,0 0.4062,-0.0531 0.5119,-0.1585 0.1051,-0.1054 0.1582,-0.2761 0.1582,-0.5116 v -5.8632 c 0,-0.236 -0.0531,-0.4067 -0.1582,-0.5119 -0.1057,-0.1056 -0.2762,-0.1582 -0.5119,-0.1582"
       style="fill:#231f20;fill-opacity:1;fill-rule:nonzero;stroke:none"
       id="path710" />
    <g
       id="g712"
       transform="matrix(0.2326687,0,0,0.2326687,188.9,687.5077)">
      <path
         d="m 0,0 h -40.72 c -1.013,0 -1.748,0.226 -2.2,0.68 -0.454,0.452 -0.681,1.186 -0.681,2.2 v 51.84 c 0,1.012 0.227,1.746 0.681,2.2 0.452,0.452 1.187,0.68 2.2,0.68 h 12.4 c 1.012,0 1.746,-0.228 2.2,-0.68 0.452,-0.454 0.68,-1.188 0.68,-2.2 v -39.6 h 10.96 v 12.96 c 0,1.012 0.226,1.746 0.68,2.199 0.452,0.453 1.186,0.681 2.199,0.681 L 0,30.96 c 1.013,0 1.746,-0.228 2.2,-0.681 0.452,-0.453 0.68,-1.187 0.68,-2.199 V 2.88 C 2.88,1.866 2.652,1.132 2.2,0.68 1.746,0.226 1.013,0 0,0 Z"
         style="fill:none;stroke:#ffffff;stroke-width:1;stroke-linecap:butt;stroke-linejoin:miter;stroke-miterlimit:10;stroke-dasharray:none;stroke-opacity:1"
         id="path714" />
    </g>
    <path
       d="m 200.9985,687.5077 h -8.6364 c -0.2359,0 -0.4067,0.0526 -0.5119,0.1582 -0.1056,0.1052 -0.1584,0.2759 -0.1584,0.5119 v 12.0615 c 0,0.2355 0.0528,0.4062 0.1584,0.5119 0.1052,0.1051 0.276,0.1582 0.5119,0.1582 h 8.6364 c 0.2357,0 0.4065,-0.0531 0.5119,-0.1582 0.1054,-0.1057 0.1585,-0.2764 0.1585,-0.5119 v -2.178 c 0,-0.2357 -0.0531,-0.4065 -0.1585,-0.5116 -0.1054,-0.1057 -0.2762,-0.1585 -0.5119,-0.1585 h -5.137 v -1.4332 h 3.6296 c 0.2354,0 0.4062,-0.0528 0.5119,-0.158 0.1051,-0.1056 0.1579,-0.2764 0.1579,-0.5121 v -1.9914 c 0,-0.236 -0.0528,-0.4067 -0.1579,-0.5119 -0.1057,-0.1056 -0.2765,-0.1582 -0.5119,-0.1582 h -3.6296 v -1.6008 h 5.137 c 0.2357,0 0.4065,-0.0528 0.5119,-0.1584 0.1054,-0.1054 0.1585,-0.2762 0.1585,-0.5117 v -2.1777 c 0,-0.236 -0.0531,-0.4067 -0.1585,-0.5119 -0.1054,-0.1056 -0.2762,-0.1582 -0.5119,-0.1582"
       style="fill:#231f20;fill-opacity:1;fill-rule:nonzero;stroke:none"
       id="path716" />
    <g
       id="g718"
       transform="matrix(0.2326687,0,0,0.2326687,200.9985,687.5077)">
      <path
         d="m 0,0 h -37.119 c -1.014,0 -1.748,0.226 -2.2,0.68 C -39.773,1.132 -40,1.866 -40,2.88 v 51.84 c 0,1.012 0.227,1.746 0.681,2.2 0.452,0.452 1.186,0.68 2.2,0.68 L 0,57.6 c 1.013,0 1.747,-0.228 2.2,-0.68 0.453,-0.454 0.681,-1.188 0.681,-2.2 V 45.359 C 2.881,44.346 2.653,43.612 2.2,43.16 1.747,42.706 1.013,42.479 0,42.479 h -22.079 v -6.16 h 15.6 c 1.012,0 1.746,-0.227 2.2,-0.679 0.452,-0.454 0.679,-1.188 0.679,-2.201 V 24.88 c 0,-1.014 -0.227,-1.748 -0.679,-2.2 C -4.733,22.226 -5.467,22 -6.479,22 h -15.6 V 15.12 H 0 c 1.013,0 1.747,-0.227 2.2,-0.681 0.453,-0.453 0.681,-1.187 0.681,-2.199 V 2.88 C 2.881,1.866 2.653,1.132 2.2,0.68 1.747,0.226 1.013,0 0,0 Z"
         style="fill:none;stroke:#ffffff;stroke-width:1;stroke-linecap:butt;stroke-linejoin:miter;stroke-miterlimit:10;stroke-dasharray:none;stroke-opacity:1"
         id="path720" />
    </g>
    <path
       d="m 207.3272,687.5077 h -2.792 c -0.236,0 -0.4068,0.0526 -0.5119,0.1582 -0.1056,0.1052 -0.1585,0.2759 -0.1585,0.5119 v 12.0615 c 0,0.2355 0.0529,0.4062 0.1585,0.5119 0.1051,0.1051 0.2759,0.1582 0.5119,0.1582 h 1.9355 c 0.2357,0 0.4374,-0.0375 0.6052,-0.1117 0.1675,-0.0744 0.3318,-0.2047 0.4933,-0.3911 l 3.611,-4.132 v 3.9647 c 0,0.2355 0.0526,0.4062 0.158,0.5119 0.1054,0.1051 0.2761,0.1582 0.5118,0.1582 h 2.7921 c 0.2356,0 0.4064,-0.0531 0.5121,-0.1582 0.1051,-0.1057 0.1579,-0.2764 0.1579,-0.5119 v -12.0615 c 0,-0.236 -0.0528,-0.4067 -0.1579,-0.5119 -0.1057,-0.1056 -0.2765,-0.1582 -0.5121,-0.1582 H 211.85 c -0.2357,0 -0.4064,0.0526 -0.5118,0.1582 -0.1054,0.1052 -0.158,0.2759 -0.158,0.5119 v 2.2894 l -3.1829,3.8528 v -6.1422 c 0,-0.236 -0.0531,-0.4067 -0.1585,-0.5119 -0.1054,-0.1056 -0.2762,-0.1582 -0.5116,-0.1582"
       style="fill:#231f20;fill-opacity:1;fill-rule:nonzero;stroke:none"
       id="path722" />
    <g
       id="g724"
       transform="matrix(0.2326687,0,0,0.2326687,207.3272,687.5077)">
      <path
         d="m 0,0 h -12 c -1.014,0 -1.748,0.226 -2.2,0.68 -0.454,0.452 -0.681,1.186 -0.681,2.2 v 51.84 c 0,1.012 0.227,1.746 0.681,2.2 0.452,0.452 1.186,0.68 2.2,0.68 h 8.319 c 1.013,0 1.88,-0.161 2.601,-0.48 0.72,-0.32 1.426,-0.88 2.12,-1.681 L 16.56,37.68 v 17.04 c 0,1.012 0.226,1.746 0.679,2.2 0.453,0.452 1.187,0.68 2.2,0.68 h 12 c 1.013,0 1.747,-0.228 2.201,-0.68 0.452,-0.454 0.679,-1.188 0.679,-2.2 V 2.88 C 34.319,1.866 34.092,1.132 33.64,0.68 33.186,0.226 32.452,0 31.439,0 h -12 c -1.013,0 -1.747,0.226 -2.2,0.68 -0.453,0.452 -0.679,1.186 -0.679,2.2 v 9.84 L 2.88,29.279 V 2.88 C 2.88,1.866 2.652,1.132 2.199,0.68 1.746,0.226 1.012,0 0,0 Z"
         style="fill:none;stroke:#ffffff;stroke-width:1;stroke-linecap:butt;stroke-linejoin:miter;stroke-miterlimit:10;stroke-dasharray:none;stroke-opacity:1"
         id="path726" />
    </g>
    <path
       d="m 228.1181,687.5077 h -5.863 c -1.5515,0 -2.7023,0.3099 -3.4528,0.9306 -0.7511,0.6203 -1.1264,1.5757 -1.1264,2.8663 v 5.8074 c 0,1.2906 0.3753,2.2462 1.1264,2.8667 0.7505,0.6203 1.9013,0.9307 3.4528,0.9307 h 4.6533 c 0.2355,0 0.4063,-0.0531 0.5117,-0.1582 0.1054,-0.1057 0.1584,-0.2764 0.1584,-0.5119 v -2.2522 c 0,-0.236 -0.053,-0.4067 -0.1584,-0.5119 -0.1054,-0.1056 -0.2762,-0.1582 -0.5117,-0.1582 h -3.8718 c -0.3846,0 -0.6701,-0.0777 -0.8562,-0.2327 -0.1859,-0.1554 -0.2792,-0.3881 -0.2792,-0.698 v -4.4486 c 0,-0.3104 0.0714,-0.5398 0.214,-0.6887 0.1427,-0.1492 0.3567,-0.2234 0.6424,-0.2234 h 1.8055 v 2.9037 c 0,0.2355 0.0524,0.4063 0.158,0.5119 0.1054,0.1052 0.2762,0.158 0.5121,0.158 h 2.8849 c 0.2357,0 0.4065,-0.0528 0.5119,-0.158 0.1054,-0.1056 0.1584,-0.2764 0.1584,-0.5119 v -5.7515 c 0,-0.236 -0.053,-0.4067 -0.1584,-0.5119 -0.1054,-0.1056 -0.2762,-0.1582 -0.5119,-0.1582"
       style="fill:#231f20;fill-opacity:1;fill-rule:nonzero;stroke:none"
       id="path728" />
    <g
       id="g730"
       transform="matrix(0.2326687,0,0,0.2326687,228.1181,687.5077)">
      <path
         d="m 0,0 h -25.199 c -6.668,0 -11.614,1.332 -14.84,4 -3.228,2.666 -4.841,6.772 -4.841,12.319 v 24.96 c 0,5.547 1.613,9.654 4.841,12.321 3.226,2.666 8.172,4 14.84,4 h 20 c 1.012,0 1.746,-0.228 2.199,-0.68 0.453,-0.454 0.681,-1.188 0.681,-2.2 v -9.68 c 0,-1.014 -0.228,-1.748 -0.681,-2.2 -0.453,-0.454 -1.187,-0.68 -2.199,-0.68 H -21.84 c -1.653,0 -2.88,-0.334 -3.68,-1 -0.799,-0.668 -1.2,-1.668 -1.2,-3 V 19.04 c 0,-1.334 0.307,-2.32 0.92,-2.96 0.613,-0.641 1.533,-0.96 2.761,-0.96 h 7.76 V 27.6 c 0,1.012 0.225,1.746 0.679,2.2 0.453,0.452 1.187,0.679 2.201,0.679 H 0 c 1.013,0 1.747,-0.227 2.2,-0.679 0.453,-0.454 0.681,-1.188 0.681,-2.2 V 2.88 C 2.881,1.866 2.653,1.132 2.2,0.68 1.747,0.226 1.013,0 0,0 Z"
         style="fill:none;stroke:#ffffff;stroke-width:1;stroke-linecap:butt;stroke-linejoin:miter;stroke-miterlimit:10;stroke-dasharray:none;stroke-opacity:1"
         id="path732" />
    </g>
    <path
       d="m 240.3657,687.5077 h -8.6364 c -0.236,0 -0.4067,0.0526 -0.5119,0.1582 -0.1056,0.1052 -0.1585,0.2759 -0.1585,0.5119 v 12.0615 c 0,0.2355 0.0529,0.4062 0.1585,0.5119 0.1052,0.1051 0.2759,0.1582 0.5119,0.1582 h 8.6364 c 0.2357,0 0.4065,-0.0531 0.5119,-0.1582 0.1054,-0.1057 0.1584,-0.2764 0.1584,-0.5119 v -2.178 c 0,-0.2357 -0.053,-0.4065 -0.1584,-0.5116 -0.1054,-0.1057 -0.2762,-0.1585 -0.5119,-0.1585 h -5.1371 v -1.4332 h 3.6296 c 0.2355,0 0.4063,-0.0528 0.5119,-0.158 0.1052,-0.1056 0.158,-0.2764 0.158,-0.5121 v -1.9914 c 0,-0.236 -0.0528,-0.4067 -0.158,-0.5119 -0.1056,-0.1056 -0.2764,-0.1582 -0.5119,-0.1582 h -3.6296 v -1.6008 h 5.1371 c 0.2357,0 0.4065,-0.0528 0.5119,-0.1584 0.1054,-0.1054 0.1584,-0.2762 0.1584,-0.5117 v -2.1777 c 0,-0.236 -0.053,-0.4067 -0.1584,-0.5119 -0.1054,-0.1056 -0.2762,-0.1582 -0.5119,-0.1582"
       style="fill:#231f20;fill-opacity:1;fill-rule:nonzero;stroke:none"
       id="path734" />
    <g
       id="g736"
       transform="matrix(0.2326687,0,0,0.2326687,240.3657,687.5077)">
      <path
         d="m 0,0 h -37.119 c -1.014,0 -1.748,0.226 -2.2,0.68 C -39.773,1.132 -40,1.866 -40,2.88 v 51.84 c 0,1.012 0.227,1.746 0.681,2.2 0.452,0.452 1.186,0.68 2.2,0.68 L 0,57.6 c 1.013,0 1.747,-0.228 2.2,-0.68 0.453,-0.454 0.681,-1.188 0.681,-2.2 V 45.359 C 2.881,44.346 2.653,43.612 2.2,43.16 1.747,42.706 1.013,42.479 0,42.479 h -22.079 v -6.16 h 15.6 c 1.012,0 1.746,-0.227 2.2,-0.679 0.452,-0.454 0.679,-1.188 0.679,-2.201 V 24.88 c 0,-1.014 -0.227,-1.748 -0.679,-2.2 C -4.733,22.226 -5.467,22 -6.479,22 h -15.6 V 15.12 H 0 c 1.013,0 1.747,-0.227 2.2,-0.681 0.453,-0.453 0.681,-1.187 0.681,-2.199 V 2.88 C 2.881,1.866 2.653,1.132 2.2,0.68 1.747,0.226 1.013,0 0,0 Z"
         style="fill:none;stroke:#ffffff;stroke-width:1;stroke-linecap:butt;stroke-linejoin:miter;stroke-miterlimit:10;stroke-dasharray:none;stroke-opacity:1"
         id="path738" />
    </g>
    <path
       d="m 121.8268,766.1063 v 15.0769 h 0.2792 v -14.7977 h 9.7162 v 5.5003 h 0.2792 v -5.7795 z M 134,763.5935 c 0.3534,0 0.6094,0.0791 0.7678,0.2373 0.158,0.158 0.2373,0.4142 0.2373,0.7678 v 8.7949 c 0,0.3534 -0.0793,0.6093 -0.2373,0.7678 -0.1584,0.158 -0.4144,0.2373 -0.7678,0.2373 h -4.0484 c -0.3539,0 -0.6099,-0.0793 -0.7678,-0.2373 -0.1585,-0.1585 -0.2374,-0.4144 -0.2374,-0.7678 v -4.5231 h -3.825 v 13.8205 c 0,0.3535 -0.0794,0.6094 -0.2374,0.7678 -0.1584,0.158 -0.4143,0.2374 -0.7678,0.2374 h -4.3276 c -0.3537,0 -0.6098,-0.0794 -0.7678,-0.2374 -0.1585,-0.1584 -0.2373,-0.4143 -0.2373,-0.7678 v -18.0923 c 0,-0.3536 0.0788,-0.6098 0.2373,-0.7678 0.158,-0.1582 0.4141,-0.2373 0.7678,-0.2373 z m -14.2114,-0.2792 c -0.4467,0 -0.7727,0.1026 -0.9772,0.3071 -0.205,0.2048 -0.3071,0.5305 -0.3071,0.9772 v 18.0923 c 0,0.4468 0.1021,0.7723 0.3071,0.9772 0.2045,0.2046 0.5305,0.3072 0.9772,0.3072 h 4.3276 c 0.4468,0 0.7723,-0.1026 0.9772,-0.3072 0.2046,-0.2049 0.3072,-0.5304 0.3072,-0.9772 v -13.5413 h 3.2666 v 4.2439 c 0,0.4467 0.1022,0.7722 0.3072,0.9772 0.2047,0.2045 0.5304,0.3071 0.9772,0.3071 H 134 c 0.4467,0 0.7722,-0.1026 0.9772,-0.3071 0.2045,-0.205 0.3071,-0.5305 0.3071,-0.9772 v -8.7949 c 0,-0.4467 -0.1026,-0.7724 -0.3071,-0.9772 -0.205,-0.2045 -0.5305,-0.3071 -0.9772,-0.3071 z"
       style="fill:#ffffff;fill-opacity:1;fill-rule:nonzero;stroke:none"
       id="path740" />
    <g
       id="g742"
       transform="matrix(0.2326687,0,0,0.2326687,121.8268,766.1063)">
      <path
         d="M 0,0 V 64.8 H 1.2 V 1.2 h 41.76 v 23.64 h 1.2 L 44.16,0 Z m 52.32,-10.8 c 1.519,0 2.619,0.34 3.3,1.02 0.679,0.679 1.02,1.78 1.02,3.3 v 37.8 c 0,1.519 -0.341,2.619 -1.02,3.3 -0.681,0.679 -1.781,1.02 -3.3,1.02 h -17.4 c -1.521,0 -2.621,-0.341 -3.3,-1.02 -0.681,-0.681 -1.02,-1.781 -1.02,-3.3 V 11.88 H 14.16 v 59.4 c 0,1.519 -0.341,2.619 -1.02,3.3 -0.681,0.679 -1.781,1.02 -3.3,1.02 h -18.6 c -1.52,0 -2.621,-0.341 -3.3,-1.02 -0.681,-0.681 -1.02,-1.781 -1.02,-3.3 V -6.48 c 0,-1.52 0.339,-2.621 1.02,-3.3 0.679,-0.68 1.78,-1.02 3.3,-1.02 z M -8.76,-12 c -1.92,0 -3.321,0.441 -4.2,1.32 -0.881,0.88 -1.32,2.28 -1.32,4.2 v 77.76 c 0,1.92 0.439,3.319 1.32,4.2 0.879,0.879 2.28,1.32 4.2,1.32 h 18.6 c 1.92,0 3.319,-0.441 4.2,-1.32 0.879,-0.881 1.32,-2.28 1.32,-4.2 V 13.08 H 29.4 v 18.24 c 0,1.92 0.439,3.319 1.32,4.2 0.88,0.879 2.28,1.32 4.2,1.32 h 17.4 c 1.92,0 3.319,-0.441 4.2,-1.32 0.879,-0.881 1.32,-2.28 1.32,-4.2 v -37.8 c 0,-1.92 -0.441,-3.32 -1.32,-4.2 -0.881,-0.879 -2.28,-1.32 -4.2,-1.32 z"
         style="fill:none;stroke:#9cb33b;stroke-width:5.669;stroke-linecap:butt;stroke-linejoin:miter;stroke-miterlimit:10;stroke-dasharray:none;stroke-opacity:1"
         id="path744" />
    </g>
    <path
       d="m 121.8268,766.1063 v 15.0769 h 0.2792 v -14.7977 h 9.7162 v 5.5003 h 0.2792 v -5.7795 z"
       style="fill:#ffffff;fill-opacity:1;fill-rule:nonzero;stroke:none"
       id="path746" />
    <g
       id="g748"
       transform="matrix(0.2326687,0,0,0.2326687,121.8268,766.1063)">
      <path
         d="M 0,0 V 64.8 H 1.2 V 1.2 h 41.76 v 23.64 h 1.2 L 44.16,0 Z"
         style="fill:none;stroke:#231f20;stroke-width:7.087;stroke-linecap:butt;stroke-linejoin:miter;stroke-miterlimit:10;stroke-dasharray:none;stroke-opacity:1"
         id="path750" />
    </g>
    <path
       d="m 126.9083,745.9869 h -0.1954 v -4.7743 h -0.2792 v 4.7743 h -0.2792 c -0.4095,0 -0.7774,0.0929 -1.1029,0.2792 -0.3257,0.1859 -0.6377,0.484 -0.9353,0.8935 l -2.7083,3.7692 c -0.2049,0.2792 -0.3259,0.6047 -0.3629,0.9772 -0.0375,0.3723 -0.0559,0.7632 -0.0559,1.1727 v 3.2108 h 0.2792 v -3.2108 c 0,-0.3909 0.0184,-0.7585 0.0559,-1.1029 0.0372,-0.3446 0.1489,-0.6561 0.335,-0.9353 l 2.7083,-3.7692 c 0.2417,-0.3725 0.5209,-0.6331 0.8376,-0.7818 0.3164,-0.1491 0.6326,-0.2234 0.9493,-0.2234 h 0.7538 c 0.3535,0 0.6745,0.0791 0.9633,0.2374 0.2883,0.1579 0.5723,0.4141 0.8515,0.7678 l 2.7921,3.7692 c 0.1859,0.2417 0.2976,0.5444 0.335,0.9074 0.037,0.363 0.0559,0.7399 0.0559,1.1308 v 3.2108 h 0.2792 v -3.2108 c 0,-0.4095 -0.014,-0.7958 -0.0419,-1.1587 -0.0279,-0.363 -0.1536,-0.6936 -0.3769,-0.9912 l -2.7921,-3.7692 c -0.2978,-0.4095 -0.6098,-0.7076 -0.9353,-0.8935 -0.326,-0.1863 -0.7029,-0.2792 -1.1308,-0.2792 m 1.9265,-7.2872 c 0.3535,0 0.6094,0.0792 0.7678,0.2374 0.158,0.1579 0.2374,0.4139 0.2374,0.7678 v 3.5458 l 4.2438,5.7516 c 0.4093,0.5768 0.6885,1.0794 0.8376,1.5077 0.149,0.4281 0.2234,1.0703 0.2234,1.9265 v 5.3607 c 0,0.3534 -0.0793,0.6094 -0.2373,0.7678 -0.1582,0.158 -0.4144,0.2373 -0.7678,0.2373 h -4.1601 c -0.3537,0 -0.6099,-0.0793 -0.7678,-0.2373 -0.1583,-0.1584 -0.2374,-0.4144 -0.2374,-0.7678 v -4.5789 c 0,-0.1862 -0.01,-0.3818 -0.0279,-0.5864 -0.0186,-0.2049 -0.0933,-0.4004 -0.2234,-0.5863 l -1.2843,-2.0102 c -0.0933,-0.1676 -0.191,-0.2888 -0.2931,-0.363 -0.1024,-0.0745 -0.2281,-0.1117 -0.377,-0.1117 h -0.2792 c -0.1491,0 -0.2748,0.0372 -0.3769,0.1117 -0.1024,0.0742 -0.2001,0.1954 -0.2932,0.363 l -1.2843,2.0102 c -0.1303,0.1859 -0.205,0.3814 -0.2233,0.5863 -0.0187,0.2046 -0.028,0.4002 -0.028,0.5864 v 4.5789 c 0,0.3534 -0.0793,0.6094 -0.2373,0.7678 -0.1582,0.158 -0.4144,0.2373 -0.7678,0.2373 h -4.2997 c -0.3539,0 -0.6098,-0.0793 -0.7678,-0.2373 -0.1585,-0.1584 -0.2373,-0.4144 -0.2373,-0.7678 v -5.3607 c 0,-0.8562 0.0698,-1.4984 0.2094,-1.9265 0.1396,-0.4283 0.4232,-0.9309 0.8515,-1.5077 l 4.2718,-5.7236 v -3.5738 c 0,-0.3539 0.0789,-0.6099 0.2373,-0.7678 0.158,-0.1582 0.414,-0.2374 0.7679,-0.2374 z m -4.523,-0.2792 c -0.4656,0 -0.7958,0.1026 -0.9912,0.3072 -0.1955,0.2047 -0.2932,0.5304 -0.2932,0.9772 v 3.49 l -4.2159,5.6399 c -0.4468,0.5954 -0.7446,1.1168 -0.8935,1.5635 -0.1491,0.4468 -0.2233,1.1259 -0.2233,2.0382 v 5.3607 c 0,0.4467 0.1021,0.7722 0.3071,0.9772 0.2047,0.2045 0.5305,0.3071 0.9772,0.3071 h 4.2997 c 0.4467,0 0.7722,-0.1026 0.9772,-0.3071 0.2045,-0.205 0.3071,-0.5305 0.3071,-0.9772 v -4.5789 c 0,-0.1675 0.009,-0.3351 0.028,-0.5026 0.0183,-0.1675 0.0742,-0.3446 0.1675,-0.5305 l 1.3122,-2.0102 c 0.0559,-0.1117 0.1161,-0.1955 0.1815,-0.2513 0.0649,-0.0559 0.144,-0.0838 0.2373,-0.0838 h 0.2792 c 0.0931,0 0.172,0.0279 0.2374,0.0838 0.0651,0.0558 0.1349,0.1396 0.2094,0.2513 l 1.2843,2.0102 c 0.0931,0.1859 0.1487,0.363 0.1675,0.5305 0.0184,0.1675 0.0279,0.3351 0.0279,0.5026 v 4.5789 c 0,0.4467 0.1022,0.7722 0.3072,0.9772 0.2045,0.2045 0.5304,0.3071 0.9772,0.3071 h 4.1601 c 0.4467,0 0.7722,-0.1026 0.9772,-0.3071 0.2047,-0.205 0.3071,-0.5305 0.3071,-0.9772 v -5.3607 c 0,-0.9123 -0.0744,-1.5914 -0.2234,-2.0382 -0.1491,-0.4467 -0.4467,-0.9681 -0.8934,-1.5635 l -4.188,-5.6678 v -3.4621 c 0,-0.4468 -0.1026,-0.7725 -0.3072,-0.9772 -0.2049,-0.2046 -0.5304,-0.3072 -0.9772,-0.3072 z"
       style="fill:#ffffff;fill-opacity:1;fill-rule:nonzero;stroke:none"
       id="path752" />
    <g
       id="g754"
       transform="matrix(0.2326687,0,0,0.2326687,126.9083,745.9869)">
      <path
         d="m 0,0 h -0.84 v -20.52 h -1.2 V 0 h -1.2 C -5,0 -6.581,0.399 -7.98,1.2 -9.38,1.999 -10.721,3.28 -12,5.04 l -11.64,16.2 c -0.881,1.2 -1.401,2.599 -1.56,4.2 -0.161,1.6 -0.24,3.28 -0.24,5.04 v 13.8 h 1.2 v -13.8 c 0,-1.68 0.079,-3.26 0.24,-4.74 0.16,-1.481 0.64,-2.82 1.44,-4.02 L -10.92,5.52 C -9.881,3.919 -8.681,2.799 -7.32,2.16 -5.96,1.519 -4.601,1.2 -3.24,1.2 H 0 C 1.519,1.2 2.899,1.54 4.14,2.22 5.379,2.899 6.6,4 7.8,5.52 l 12,16.2 c 0.799,1.039 1.279,2.34 1.44,3.9 0.159,1.56 0.24,3.18 0.24,4.86 v 13.8 h 1.2 v -13.8 c 0,-1.76 -0.06,-3.42 -0.18,-4.98 -0.12,-1.56 -0.66,-2.981 -1.62,-4.26 L 8.88,5.04 C 7.6,3.28 6.259,1.999 4.86,1.2 3.459,0.399 1.839,0 0,0 Z m 8.28,-31.32 c 1.519,0 2.619,0.34 3.3,1.02 0.679,0.679 1.02,1.779 1.02,3.3 v 15.24 l 18.24,24.72 c 1.759,2.479 2.959,4.639 3.6,6.48 0.64,1.84 0.96,4.6 0.96,8.28 v 23.04 c 0,1.519 -0.341,2.619 -1.02,3.3 -0.68,0.679 -1.781,1.02 -3.3,1.02 H 13.2 c -1.52,0 -2.621,-0.341 -3.3,-1.02 C 9.22,53.379 8.88,52.279 8.88,50.76 V 31.08 C 8.88,30.28 8.839,29.439 8.76,28.56 8.68,27.679 8.359,26.839 7.8,26.04 L 2.28,17.4 C 1.879,16.68 1.459,16.159 1.02,15.84 0.58,15.52 0.04,15.36 -0.6,15.36 h -1.2 c -0.641,0 -1.181,0.16 -1.62,0.48 -0.44,0.319 -0.86,0.84 -1.26,1.56 l -5.52,8.64 c -0.56,0.799 -0.881,1.639 -0.96,2.52 -0.08,0.879 -0.12,1.72 -0.12,2.52 v 19.68 c 0,1.519 -0.341,2.619 -1.02,3.3 -0.68,0.679 -1.781,1.02 -3.3,1.02 h -18.48 c -1.521,0 -2.621,-0.341 -3.3,-1.02 -0.681,-0.681 -1.02,-1.781 -1.02,-3.3 V 27.72 c 0,-3.68 0.3,-6.44 0.9,-8.28 0.6,-1.841 1.819,-4.001 3.66,-6.48 l 18.36,-24.6 V -27 c 0,-1.521 0.339,-2.621 1.02,-3.3 0.679,-0.68 1.779,-1.02 3.3,-1.02 z m -19.44,-1.2 c -2.001,0 -3.42,0.441 -4.26,1.32 -0.84,0.88 -1.26,2.28 -1.26,4.2 v 15 L -34.8,12.24 c -1.92,2.559 -3.2,4.8 -3.84,6.72 -0.641,1.92 -0.96,4.839 -0.96,8.76 v 23.04 c 0,1.92 0.439,3.319 1.32,4.2 0.88,0.879 2.28,1.32 4.2,1.32 h 18.48 c 1.92,0 3.319,-0.441 4.2,-1.32 0.879,-0.881 1.32,-2.28 1.32,-4.2 V 31.08 c 0,-0.72 0.039,-1.44 0.12,-2.16 0.079,-0.72 0.319,-1.481 0.72,-2.28 L -3.6,18 c 0.24,-0.48 0.499,-0.84 0.78,-1.08 0.279,-0.24 0.619,-0.36 1.02,-0.36 h 1.2 c 0.4,0 0.739,0.12 1.02,0.36 0.28,0.24 0.58,0.6 0.9,1.08 l 5.52,8.64 c 0.4,0.799 0.639,1.56 0.72,2.28 0.079,0.72 0.12,1.44 0.12,2.16 v 19.68 c 0,1.92 0.439,3.319 1.32,4.2 0.879,0.879 2.28,1.32 4.2,1.32 h 17.88 c 1.92,0 3.319,-0.441 4.2,-1.32 0.88,-0.881 1.32,-2.28 1.32,-4.2 V 27.72 c 0,-3.921 -0.32,-6.84 -0.96,-8.76 -0.641,-1.92 -1.92,-4.161 -3.84,-6.72 l -18,-24.36 V -27 c 0,-1.92 -0.441,-3.32 -1.32,-4.2 -0.881,-0.879 -2.28,-1.32 -4.2,-1.32 z"
         style="fill:none;stroke:#9cb33b;stroke-width:5.669;stroke-linecap:butt;stroke-linejoin:miter;stroke-miterlimit:10;stroke-dasharray:none;stroke-opacity:1"
         id="path756" />
    </g>
    <path
       d="m 126.9083,746.0277 h -0.1954 v -4.7743 h -0.2792 v 4.7743 h -0.2792 c -0.4095,0 -0.7774,0.0929 -1.1029,0.2792 -0.3257,0.1859 -0.6377,0.484 -0.9353,0.8935 l -2.7083,3.7692 c -0.2049,0.2792 -0.3259,0.6047 -0.3629,0.9772 -0.0375,0.3723 -0.0559,0.7632 -0.0559,1.1727 v 3.2108 h 0.2792 v -3.2108 c 0,-0.3909 0.0184,-0.7585 0.0559,-1.1029 0.0372,-0.3446 0.1489,-0.6561 0.335,-0.9353 l 2.7083,-3.7693 c 0.2417,-0.3725 0.5209,-0.633 0.8376,-0.7817 0.3164,-0.1492 0.6326,-0.2234 0.9493,-0.2234 h 0.7538 c 0.3535,0 0.6745,0.0791 0.9633,0.2373 0.2883,0.158 0.5723,0.4142 0.8515,0.7678 l 2.7921,3.7693 c 0.1859,0.2417 0.2976,0.5444 0.335,0.9074 0.037,0.363 0.0559,0.7399 0.0559,1.1308 v 3.2108 h 0.2792 v -3.2108 c 0,-0.4095 -0.014,-0.7958 -0.0419,-1.1587 -0.0279,-0.363 -0.1536,-0.6936 -0.3769,-0.9912 l -2.7921,-3.7692 c -0.2978,-0.4095 -0.6098,-0.7076 -0.9353,-0.8935 -0.326,-0.1863 -0.7029,-0.2792 -1.1308,-0.2792"
       style="fill:#ffffff;fill-opacity:1;fill-rule:nonzero;stroke:none"
       id="path758" />
    <g
       id="g760"
       transform="matrix(0.2326687,0,0,0.2326687,126.9083,746.0277)">
      <path
         d="m 0,0 h -0.84 v -20.52 h -1.2 V 0 h -1.2 C -5,0 -6.581,0.399 -7.98,1.2 -9.38,1.999 -10.721,3.28 -12,5.04 l -11.64,16.2 c -0.881,1.2 -1.401,2.599 -1.56,4.2 -0.161,1.6 -0.24,3.28 -0.24,5.04 v 13.8 h 1.2 v -13.8 c 0,-1.68 0.079,-3.26 0.24,-4.74 0.16,-1.481 0.64,-2.82 1.44,-4.02 L -10.92,5.52 C -9.881,3.919 -8.681,2.799 -7.32,2.16 -5.96,1.519 -4.601,1.2 -3.24,1.2 H 0 C 1.519,1.2 2.899,1.54 4.14,2.22 5.379,2.899 6.6,4 7.8,5.52 l 12,16.2 c 0.799,1.039 1.279,2.34 1.44,3.9 0.159,1.56 0.24,3.18 0.24,4.86 v 13.8 h 1.2 v -13.8 c 0,-1.76 -0.06,-3.42 -0.18,-4.98 -0.12,-1.56 -0.66,-2.981 -1.62,-4.26 L 8.88,5.04 C 7.6,3.28 6.259,1.999 4.86,1.2 3.459,0.399 1.839,0 0,0 Z"
         style="fill:none;stroke:#231f20;stroke-width:7.087;stroke-linecap:butt;stroke-linejoin:miter;stroke-miterlimit:10;stroke-dasharray:none;stroke-opacity:1"
         id="path762" />
    </g>
    <path
       d="m 126.3778,727.7841 h -1.8148 v -3.0153 h 1.8148 c 0.3909,0 0.6466,0.0977 0.7678,0.2931 0.1207,0.1955 0.1815,0.4419 0.1815,0.7399 v 0.9493 c 0,0.2976 -0.0608,0.5444 -0.1815,0.7399 -0.1212,0.1954 -0.3769,0.2931 -0.7678,0.2931 m -2.094,0.2792 h 2.094 c 0.4839,0 0.8097,-0.1256 0.9772,-0.3769 0.1675,-0.2513 0.2513,-0.5633 0.2513,-0.9353 v -0.9493 c 0,-0.3727 -0.0838,-0.684 -0.2513,-0.9353 -0.1675,-0.2513 -0.4933,-0.3769 -0.9772,-0.3769 h -2.094 z m 3.0712,2.2337 h -6.0866 v -8.069 h 6.0866 c 1.154,0 1.9265,0.279 2.3174,0.8376 0.3909,0.5584 0.5863,1.3493 0.5863,2.3732 v 1.9545 c 0,0.8559 -0.2373,1.5539 -0.712,2.094 -0.4746,0.5395 -1.2054,0.8097 -2.1917,0.8097 m -6.0866,-14.798 h -0.2792 v 15.0772 h 6.3658 c 1.0793,0 1.8797,-0.3027 2.4011,-0.9074 0.521,-0.605 0.7818,-1.3637 0.7818,-2.2755 v -1.9265 c 0,-0.8565 -0.1117,-1.5592 -0.335,-2.1083 -0.2234,-0.5491 -0.6701,-0.926 -1.3402,-1.1305 h 0.3071 c 1.1352,0 1.9823,-0.2562 2.5407,-0.768 0.5585,-0.5121 0.8377,-1.252 0.8377,-2.2197 v -3.7413 h -0.2792 v 3.7413 c 0,0.9118 -0.2513,1.5961 -0.7539,2.0524 -0.5026,0.4558 -1.2843,0.684 -2.3453,0.684 h -7.9014 z m 2.0102,-2.5128 c 0.3535,0 0.6094,0.0791 0.7678,0.2375 0.158,0.158 0.2374,0.4139 0.2374,0.7678 v 5.4722 h 3.9088 c 0.3909,0 0.6654,-0.0977 0.8236,-0.2932 0.158,-0.1952 0.2374,-0.4979 0.2374,-0.9072 v -4.2718 c 0,-0.3539 0.0791,-0.6098 0.2373,-0.7678 0.158,-0.1584 0.4141,-0.2375 0.7678,-0.2375 h 4.3276 c 0.3535,0 0.6094,0.0791 0.7678,0.2375 0.158,0.158 0.2374,0.4139 0.2374,0.7678 v 5.9189 c 0,1.1726 -0.312,2.1124 -0.9354,2.8199 -0.6238,0.7074 -2.1079,0.964 -2.2029,1.252 -0.1151,0.1794 0.7415,0.614 0.9744,1.1631 0.2325,0.5491 0.349,1.2148 0.349,1.9966 v 1.2843 c 0,1.3772 -0.3955,2.4989 -1.1866,3.3644 -0.7913,0.8655 -2.2292,1.2983 -4.3136,1.2983 h -9.2975 c -0.3536,0 -0.6098,-0.0796 -0.7678,-0.2373 -0.1584,-0.1585 -0.2373,-0.4144 -0.2373,-0.7678 v -18.0924 c 0,-0.3539 0.0789,-0.6098 0.2373,-0.7678 0.158,-0.1584 0.4142,-0.2375 0.7678,-0.2375 z m 0,-0.2792 h -4.2997 c -0.4467,0 -0.7727,0.1028 -0.9772,0.3073 -0.205,0.2045 -0.3071,0.5305 -0.3071,0.9772 v 18.0924 c 0,0.4467 0.1021,0.7722 0.3071,0.9772 0.2045,0.2045 0.5305,0.3071 0.9772,0.3071 h 9.2975 c 2.215,0 3.7317,-0.4607 4.551,-1.3821 0.8187,-0.9213 1.2284,-2.1079 1.2284,-3.5598 v -1.2843 c 0,-0.689 -0.0837,-1.2892 -0.2512,-1.8009 -0.1676,-0.5121 -0.4468,-0.9262 -0.8376,-1.2427 0.8748,-0.2419 1.5775,-0.7257 2.1079,-1.4516 0.5305,-0.7259 0.7958,-1.6382 0.7958,-2.7364 v -5.9189 c 0,-0.4467 -0.1026,-0.7727 -0.3072,-0.9772 -0.2049,-0.2045 -0.5304,-0.3073 -0.9772,-0.3073 h -4.3276 c -0.4467,0 -0.7727,0.1028 -0.9772,0.3073 -0.205,0.2045 -0.3071,0.5305 -0.3071,0.9772 v 4.2718 c 0,0.2974 -0.0559,0.5256 -0.1676,0.6841 -0.1116,0.1577 -0.3166,0.2373 -0.6142,0.2373 h -3.6296 v -5.1932 c 0,-0.4467 -0.1026,-0.7727 -0.3072,-0.9772 -0.2049,-0.2045 -0.5304,-0.3073 -0.9772,-0.3073"
       style="fill:#ffffff;fill-opacity:1;fill-rule:nonzero;stroke:none"
       id="path764" />
    <g
       id="g766"
       transform="matrix(0.2326687,0,0,0.2326687,126.3778,727.7841)">
      <path
         d="M 0,0 H -7.8 V -12.96 H 0 c 1.68,0 2.779,0.42 3.3,1.26 0.519,0.84 0.78,1.899 0.78,3.18 v 4.08 C 4.08,-3.161 3.819,-2.1 3.3,-1.26 2.779,-0.42 1.68,0 0,0 Z m -9,1.2 h 9 c 2.08,0 3.48,-0.54 4.2,-1.62 0.72,-1.08 1.08,-2.421 1.08,-4.02 v -4.08 c 0,-1.602 -0.36,-2.94 -1.08,-4.02 C 3.48,-13.62 2.08,-14.16 0,-14.16 H -9 Z M 4.2,10.8 H -21.96 V -23.88 H 4.2 c 4.96,0 8.28,1.199 9.96,3.6 1.68,2.4 2.52,5.799 2.52,10.2 v 8.4 c 0,3.679 -1.02,6.679 -3.06,9 C 11.58,9.639 8.439,10.8 4.2,10.8 Z m -26.16,-63.601 h -1.2 V 12 H 4.2 c 4.639,0 8.079,-1.301 10.32,-3.9 2.239,-2.6 3.36,-5.861 3.36,-9.78 v -8.28 c 0,-3.681 -0.48,-6.701 -1.44,-9.061 -0.96,-2.36 -2.88,-3.98 -5.76,-4.859 H 12 c 4.879,0 8.52,-1.101 10.92,-3.301 2.4,-2.201 3.6,-5.381 3.6,-9.54 v -16.08 h -1.2 v 16.08 c 0,3.919 -1.08,6.86 -3.24,8.821 -2.16,1.959 -5.52,2.94 -10.08,2.94 h -33.96 z m 8.64,-10.8 c 1.519,0 2.619,0.34 3.3,1.021 0.679,0.679 1.02,1.779 1.02,3.3 v 23.519 H 7.8 c 1.68,0 2.86,-0.42 3.54,-1.26 0.679,-0.839 1.02,-2.14 1.02,-3.899 v -18.36 c 0,-1.521 0.34,-2.621 1.02,-3.3 0.679,-0.681 1.78,-1.021 3.3,-1.021 h 18.6 c 1.519,0 2.619,0.34 3.3,1.021 0.679,0.679 1.02,1.779 1.02,3.3 v 25.439 c 0,5.04 -1.341,9.079 -4.02,12.12 -2.681,3.04 -9.06,4.143 -9.468,5.381 -0.495,0.771 3.187,2.639 4.188,4.999 0.999,2.36 1.5,5.221 1.5,8.581 v 5.52 c 0,5.919 -1.7,10.74 -5.1,14.46 -3.401,3.72 -9.581,5.58 -18.54,5.58 H -31.8 c -1.52,0 -2.621,-0.342 -3.3,-1.02 -0.681,-0.681 -1.02,-1.781 -1.02,-3.3 v -77.76 c 0,-1.521 0.339,-2.621 1.02,-3.3 0.679,-0.681 1.78,-1.021 3.3,-1.021 z m 0,-1.2 H -31.8 c -1.92,0 -3.321,0.442 -4.2,1.321 -0.881,0.879 -1.32,2.28 -1.32,4.2 v 77.76 c 0,1.92 0.439,3.319 1.32,4.2 0.879,0.879 2.28,1.32 4.2,1.32 L 8.16,24 C 17.68,24 24.199,22.02 27.72,18.06 31.239,14.1 33,9 33,2.76 v -5.52 c 0,-2.961 -0.36,-5.541 -1.08,-7.74 -0.72,-2.201 -1.92,-3.981 -3.6,-5.341 3.76,-1.04 6.78,-3.119 9.06,-6.239 2.28,-3.12 3.42,-7.041 3.42,-11.761 V -59.28 c 0,-1.92 -0.441,-3.321 -1.32,-4.2 -0.881,-0.879 -2.28,-1.321 -4.2,-1.321 h -18.6 c -1.92,0 -3.321,0.442 -4.2,1.321 -0.881,0.879 -1.32,2.28 -1.32,4.2 v 18.36 c 0,1.278 -0.24,2.259 -0.72,2.94 -0.48,0.678 -1.361,1.02 -2.64,1.02 H -7.8 v -22.32 c 0,-1.92 -0.441,-3.321 -1.32,-4.2 -0.881,-0.879 -2.28,-1.321 -4.2,-1.321 z"
         style="fill:none;stroke:#9cb33b;stroke-width:5.669;stroke-linecap:butt;stroke-linejoin:round;stroke-miterlimit:10;stroke-dasharray:none;stroke-opacity:1"
         id="path768" />
    </g>
    <g
       id="g770"
       transform="matrix(0.2326687,0,0,0.2326687,121.2824,715.5325)">
      <path
         d="m 0,0 h -1.2 v 64.8 h 27.36 c 4.639,0 8.079,-1.301 10.32,-3.9 2.239,-2.6 3.36,-5.861 3.36,-9.78 V 42.841 C 39.84,39.16 39.36,36.14 38.4,33.78 37.44,31.42 35.52,29.8 32.64,28.921 h 1.32 c 4.879,0 8.52,-1.102 10.92,-3.301 2.4,-2.201 3.6,-5.381 3.6,-9.54 V 0 h -1.2 v 16.08 c 0,3.919 -1.08,6.859 -3.24,8.82 -2.16,1.959 -5.52,2.941 -10.08,2.941 H 0 Z"
         style="fill:none;stroke:#231f20;stroke-width:7.087;stroke-linecap:butt;stroke-linejoin:miter;stroke-miterlimit:10;stroke-dasharray:none;stroke-opacity:1"
         id="path772" />
    </g>
    <path
       d="m 131.4175,690.5771 v -0.2792 h -4.6626 c -1.8058,0 -3.0015,0.2792 -3.5878,0.8376 -0.5863,0.5584 -0.8795,1.4798 -0.8795,2.7641 v 7.8177 c 0,1.3216 0.2976,2.2618 0.8935,2.82 0.5954,0.5584 1.7869,0.8378 3.5738,0.8378 h 4.6626 v -0.2794 h -4.6626 c -1.6383,0 -2.7458,-0.256 -3.3225,-0.7676 -0.5773,-0.5124 -0.8656,-1.3823 -0.8656,-2.6108 v -7.8177 c 0,-1.2101 0.2792,-2.0661 0.8376,-2.5686 0.5584,-0.5026 1.6752,-0.7539 3.3505,-0.7539 z m 1.5357,-2.792 c 0.3534,0 0.6093,0.0791 0.7678,0.2376 0.1579,0.1577 0.2373,0.4139 0.2373,0.7675 v 3.3228 c 0,0.3532 -0.0794,0.6093 -0.2373,0.7676 -0.1585,0.1579 -0.4144,0.2373 -0.7678,0.2373 h -5.612 c -0.5773,0 -1.0051,0.107 -1.2843,0.3211 -0.2792,0.2138 -0.4188,0.5537 -0.4188,1.0193 v 6.6448 c 0,0.4651 0.1396,0.8141 0.4188,1.047 0.2792,0.2324 0.707,0.349 1.2843,0.349 h 5.612 c 0.3534,0 0.6093,0.0791 0.7678,0.2373 0.1579,0.158 0.2373,0.4141 0.2373,0.768 v 3.3782 c 0,0.3534 -0.0794,0.6093 -0.2373,0.7678 -0.1585,0.1579 -0.4144,0.2373 -0.7678,0.2373 h -6.8126 c -2.3271,0 -4.0533,-0.4702 -5.1792,-1.41 -1.1263,-0.94 -1.6892,-2.3781 -1.6892,-4.3137 v -8.6832 c 0,-1.936 0.5629,-3.369 1.6892,-4.2997 1.1259,-0.9309 2.8521,-1.396 5.1792,-1.396 z m 1.2843,1.0051 c 0,-0.4467 -0.1026,-0.7724 -0.3071,-0.9772 -0.2052,-0.2045 -0.5305,-0.3071 -0.9772,-0.3071 h -6.8126 c -2.4388,0 -4.2394,0.493 -5.4025,1.4798 -1.1636,0.9863 -1.7451,2.4849 -1.7451,4.4951 v 8.6832 c 0,2.0287 0.5815,3.5364 1.7451,4.5231 1.1631,0.9863 2.9637,1.48 5.4025,1.48 h 6.8126 c 0.4467,0 0.772,-0.1028 0.9772,-0.3073 0.2045,-0.205 0.3071,-0.5305 0.3071,-0.9772 v -3.3782 c 0,-0.4467 -0.1026,-0.7729 -0.3071,-0.9774 -0.2052,-0.205 -0.5305,-0.3071 -0.9772,-0.3071 h -5.612 c -0.4656,0 -0.8195,-0.0887 -1.061,-0.2653 -0.2422,-0.177 -0.3629,-0.4607 -0.3629,-0.8515 v -6.6448 c 0,-0.3911 0.1207,-0.6659 0.3629,-0.8237 0.2415,-0.1584 0.5954,-0.2375 1.061,-0.2375 h 5.612 c 0.4467,0 0.772,-0.1024 0.9772,-0.3071 0.2045,-0.205 0.3071,-0.5303 0.3071,-0.977 z"
       style="fill:#ffffff;fill-opacity:1;fill-rule:nonzero;stroke:none"
       id="path774" />
    <g
       id="g776"
       transform="matrix(0.2326687,0,0,0.2326687,131.4175,690.5771)">
      <path
         d="m 0,0 v -1.2 h -20.04 c -7.761,0 -12.9,1.2 -15.42,3.6 -2.52,2.4 -3.78,6.36 -3.78,11.88 v 33.6 c 0,5.68 1.279,9.721 3.84,12.12 2.559,2.4 7.68,3.601 15.36,3.601 H 0 V 62.4 h -20.04 c -7.041,0 -11.801,-1.1 -14.28,-3.299 -2.481,-2.202 -3.72,-5.941 -3.72,-11.221 v -33.6 c 0,-5.201 1.2,-8.88 3.6,-11.04 2.4,-2.16 7.2,-3.24 14.4,-3.24 z m 6.6,-12 c 1.519,0 2.619,0.34 3.3,1.021 0.679,0.678 1.02,1.779 1.02,3.299 V 6.601 C 10.92,8.119 10.579,9.22 9.9,9.9 9.219,10.579 8.119,10.92 6.6,10.92 h -24.12 c -2.481,0 -4.32,0.46 -5.52,1.38 -1.2,0.919 -1.8,2.38 -1.8,4.381 V 45.24 c 0,1.999 0.6,3.499 1.8,4.5 1.2,0.999 3.039,1.5 5.52,1.5 H 6.6 c 1.519,0 2.619,0.34 3.3,1.02 0.679,0.679 1.02,1.78 1.02,3.301 V 70.08 c 0,1.519 -0.341,2.619 -1.02,3.3 -0.681,0.679 -1.781,1.02 -3.3,1.02 h -29.28 c -10.002,0 -17.421,-2.021 -22.26,-6.06 C -49.781,64.3 -52.2,58.119 -52.2,49.8 V 12.48 c 0,-8.321 2.419,-14.48 7.26,-18.48 4.839,-4.001 12.258,-6 22.26,-6 z m 5.52,4.32 c 0,-1.92 -0.441,-3.32 -1.32,-4.2 -0.882,-0.879 -2.28,-1.32 -4.2,-1.32 h -29.28 c -10.482,0 -18.221,2.119 -23.22,6.36 -5.001,4.239 -7.5,10.68 -7.5,19.32 V 49.8 c 0,8.719 2.499,15.199 7.5,19.44 4.999,4.239 12.738,6.361 23.22,6.361 H 6.6 c 1.92,0 3.318,-0.442 4.2,-1.321 0.879,-0.881 1.32,-2.28 1.32,-4.2 V 55.561 c 0,-1.92 -0.441,-3.322 -1.32,-4.201 C 9.918,50.479 8.52,50.04 6.6,50.04 h -24.12 c -2.001,0 -3.522,-0.381 -4.56,-1.14 -1.041,-0.761 -1.56,-1.98 -1.56,-3.66 V 16.681 c 0,-1.681 0.519,-2.862 1.56,-3.54 1.038,-0.681 2.559,-1.021 4.56,-1.021 H 6.6 c 1.92,0 3.318,-0.44 4.2,-1.32 0.879,-0.881 1.32,-2.279 1.32,-4.199 z"
         style="fill:none;stroke:#9cb33b;stroke-width:5.669;stroke-linecap:butt;stroke-linejoin:miter;stroke-miterlimit:10;stroke-dasharray:none;stroke-opacity:1"
         id="path778" />
    </g>
    <path
       d="m 131.4129,690.5771 v -0.2792 h -4.6627 c -1.8057,0 -3.0014,0.2792 -3.5877,0.8376 -0.5864,0.5584 -0.8795,1.4798 -0.8795,2.7641 v 7.8177 c 0,1.3216 0.2976,2.2618 0.8934,2.82 0.5954,0.5584 1.7869,0.8378 3.5738,0.8378 h 4.6627 v -0.2794 h -4.6627 c -1.6382,0 -2.7457,-0.256 -3.3225,-0.7676 -0.5772,-0.5124 -0.8655,-1.3823 -0.8655,-2.6108 v -7.8177 c 0,-1.2101 0.2792,-2.0661 0.8376,-2.5686 0.5584,-0.5026 1.6752,-0.7539 3.3504,-0.7539 z"
       style="fill:#ffffff;fill-opacity:1;fill-rule:nonzero;stroke:none"
       id="path780" />
    <g
       id="g782"
       transform="matrix(0.2326687,0,0,0.2326687,131.4129,690.5771)">
      <path
         d="m 0,0 v -1.2 h -20.04 c -7.761,0 -12.9,1.2 -15.42,3.6 -2.52,2.4 -3.78,6.36 -3.78,11.88 v 33.6 c 0,5.68 1.279,9.721 3.84,12.12 2.559,2.4 7.68,3.601 15.36,3.601 H 0 V 62.4 h -20.04 c -7.041,0 -11.801,-1.1 -14.28,-3.299 -2.481,-2.202 -3.72,-5.941 -3.72,-11.221 v -33.6 c 0,-5.201 1.2,-8.88 3.6,-11.04 2.4,-2.16 7.2,-3.24 14.4,-3.24 z"
         style="fill:none;stroke:#231f20;stroke-width:7.087;stroke-linecap:butt;stroke-linejoin:miter;stroke-miterlimit:10;stroke-dasharray:none;stroke-opacity:1"
         id="path784" />
    </g>
  </g>
</svg>
