<?xml version="1.0" encoding="UTF-8" standalone="no"?>
<svg
   version="1.1"
   id="svg2"
   width="300"
   height="150"
   viewBox="0 0 300 150"
   sodipodi:docname="makeit.svg"
   inkscape:version="1.4 (86a8ad7, 2024-10-11)"
   xmlns:inkscape="http://www.inkscape.org/namespaces/inkscape"
   xmlns:sodipodi="http://sodipodi.sourceforge.net/DTD/sodipodi-0.dtd"
   xmlns="http://www.w3.org/2000/svg"
   xmlns:svg="http://www.w3.org/2000/svg">
  <defs
     id="defs1" />
  <sodipodi:namedview
     id="namedview1"
     pagecolor="#ffffff"
     bordercolor="#999999"
     borderopacity="1"
     inkscape:showpageshadow="2"
     inkscape:pageopacity="0"
     inkscape:pagecheckerboard="0"
     inkscape:deskcolor="#d1d1d1"
     inkscape:zoom="1.9477373"
     inkscape:cx="185.59998"
     inkscape:cy="123.47661"
     inkscape:window-width="1920"
     inkscape:window-height="991"
     inkscape:window-x="-9"
     inkscape:window-y="-9"
     inkscape:window-maximized="1"
     inkscape:current-layer="g494" />
  <g
     id="g494"
     clip-path="url(#clipPath498)"
     transform="matrix(1.3333333,0,0,-1.3333333,-427.74934,1056.3844)">
    <path
       d="m 455.1731,754.4429 16.9588,6.1856 -3.122,-17.7801 z"
       style="fill:#aab637;fill-opacity:1;fill-rule:nonzero;stroke:none"
       id="path500" />
    <g
       id="g502"
       transform="matrix(0.596828,0,0,0.596828,455.1731,754.4429)">
      <path
         d="M 0,0 28.415,10.364 23.184,-19.427 Z"
         style="fill:none;stroke:#231f20;stroke-width:0.709;stroke-linecap:butt;stroke-linejoin:miter;stroke-miterlimit:10;stroke-dasharray:none;stroke-opacity:1"
         id="path504" />
    </g>
    <path
       d="m 373.3738,742.3368 c 1.7237,-1.7386 2.5861,-4.3617 2.5861,-7.8668 v -13.4728 h -8.2577 v 12.1257 c 0,1.6515 -0.3116,2.8684 -0.9346,3.6508 -0.6231,0.7825 -1.4993,1.174 -2.6291,1.174 -1.2461,0 -2.2458,-0.4351 -2.999,-1.3047 -0.7538,-0.869 -1.1304,-2.1879 -1.1304,-3.9546 v -11.6912 h -8.2577 v 12.1257 c 0,3.2157 -1.1883,4.8248 -3.5637,4.8248 -1.2748,0 -2.2894,-0.4351 -3.042,-1.3047 -0.7538,-0.869 -1.1304,-2.1879 -1.1304,-3.9546 v -11.6912 h -8.2577 v 23.5562 h 7.8668 v -2.4775 c 0.8689,0.9562 1.9044,1.6736 3.107,2.151 1.2027,0.4781 2.5133,0.7174 3.9337,0.7174 1.6515,0 3.1292,-0.3038 4.4333,-0.9125 1.3035,-0.6088 2.361,-1.5363 3.1721,-2.7813 0.9275,1.1871 2.1009,2.1003 3.5207,2.7377 1.4199,0.6368 2.9698,0.9561 4.6505,0.9561 2.897,0 5.2079,-0.869 6.9321,-2.6075"
       style="fill:#231f20;fill-opacity:1;fill-rule:nonzero;stroke:none"
       id="path506" />
    <path
       d="m 393.4317,726.5168 c 0.7233,0.4625 1.245,1.1441 1.5649,2.0429 v 2.0423 h -3.5643 c -2.4052,0 -3.6072,-0.7973 -3.6072,-2.3902 0,-0.7246 0.2745,-1.3041 0.8254,-1.7386 0.5503,-0.4345 1.3041,-0.6517 2.2602,-0.6517 0.9561,0 1.7958,0.2315 2.521,0.6953 m 6.7364,15.7544 c 2.0567,-1.7815 3.0862,-4.5126 3.0862,-8.192 v -13.0819 h -7.6931 v 3.042 c -1.1883,-2.2888 -3.5064,-3.4335 -6.9537,-3.4335 -1.8257,0 -3.4055,0.3193 -4.7376,0.9561 -1.3333,0.6374 -2.3402,1.4992 -3.0205,2.5855 -0.6816,1.0874 -1.0218,2.3258 -1.0218,3.717 0,2.2303 0.8546,3.9617 2.5646,5.193 1.7093,1.2313 4.3461,1.8472 7.9097,1.8472 h 4.6947 c -0.1457,2.4917 -1.812,3.7379 -4.9985,3.7379 -1.1298,0 -2.2751,-0.1814 -3.4335,-0.5437 -1.1591,-0.3623 -2.145,-0.8618 -2.9555,-1.4986 l -2.7812,5.6066 c 1.3034,0.869 2.8904,1.5428 4.7585,2.0202 1.8692,0.4781 3.7451,0.7174 5.6287,0.7174 3.911,0 6.8951,-0.891 8.953,-2.6732"
       style="fill:#231f20;fill-opacity:1;fill-rule:nonzero;stroke:none"
       id="path508" />
    <path
       d="m 419.1606,729.2549 -2.4345,-2.4768 v -5.7809 h -8.2577 v 32.2484 h 8.2577 v -16.9069 l 8.432,8.2147 h 9.779 l -9.779,-10.0834 10.6044,-13.4728 h -9.9962 z"
       style="fill:#231f20;fill-opacity:1;fill-rule:nonzero;stroke:none"
       id="path510" />
    <path
       d="m 445.5638,737.9905 c -0.8559,-0.7245 -1.3984,-1.7099 -1.63,-2.9549 h 9.649 c -0.2328,1.245 -0.7759,2.2304 -1.6306,2.9549 -0.8552,0.724 -1.92,1.0863 -3.1942,1.0863 -1.2754,0 -2.3402,-0.3623 -3.1942,-1.0863 m 15.6243,-7.301 h -17.1242 c 0.3474,-1.2175 1.0212,-2.1521 2.0209,-2.8039 1.0003,-0.6517 2.2524,-0.9776 3.76,-0.9776 1.1298,0 2.1074,0.1588 2.9334,0.4775 0.826,0.3187 1.658,0.8409 2.4989,1.5655 l 4.3467,-4.521 c -2.2894,-2.5496 -5.6364,-3.8245 -10.0398,-3.8245 -2.7538,0 -5.1727,0.5217 -7.2586,1.5649 -2.0859,1.0433 -3.7015,2.4918 -4.8457,4.3461 -1.1453,1.8538 -1.717,3.9552 -1.717,6.3019 0,2.3181 0.558,4.3963 1.6735,6.2369 1.1148,1.8394 2.6582,3.2813 4.629,4.3246 1.9695,1.0427 4.1861,1.5643 6.6492,1.5643 2.3474,0 4.4768,-0.4852 6.3885,-1.4557 1.9122,-0.971 3.427,-2.3765 4.5424,-4.216 1.1149,-1.84 1.6729,-4.0202 1.6729,-6.5412 0,-0.0579 -0.0435,-0.7389 -0.1301,-2.0418"
       style="fill:#231f20;fill-opacity:1;fill-rule:nonzero;stroke:none"
       id="path512" />
    <path
       d="m 474.6233,720.9971 h 8.25771 v 23.5562 h -8.25771 z"
       style="fill:#231f20;fill-opacity:1;fill-rule:nonzero;stroke:none"
       id="path514" />
    <path
       d="m 504.4819,721.9531 c -0.6953,-0.4351 -1.5434,-0.7681 -2.5425,-0.9997 -1.0003,-0.2315 -2.065,-0.3479 -3.1942,-0.3479 -3.0725,0 -5.4329,0.7538 -7.0843,2.2602 -1.6521,1.5064 -2.4781,3.7516 -2.4781,6.7364 v 7.9103 h -3.4335 v 6.1718 h 3.4335 v 6.1282 h 8.2577 v -6.1282 h 5.3894 v -6.1718 h -5.3894 v -7.8226 c 0,-0.8409 0.2244,-1.4998 0.6739,-1.9785 0.4488,-0.4774 1.0498,-0.7168 1.8042,-0.7168 0.9561,0 1.7952,0.2459 2.5204,0.7389 z"
       style="fill:#231f20;fill-opacity:1;fill-rule:nonzero;stroke:none"
       id="path516" />
    <g
       id="g518"
       transform="matrix(0.596828,0,0,0.596828,241.8718,489.4027)">
      <path
         d="M 8.205,0 6.78,-3.69 H 2.34 L 0.885,0 H 0 L 4.2,-10.74 H 5.01 L 9.12,0 Z M 6.51,-4.47 5.07,-8.34 Q 5.01,-8.55 4.86,-9 4.71,-9.45 4.59,-9.795 4.47,-9.405 4.335,-9 4.2,-8.61 4.11,-8.325 L 2.625,-4.47 Z m 11.505,1.68 q 0,0.96 -0.48,1.62 -0.48,0.645 -1.32,0.99 -0.84,0.33 -1.92,0.33 -0.96,0 -1.68,-0.135 -0.72,-0.135 -1.23,-0.345 v -0.855 q 0.57,0.225 1.32,0.405 0.765,0.165 1.65,0.165 1.23,0 1.995,-0.525 0.78,-0.54 0.78,-1.59 0,-0.63 -0.3,-1.035 -0.285,-0.42 -0.9,-0.72 -0.6,-0.315 -1.545,-0.63 -0.9,-0.315 -1.545,-0.675 -0.645,-0.375 -0.99,-0.93 -0.345,-0.57 -0.345,-1.425 0,-0.885 0.435,-1.485 0.45,-0.6 1.215,-0.915 0.78,-0.315 1.77,-0.315 0.78,0 1.485,0.15 0.705,0.15 1.335,0.42 l -0.3,0.75 q -1.26,-0.54 -2.55,-0.54 -1.11,0 -1.815,0.495 -0.69,0.48 -0.69,1.425 0,0.69 0.3,1.11 0.3,0.405 0.87,0.69 0.57,0.285 1.395,0.57 0.945,0.33 1.62,0.705 0.69,0.36 1.065,0.9 0.375,0.54 0.375,1.395 z m 9.134999,0 q 0,0.96 -0.48,1.62 -0.48,0.645 -1.32,0.99 -0.84,0.33 -1.92,0.33 -0.96,0 -1.68,-0.135 -0.72,-0.135 -1.23,-0.345 v -0.855 q 0.57,0.225 1.32,0.405 0.765,0.165 1.65,0.165 1.23,0 1.995,-0.525 0.78,-0.54 0.78,-1.59 0,-0.63 -0.3,-1.035 -0.285,-0.42 -0.9,-0.72 -0.6,-0.315 -1.545,-0.63 -0.9,-0.315 -1.545,-0.675 -0.645,-0.375 -0.99,-0.93 -0.345,-0.57 -0.345,-1.425 0,-0.885 0.435,-1.485 0.45,-0.6 1.215,-0.915 0.78,-0.315 1.77,-0.315 0.78,0 1.485,0.15 0.705,0.15 1.335,0.42 l -0.3,0.75 q -1.26,-0.54 -2.55,-0.54 -1.11,0 -1.815,0.495 -0.69,0.48 -0.69,1.425 0,0.69 0.3,1.11 0.3,0.405 0.87,0.69 0.57,0.285 1.395,0.57 0.945,0.33 1.62,0.705 0.69,0.36 1.065,0.9 0.375,0.54 0.375,1.395 z m 12.27,-2.58 q 0,1.635 -0.54,2.88 -0.54,1.245 -1.62,1.95 -1.065,0.69 -2.655,0.69 -1.62,0 -2.7,-0.69 -1.065,-0.705 -1.605,-1.95 -0.525,-1.26 -0.525,-2.895 0,-1.635 0.54,-2.865 0.555,-1.23 1.635,-1.92 1.095,-0.705 2.7,-0.705 1.545,0 2.595,0.675 1.065,0.66 1.62,1.89 0.555,1.23 0.555,2.94 z m -8.73,0 q 0,1.425 0.42,2.505 0.42,1.065 1.29,1.665 0.87,0.585 2.205,0.585 1.35,0 2.205,-0.585 0.87,-0.6 1.275,-1.665 0.42,-1.065 0.42,-2.505 0,-2.22 -0.975,-3.465 -0.96,-1.26 -2.88,-1.26 -1.335,0 -2.22,0.6 -0.885,0.585 -1.32,1.65 -0.42,1.065 -0.42,2.475 z m 16.785002,-4.71 q -1.32,0 -2.265,0.6 -0.945,0.585 -1.455,1.65 -0.495,1.05 -0.495,2.46 0,1.44 0.45,2.505 0.465,1.065 1.365,1.65 0.9,0.585 2.25,0.585 0.78,0 1.425,-0.12 0.66,-0.12 1.245,-0.3 v 0.75 q -0.555,0.21 -1.23,0.33 -0.66,0.12 -1.53,0.12 -1.62,0 -2.715,-0.69 -1.08,-0.69 -1.635,-1.935 -0.54,-1.245 -0.54,-2.91 0,-1.59 0.6,-2.82 0.615,-1.245 1.755,-1.95 1.155,-0.705 2.775,-0.705 1.575,0 2.82,0.6 l -0.345,0.75 q -1.17,-0.57 -2.475,-0.57 z M 56.054999,0 h -3.15 v -0.54 l 1.14,-0.165 V -9.99 l -1.14,-0.18 v -0.54 h 3.15 v 0.54 l -1.14,0.18 v 9.285 l 1.14,0.165 z m 8.730003,0 -1.425,-3.69 h -4.44 l -1.455,3.69 h -0.885 l 4.2,-10.74 h 0.81 l 4.11,10.74 z m -1.695,-4.47 -1.44,-3.87 q -0.06,-0.21 -0.21,-0.66 -0.15,-0.45 -0.27,-0.795 -0.12,0.39 -0.255,0.795 -0.135,0.39 -0.225,0.675 l -1.485,3.855 z M 71.039997,0 h -0.87 v -9.93 h -3.45 v -0.78 h 7.77 v 0.78 h -3.45 z m 7.935,0 h -3.15 v -0.54 l 1.14,-0.165 V -9.99 l -1.14,-0.18 v -0.54 h 3.15 v 0.54 l -1.14,0.18 v 9.285 l 1.14,0.165 z M 90.075,-5.37 q 0,1.635 -0.54,2.88 -0.54,1.245 -1.62,1.95 -1.065,0.69 -2.655,0.69 -1.62,0 -2.7,-0.69 -1.065,-0.705 -1.605,-1.95 -0.525,-1.26 -0.525,-2.895 0,-1.635 0.54,-2.865 0.555,-1.23 1.635,-1.92 1.095,-0.705 2.7,-0.705 1.545,0 2.595,0.675 1.065,0.66 1.62,1.89 0.555,1.23 0.555,2.94 z m -8.73,0 q 0,1.425 0.42,2.505 0.42,1.065 1.29,1.665 0.87,0.585 2.205,0.585 1.35,0 2.205,-0.585 0.87,-0.6 1.275,-1.665 0.42,-1.065 0.42,-2.505 0,-2.22 -0.975,-3.465 -0.96,-1.26 -2.88,-1.26 -1.335,0 -2.22,0.6 -0.885,0.585 -1.32,1.65 -0.42,1.065 -0.42,2.475 z M 101.49,0 h -0.93 L 94.365,-9.36 H 94.32 q 0.03,0.585 0.045,1.245 0.015,0.645 0.015,1.365 V 0 h -0.81 v -10.71 h 0.93 l 6.18,9.33 h 0.06 q -0.03,-0.465 -0.045,-1.185 -0.015,-0.735 -0.015,-1.35 v -6.795 h 0.81 z m 14.085,-2.79 q 0,0.96 -0.48,1.62 -0.48,0.645 -1.32,0.99 -0.84,0.33 -1.92,0.33 -0.96,0 -1.68,-0.135 -0.72,-0.135 -1.23,-0.345 v -0.855 q 0.57,0.225 1.32,0.405 0.765,0.165 1.65,0.165 1.23,0 1.995,-0.525 0.78,-0.54 0.78,-1.59 0,-0.63 -0.3,-1.035 -0.285,-0.42 -0.9,-0.72 -0.6,-0.315 -1.545,-0.63 -0.9,-0.315 -1.545,-0.675 -0.645,-0.375 -0.99,-0.93 -0.345,-0.57 -0.345,-1.425 0,-0.885 0.435,-1.485 0.45,-0.6 1.215,-0.915 0.78,-0.315 1.77,-0.315 0.78,0 1.485,0.15 0.705,0.15 1.335,0.42 l -0.3,0.75 q -1.26,-0.54 -2.55,-0.54 -1.11,0 -1.815,0.495 -0.69,0.48 -0.69,1.425 0,0.69 0.3,1.11 0.3,0.405 0.87,0.69 0.57,0.285 1.395,0.57 0.945,0.33 1.62,0.705 0.69,0.36 1.065,0.9 0.375,0.54 0.375,1.395 z m 9.9,2.79 -1.425,-3.69 h -4.44 L 118.155,0 h -0.885 l 4.2,-10.74 h 0.81 L 126.39,0 Z m -1.695,-4.47 -1.44,-3.87 q -0.06,-0.21 -0.21,-0.66 -0.15,-0.45 -0.27,-0.795 -0.12,0.39 -0.255,0.795 -0.135,0.39 -0.225,0.675 l -1.485,3.855 z M 137.265,0 h -0.93 l -6.195,-9.36 h -0.045 q 0.03,0.585 0.045,1.245 0.015,0.645 0.015,1.365 V 0 h -0.81 v -10.71 h 0.93 l 6.18,9.33 h 0.06 q -0.03,-0.465 -0.045,-1.185 -0.015,-0.735 -0.015,-1.35 v -6.795 h 0.81 z m 10.22999,-2.79 q 0,0.96 -0.48,1.62 -0.48,0.645 -1.32,0.99 -0.84,0.33 -1.92,0.33 -0.96,0 -1.68,-0.135 -0.72,-0.135 -1.23,-0.345 v -0.855 q 0.57,0.225 1.32,0.405 0.765,0.165 1.65,0.165 1.23,0 1.995,-0.525 0.78,-0.54 0.78,-1.59 0,-0.63 -0.3,-1.035 -0.285,-0.42 -0.9,-0.72 -0.6,-0.315 -1.545,-0.63 -0.9,-0.315 -1.545,-0.675 -0.645,-0.375 -0.99,-0.93 -0.345,-0.57 -0.345,-1.425 0,-0.885 0.435,-1.485 0.45,-0.6 1.215,-0.915 0.78,-0.315 1.77,-0.315 0.78,0 1.485,0.15 0.705,0.15 1.335,0.42 l -0.3,0.75 q -1.26,-0.54 -2.55,-0.54 -1.11,0 -1.815,0.495 -0.69,0.48 -0.69,1.425 0,0.69 0.3,1.11 0.3,0.405 0.87,0.69 0.57,0.285 1.395,0.57 0.945,0.33 1.62,0.705 0.69,0.36 1.065,0.9 0.375,0.54 0.375,1.395 z m 7.05001,-7.92 h 2.97 q 1.98,0 2.925,0.615 0.945,0.615 0.945,1.995 0,0.93 -0.54,1.59 -0.54,0.66 -1.545,0.84 v 0.06 q 1.17,0.18 1.77,0.81 0.615,0.615 0.615,1.755 0,1.035 -0.48,1.71 -0.465,0.675 -1.32,1.005 -0.84,0.33 -1.95,0.33 h -3.39 z m 0.87,4.725 h 2.295 q 1.47,0 2.115,-0.51 0.66,-0.51 0.66,-1.515 0,-1.035 -0.705,-1.485 -0.705,-0.45 -2.265,-0.45 h -2.1 z m 0,0.75 v 4.485 h 2.445 q 2.91,0 2.91,-2.34 0,-1.11 -0.75,-1.62 -0.735,-0.525 -2.295,-0.525 z m 18.345,-5.475 v 6.93 q 0,1.83 -1.065,2.88 -1.065,1.05 -3,1.05 -1.92,0 -2.955,-1.05 -1.035,-1.05 -1.035,-2.91 v -6.9 h 0.87 v 6.9 q 0,1.56 0.81,2.385 0.81,0.81 2.37,0.81 1.515,0 2.325,-0.81 0.825,-0.825 0.825,-2.295 v -6.99 z M 180.41999,0 h -0.87 v -9.93 h -3.45 v -0.78 h 7.77 v 0.78 h -3.45 z M 189.81,0 v -10.71 h 0.87 v 9.93 h 5.01 V 0 Z m 16.5,-10.71 v 6.93 q 0,1.83 -1.065,2.88 -1.065,1.05 -3,1.05 -1.92,0 -2.955,-1.05 -1.035,-1.05 -1.035,-2.91 v -6.9 h 0.87 v 6.9 q 0,1.56 0.81,2.385 0.81,0.81 2.37,0.81 1.515,0 2.325,-0.81 0.825,-0.825 0.825,-2.295 v -6.99 z m 8.52,0.63 q -1.32,0 -2.265,0.6 -0.945,0.585 -1.455,1.65 -0.495,1.05 -0.495,2.46 0,1.44 0.45,2.505 0.465,1.065 1.365,1.65 0.9,0.585 2.25,0.585 0.78,0 1.425,-0.12 0.66,-0.12 1.245,-0.3 v 0.75 q -0.555,0.21 -1.23,0.33 -0.66,0.12 -1.53,0.12 -1.62,0 -2.715,-0.69 -1.08,-0.69 -1.635,-1.935 -0.54,-1.245 -0.54,-2.91 0,-1.59 0.6,-2.82 0.615,-1.245 1.755,-1.95 1.155,-0.705 2.775,-0.705 1.575,0 2.82,0.6 l -0.345,0.75 q -1.17,-0.57 -2.475,-0.57 z m 8.84999,-0.63 q 1.92,0 2.88,0.675 0.975,0.675 0.975,2.265 0,1.23 -0.66,1.92 -0.645,0.69 -1.62,0.99 l 2.94,4.86 h -1.035 l -2.73,-4.62 h -2.55 V 0 h -0.87 v -10.71 z m -0.075,0.78 h -1.725 v 4.56 h 2.025 q 1.305,0 2.01,-0.615 0.72,-0.615 0.72,-1.755 0,-1.23 -0.75,-1.71 -0.735,-0.48 -2.28,-0.48 z M 238.515,0 237.09,-3.69 h -4.44 L 231.195,0 h -0.885 l 4.2,-10.74 h 0.81 L 239.43,0 Z m -1.695,-4.47 -1.44,-3.87 q -0.06,-0.21 -0.21,-0.66 -0.15,-0.45 -0.27,-0.795 -0.12,0.39 -0.255,0.795 -0.135,0.39 -0.225,0.675 l -1.485,3.855 z M 244.76851,0 h -0.87 v -9.93 h -3.45 v -0.78 h 7.77 v 0.78 h -3.45 z m 7.93499,0 h -3.15 v -0.54 l 1.14,-0.165 V -9.99 l -1.14,-0.18 v -0.54 h 3.15 v 0.54 l -1.14,0.18 v 9.285 l 1.14,0.165 z m 2.895,0 h -0.87 v -10.71 h 5.88 v 0.78 h -5.01 v 4.41 h 4.74 v 0.78 h -4.74 z"
         id="text522"
         style="font-weight:300;font-size:15px;font-family:Montserrat;-inkscape-font-specification:Montserrat-Light;fill:#231f20"
         transform="matrix(1,0,0,-1,226,369.7598)"
         aria-label="ASSOCIATION SANS BUT LUCRATIF" />
    </g>
  </g>
</svg>
